<?xml version="1.0" encoding="UTF-8"?>
<svg id="Layer_1" data-name="Layer 1" xmlns="http://www.w3.org/2000/svg" viewBox="0 0 1920 1080">
  <defs>
    <style>
      .cls-1, .cls-2 {
        fill: #f06022;
        stroke-width: 0px;
      }

      .cls-2 {
        fill-rule: evenodd;
      }
    </style>
  </defs>
  <g>
    <g>
      <path class="cls-1" d="M625.78,667.31c0,.44-.18.85-.54,1.23-2.4,1.9-5.1,2.87-8.1,2.87-3.58,0-6.62-1.26-9.14-3.77-2.52-2.53-3.77-5.58-3.77-9.14s1.25-6.61,3.77-9.12c2.53-2.52,5.58-3.79,9.14-3.79,3.05,0,5.81,1,8.27,3.02.31.28.46.67.46,1.16,0,.26-.05.47-.13.69-.08.2-.21.38-.36.54-.16.15-.34.28-.56.36-.2.08-.42.13-.65.13-.45,0-.84-.16-1.18-.49-.82-.64-1.73-1.13-2.71-1.47-.98-.35-2.03-.53-3.13-.53-2.62,0-4.87.94-6.74,2.79-1.84,1.85-2.76,4.08-2.76,6.7s.92,4.87,2.76,6.71c1.85,1.85,4.1,2.77,6.74,2.77,1.94,0,3.69-.51,5.21-1.52v-5h-4.44c-.5,0-.89-.16-1.21-.49-.33-.33-.5-.74-.5-1.23,0-.23.03-.46.12-.65.1-.21.21-.39.38-.56.15-.15.33-.28.52-.36.21-.08.44-.13.69-.13h6.18c.21,0,.43.05.64.15.2.08.37.21.54.36.15.16.28.34.37.56.08.2.13.42.13.64v7.58ZM625.78,667.31"/>
      <path class="cls-1" d="M638.69,649.01v9.02h4.51c.63,0,1.21-.11,1.75-.34.56-.25,1.03-.58,1.43-.98.41-.41.72-.89.97-1.44.23-.54.36-1.12.36-1.72s-.13-1.21-.36-1.77c-.24-.54-.55-1.02-.97-1.43-.41-.41-.89-.74-1.44-.97-.54-.24-1.13-.36-1.74-.36h-4.51ZM635.26,669.69v-22.38c0-.23.05-.46.13-.67.08-.21.21-.39.36-.54.16-.16.34-.28.54-.36.19-.1.42-.13.67-.13h6.23c1.08,0,2.12.2,3.07.62.97.43,1.8.99,2.52,1.71.72.72,1.28,1.57,1.7,2.52.41.97.63,1.99.63,3.09,0,.71-.08,1.39-.26,2.07-.18.67-.44,1.31-.79,1.9-.36.6-.79,1.15-1.31,1.67-.52.51-1.13.95-1.82,1.35l5.15,8.23c.18.31.28.62.28.93,0,.26-.05.48-.13.69-.08.2-.21.38-.36.54-.16.15-.34.28-.55.36-.2.08-.43.13-.66.13-.6,0-1.1-.28-1.47-.84l-5.69-9.12h-4.8v8.23c0,.48-.18.89-.51,1.21-.33.34-.74.51-1.21.51s-.87-.16-1.2-.51c-.34-.33-.51-.73-.51-1.21h0ZM635.26,669.69"/>
      <path class="cls-1" d="M674.77,659.28l-2.8-7.25-2.8,7.25h5.61ZM661.71,668.92l8.61-22.16c.34-.79.9-1.16,1.64-1.16s1.29.38,1.62,1.16l8.64,22.24c.1.21.13.44.13.69,0,.48-.16.89-.49,1.21-.34.34-.74.51-1.21.51s-.87-.16-1.2-.51c-.16-.16-.3-.34-.38-.54l-2.98-7.67h-8.27l-3,7.67c-.08.2-.21.38-.39.54-.33.34-.74.51-1.2.51s-.88-.16-1.21-.51c-.33-.33-.49-.73-.49-1.21,0-.24.07-.51.18-.77h0ZM661.71,668.92"/>
      <path class="cls-1" d="M695.38,671.41c-.76,0-1.28-.36-1.57-1.08l-8.66-22.16c-.13-.33-.2-.62-.2-.87,0-.23.05-.46.13-.67.08-.21.21-.39.36-.54.16-.16.34-.28.54-.36.21-.1.45-.13.69-.13.75,0,1.28.33,1.57,1.02l7.13,18.33,7.13-18.33c.25-.69.79-1.02,1.57-1.02.25,0,.46.03.67.13.21.08.39.2.54.36.16.15.28.33.38.54.08.21.11.45.11.67,0,.28-.06.58-.18.87l-8.67,22.16c-.28.72-.81,1.08-1.56,1.08h0ZM695.38,671.41"/>
      <path class="cls-1" d="M719.6,669.69c0,.48-.16.89-.49,1.21-.34.34-.74.51-1.21.51s-.89-.16-1.21-.51c-.33-.33-.49-.73-.49-1.21v-22.38c0-.47.16-.87.49-1.21.33-.33.74-.49,1.21-.49s.87.16,1.21.49c.33.34.49.74.49,1.21v22.38ZM719.6,669.69"/>
      <path class="cls-1" d="M729.71,669.69v-22.38c0-.23.03-.46.13-.67.08-.21.2-.39.36-.54.15-.16.33-.28.54-.36.2-.1.42-.13.67-.13.51,0,.95.2,1.33.62l14.38,18.5v-17.42c0-.47.16-.87.51-1.21.33-.33.74-.49,1.2-.49s.89.16,1.21.49c.34.34.51.74.51,1.21v22.38c0,.26-.05.48-.13.69-.08.2-.21.38-.36.54-.16.15-.34.28-.56.36-.21.08-.42.13-.67.13-.49,0-.93-.19-1.29-.6l-14.42-18.5v17.38c0,.48-.16.89-.49,1.21-.34.34-.74.51-1.21.51s-.87-.16-1.21-.51c-.33-.33-.49-.73-.49-1.21h0ZM729.71,669.69"/>
      <path class="cls-1" d="M781.38,667.31c0,.44-.16.85-.52,1.23-2.39,1.9-5.1,2.87-8.12,2.87-3.58,0-6.61-1.26-9.14-3.77-2.51-2.53-3.77-5.58-3.77-9.14s1.26-6.61,3.77-9.12c2.52-2.52,5.58-3.79,9.14-3.79,3.05,0,5.82,1,8.28,3.02.3.28.45.67.45,1.16,0,.26-.03.47-.13.69-.08.2-.19.38-.36.54-.15.15-.33.28-.54.36-.21.08-.44.13-.68.13-.44,0-.84-.16-1.18-.49-.82-.64-1.72-1.13-2.7-1.47-.99-.35-2.02-.53-3.13-.53-2.62,0-4.87.94-6.73,2.79-1.84,1.85-2.75,4.08-2.75,6.7s.92,4.87,2.75,6.71c1.85,1.85,4.08,2.77,6.73,2.77,1.95,0,3.69-.51,5.23-1.52v-5h-4.46c-.47,0-.89-.16-1.21-.49-.33-.33-.49-.74-.49-1.23,0-.23.05-.46.13-.65.08-.21.21-.39.36-.56.16-.15.34-.28.54-.36.2-.08.43-.13.67-.13h6.18c.23,0,.44.05.64.15.21.08.39.21.54.36.16.16.28.34.38.56.1.2.13.42.13.64v7.58ZM781.38,667.31"/>
      <path class="cls-1" d="M809.09,664.05c-.49,0-.89-.17-1.2-.48-.33-.31-.48-.72-.48-1.2s.15-.89.48-1.2c.31-.33.71-.49,1.2-.49h7.35c.49,0,.89.16,1.21.49.31.31.47.71.47,1.2s-.16.89-.47,1.2c-.33.31-.72.48-1.21.48h-7.35ZM809.09,664.05"/>
      <path class="cls-1" d="M847.21,649.01v9.02h4.51c.62,0,1.21-.11,1.77-.34.54-.25,1.02-.58,1.43-.98.39-.41.72-.89.95-1.44.25-.54.36-1.12.36-1.72s-.11-1.21-.36-1.77c-.23-.54-.56-1.02-.97-1.43-.41-.41-.89-.74-1.43-.97-.56-.24-1.13-.36-1.75-.36h-4.51ZM843.78,669.69v-22.38c0-.23.05-.46.13-.67.08-.21.21-.39.36-.54.16-.16.34-.28.54-.36.21-.1.43-.13.69-.13h6.21c1.1,0,2.12.2,3.08.62.95.43,1.81.99,2.51,1.71.72.72,1.28,1.57,1.7,2.52.43.97.63,1.99.63,3.09,0,.71-.08,1.39-.26,2.07-.18.67-.44,1.31-.79,1.9-.34.6-.79,1.15-1.31,1.67-.52.51-1.11.95-1.8,1.35l5.13,8.23c.2.31.28.62.28.93,0,.26-.05.48-.13.69-.08.2-.2.38-.36.54-.15.15-.34.28-.54.36-.21.08-.45.13-.68.13-.6,0-1.1-.28-1.47-.84l-5.69-9.12h-4.8v8.23c0,.48-.16.89-.51,1.21-.33.34-.74.51-1.2.51s-.89-.16-1.21-.51c-.35-.33-.51-.73-.51-1.21h0ZM843.78,669.69"/>
      <path class="cls-1" d="M874.59,669.69c0,.48-.16.89-.51,1.21-.33.34-.72.51-1.2.51s-.89-.16-1.21-.51c-.33-.33-.51-.73-.51-1.21v-22.38c0-.47.18-.87.51-1.21.33-.33.74-.49,1.21-.49s.87.16,1.2.49c.34.34.51.74.51,1.21v22.38ZM874.59,669.69"/>
      <path class="cls-1" d="M895.11,671.41c-.76,0-1.28-.36-1.56-1.08l-8.68-22.16c-.13-.33-.19-.62-.19-.87,0-.23.05-.46.13-.67.1-.21.21-.39.36-.54.16-.16.34-.28.54-.36.21-.1.44-.13.69-.13.75,0,1.28.33,1.57,1.02l7.13,18.33,7.13-18.33c.26-.69.79-1.02,1.57-1.02.25,0,.46.03.67.13.21.08.39.2.56.36.15.15.26.33.36.54.08.21.13.45.13.67,0,.28-.06.58-.2.87l-8.67,22.16c-.28.72-.8,1.08-1.56,1.08h0ZM895.11,671.41"/>
      <path class="cls-1" d="M919.33,669.69c0,.48-.16.89-.49,1.21-.34.34-.73.51-1.21.51s-.87-.16-1.21-.51c-.33-.33-.49-.73-.49-1.21v-22.38c0-.47.16-.87.49-1.21.34-.33.74-.49,1.21-.49s.87.16,1.21.49c.33.34.49.74.49,1.21v22.38ZM919.33,669.69"/>
      <path class="cls-1" d="M929.43,669.69v-22.38c0-.23.03-.46.13-.67.08-.21.2-.39.36-.54.15-.16.33-.28.54-.36.2-.1.42-.13.67-.13.51,0,.95.2,1.33.62l14.38,18.5v-17.42c0-.47.16-.87.51-1.21.33-.33.74-.49,1.21-.49s.87.16,1.2.49c.35.34.51.74.51,1.21v22.38c0,.26-.05.48-.13.69-.08.2-.21.38-.36.54-.16.15-.34.28-.55.36-.2.08-.43.13-.66.13-.51,0-.95-.19-1.31-.6l-14.42-18.5v17.38c0,.48-.16.89-.49,1.21-.33.34-.74.51-1.21.51s-.87-.16-1.21-.51c-.33-.33-.49-.73-.49-1.21h0ZM929.43,669.69"/>
      <path class="cls-1" d="M981.1,667.31c0,.44-.16.85-.52,1.23-2.39,1.9-5.1,2.87-8.12,2.87-3.58,0-6.61-1.26-9.14-3.77-2.51-2.53-3.77-5.58-3.77-9.14s1.26-6.61,3.77-9.12c2.53-2.52,5.58-3.79,9.14-3.79,3.05,0,5.82,1,8.28,3.02.3.28.45.67.45,1.16,0,.26-.03.47-.11.69-.1.2-.21.38-.38.54-.15.15-.33.28-.54.36-.21.08-.43.13-.67.13-.45,0-.84-.16-1.18-.49-.82-.64-1.7-1.13-2.69-1.47-.99-.35-2.04-.53-3.15-.53-2.62,0-4.87.94-6.73,2.79-1.83,1.85-2.75,4.08-2.75,6.7s.92,4.87,2.75,6.71c1.86,1.85,4.1,2.77,6.73,2.77,1.95,0,3.69-.51,5.23-1.52v-5h-4.46c-.47,0-.89-.16-1.21-.49-.33-.33-.49-.74-.49-1.23,0-.23.05-.46.13-.65.08-.21.21-.39.36-.56.16-.15.34-.28.54-.36.21-.08.43-.13.67-.13h6.18c.23,0,.44.05.65.15.2.08.38.21.54.36.15.16.28.34.36.56.1.2.13.42.13.64v7.58ZM981.1,667.31"/>
      <path class="cls-1" d="M1008.82,664.05c-.49,0-.89-.17-1.2-.48-.33-.31-.48-.72-.48-1.2s.15-.89.48-1.2c.31-.33.71-.49,1.2-.49h7.36c.47,0,.89.16,1.2.49.31.31.47.71.47,1.2s-.16.89-.47,1.2c-.31.31-.72.48-1.2.48h-7.36ZM1008.82,664.05"/>
      <path class="cls-1" d="M1053.97,671.41c-.76,0-1.28-.36-1.57-1.08l-8.66-22.16c-.13-.33-.2-.62-.2-.87,0-.23.05-.46.13-.67.08-.21.21-.39.36-.54.16-.16.34-.28.54-.36.21-.1.44-.13.69-.13.75,0,1.28.33,1.57,1.02l7.13,18.33,7.13-18.33c.25-.69.79-1.02,1.57-1.02.25,0,.46.03.67.13.21.08.39.2.54.36.16.15.28.33.38.54.08.21.11.45.11.67,0,.28-.06.58-.18.87l-8.67,22.16c-.28.72-.81,1.08-1.56,1.08h0ZM1053.97,671.41"/>
      <path class="cls-1" d="M1080.7,659.28l-2.82-7.25-2.8,7.25h5.63ZM1067.65,668.92l8.61-22.16c.34-.79.89-1.16,1.62-1.16s1.31.38,1.64,1.16l8.64,22.24c.08.21.13.44.13.69,0,.48-.16.89-.5,1.21-.34.34-.73.51-1.21.51s-.87-.16-1.2-.51c-.18-.16-.29-.34-.39-.54l-2.98-7.67h-8.25l-3,7.67c-.1.2-.21.38-.39.54-.33.34-.74.51-1.21.51s-.87-.16-1.2-.51c-.33-.33-.49-.73-.49-1.21,0-.24.06-.51.18-.77h0ZM1067.65,668.92"/>
      <path class="cls-1" d="M1115.78,664.05c-.49,0-.88-.17-1.21-.48-.31-.31-.47-.72-.47-1.2s.16-.89.47-1.2c.33-.33.72-.49,1.21-.49h7.35c.5,0,.89.16,1.22.49.31.31.47.71.47,1.2s-.16.89-.47,1.2c-.33.31-.72.48-1.22.48h-7.35ZM1115.78,664.05"/>
      <path class="cls-1" d="M1153.87,649.01v6.54h3.26c.46,0,.89-.1,1.28-.26.39-.18.74-.41,1.03-.71.29-.31.52-.66.69-1.05.18-.39.26-.81.26-1.26s-.08-.85-.26-1.25c-.16-.39-.39-.74-.71-1.05-.29-.29-.64-.54-1.03-.71-.39-.18-.82-.26-1.26-.26h-3.26ZM1153.87,658.97v9.02h4.51c.62,0,1.21-.11,1.75-.34.56-.25,1.03-.58,1.43-.98.41-.39.74-.89.97-1.43.23-.56.36-1.13.36-1.75s-.13-1.2-.36-1.75c-.23-.54-.56-1.02-.97-1.43-.41-.41-.89-.74-1.44-.97-.54-.25-1.12-.36-1.74-.36h-4.51ZM1157.14,645.6c.92,0,1.79.16,2.59.52.82.34,1.53.82,2.13,1.43.61.6,1.08,1.33,1.44,2.13.34.82.52,1.67.52,2.59,0,1.64-.51,3.06-1.52,4.28.65.38,1.23.82,1.74,1.33.49.51.9,1.07,1.24,1.65.33.61.59,1.23.76,1.89.18.67.26,1.34.26,2.05,0,1.08-.21,2.1-.63,3.06-.42.97-.98,1.81-1.7,2.53-.72.72-1.56,1.29-2.51,1.7-.97.43-2,.64-3.08.64h-6.23c-.23,0-.44-.05-.66-.15-.2-.08-.38-.21-.54-.36-.15-.15-.28-.33-.36-.54-.1-.21-.15-.42-.15-.67v-22.38c0-.23.05-.46.15-.67.08-.21.21-.39.36-.54.16-.15.34-.26.54-.36.21-.1.43-.13.66-.13h4.98ZM1157.14,645.6"/>
      <path class="cls-1" d="M1192.07,667.99c.48,0,.87.16,1.21.51.33.33.5.74.5,1.2s-.16.89-.5,1.21c-.34.34-.73.51-1.21.51h-14.92c-.25,0-.48-.05-.68-.13-.21-.08-.39-.21-.54-.36-.16-.16-.28-.34-.36-.54-.1-.21-.13-.42-.13-.69v-22.38c0-.23.03-.46.13-.67.08-.21.2-.39.36-.54.15-.16.33-.28.54-.36.2-.1.43-.13.68-.13h14.92c.48,0,.87.16,1.21.49.33.34.5.74.5,1.21s-.16.87-.5,1.21c-.34.33-.73.49-1.21.49h-13.22v7.77h9.5c.47,0,.87.18,1.21.51.33.33.49.74.49,1.21s-.16.87-.49,1.2c-.34.34-.74.51-1.21.51h-9.5v7.78h13.22ZM1192.07,667.99"/>
      <path class="cls-1" d="M1220.87,649.01h-6.38v20.68c0,.48-.16.89-.49,1.21-.34.34-.74.51-1.21.51s-.89-.16-1.21-.51c-.33-.33-.49-.73-.49-1.21v-20.68h-6.38c-.47,0-.89-.16-1.21-.49-.33-.34-.49-.73-.49-1.21s.16-.87.49-1.21c.33-.33.74-.49,1.21-.49h16.17c.47,0,.87.16,1.2.49.34.34.51.74.51,1.21s-.16.87-.51,1.21c-.33.33-.72.49-1.2.49h0ZM1220.87,649.01"/>
      <path class="cls-1" d="M1241.39,649.01c-1.34,0-2.56.23-3.66.71-1.1.46-2.12,1.15-3.06,2.09-.94.93-1.62,1.95-2.08,3.05-.46,1.1-.69,2.31-.69,3.66,0,2.62.93,4.85,2.77,6.71,1.85,1.85,4.1,2.77,6.72,2.77s4.86-.92,6.71-2.77c1.85-1.86,2.77-4.08,2.77-6.71s-.92-4.85-2.77-6.7c-1.87-1.86-4.1-2.79-6.71-2.79h0ZM1254.3,658.51c0,3.56-1.26,6.6-3.79,9.14-2.52,2.51-5.56,3.77-9.12,3.77s-6.62-1.26-9.13-3.77c-2.53-2.53-3.77-5.58-3.77-9.14s1.25-6.61,3.77-9.12c2.52-2.52,5.58-3.79,9.13-3.79s6.58,1.26,9.12,3.79c1.26,1.26,2.22,2.66,2.84,4.17.64,1.51.95,3.15.95,4.95h0ZM1254.3,658.51"/>
      <path class="cls-1" d="M1263.72,669.69v-22.38c0-.23.05-.46.13-.67.08-.21.2-.39.36-.54.15-.16.33-.28.54-.36.2-.1.42-.13.67-.13.51,0,.95.2,1.33.62l14.38,18.5v-17.42c0-.47.18-.87.51-1.21.33-.33.74-.49,1.21-.49s.87.16,1.2.49c.34.34.51.74.51,1.21v22.38c0,.26-.05.48-.13.69-.08.2-.21.38-.36.54-.16.15-.34.28-.54.36-.21.08-.44.13-.67.13-.51,0-.95-.19-1.31-.6l-14.42-18.5v17.38c0,.48-.16.89-.49,1.21-.33.34-.74.51-1.21.51s-.87-.16-1.21-.51c-.33-.33-.49-.73-.49-1.21h0ZM1263.72,669.69"/>
      <path class="cls-1" d="M1315.41,667.31c0,.44-.18.85-.54,1.23-2.39,1.9-5.1,2.87-8.12,2.87-3.56,0-6.61-1.26-9.14-3.77-2.51-2.53-3.77-5.58-3.77-9.14s1.26-6.61,3.77-9.12c2.54-2.52,5.58-3.79,9.14-3.79,3.06,0,5.82,1,8.28,3.02.3.28.46.67.46,1.16,0,.26-.05.47-.13.69-.1.2-.21.38-.36.54-.16.15-.34.28-.56.36-.21.08-.43.13-.67.13-.45,0-.84-.16-1.18-.49-.8-.64-1.7-1.13-2.69-1.47-.99-.35-2.04-.53-3.15-.53-2.62,0-4.85.94-6.73,2.79-1.83,1.85-2.75,4.08-2.75,6.7s.92,4.87,2.75,6.71c1.86,1.85,4.1,2.77,6.73,2.77,1.95,0,3.69-.51,5.23-1.52v-5h-4.45c-.49,0-.9-.16-1.23-.49-.33-.33-.49-.74-.49-1.23,0-.23.05-.46.13-.65.08-.21.21-.39.36-.56.16-.15.34-.28.54-.36.21-.08.43-.13.69-.13h6.17c.23,0,.44.05.65.15.2.08.38.21.54.36.15.16.28.34.36.56.1.2.15.42.15.64v7.58ZM1315.41,667.31"/>
      <path class="cls-1" d="M1343.11,664.05c-.47,0-.89-.17-1.2-.48-.33-.31-.48-.72-.48-1.2s.15-.89.48-1.2c.31-.33.72-.49,1.2-.49h7.36c.47,0,.89.16,1.2.49.31.31.47.71.47,1.2s-.16.89-.47,1.2c-.31.31-.72.48-1.2.48h-7.36ZM1343.11,664.05"/>
      <path class="cls-1" d="M1395.7,649.01h-6.36v20.68c0,.48-.16.89-.51,1.21-.33.34-.74.51-1.2.51s-.89-.16-1.21-.51c-.33-.33-.51-.73-.51-1.21v-20.68h-6.36c-.48,0-.89-.16-1.21-.49-.33-.34-.51-.73-.51-1.21s.18-.87.51-1.21c.33-.33.73-.49,1.21-.49h16.15c.48,0,.89.16,1.21.49.34.34.51.74.51,1.21s-.16.87-.51,1.21c-.33.33-.73.49-1.21.49h0ZM1395.7,649.01"/>
      <path class="cls-1" d="M1410.05,649.01v9.02h4.51c.63,0,1.21-.11,1.75-.34.56-.25,1.04-.58,1.43-.98.41-.41.74-.89.97-1.44.23-.54.36-1.12.36-1.72s-.13-1.21-.36-1.77c-.23-.54-.56-1.02-.97-1.43-.41-.41-.89-.74-1.44-.97-.54-.24-1.12-.36-1.74-.36h-4.51ZM1406.62,669.69v-22.38c0-.23.05-.46.13-.67.08-.21.21-.39.36-.54.16-.16.34-.28.54-.36.21-.1.42-.13.67-.13h6.23c1.08,0,2.12.2,3.09.62.95.43,1.79.99,2.51,1.71.72.72,1.28,1.57,1.71,2.52.41.97.62,1.99.62,3.09,0,.71-.08,1.39-.26,2.07-.18.67-.44,1.31-.79,1.9-.36.6-.79,1.15-1.31,1.67-.52.51-1.13.95-1.82,1.35l5.15,8.23c.18.31.28.62.28.93,0,.26-.05.48-.13.69-.08.2-.21.38-.36.54-.16.15-.34.28-.54.36-.21.08-.44.13-.67.13-.61,0-1.1-.28-1.48-.84l-5.69-9.12h-4.81v8.23c0,.48-.16.89-.51,1.21-.33.34-.74.51-1.21.51s-.87-.16-1.2-.51c-.34-.33-.51-.73-.51-1.21h0ZM1406.62,669.69"/>
      <path class="cls-1" d="M1446.13,659.28l-2.8-7.25-2.8,7.25h5.61ZM1433.07,668.92l8.62-22.16c.34-.79.89-1.16,1.62-1.16s1.31.38,1.62,1.16l8.66,22.24c.08.21.12.44.12.69,0,.48-.17.89-.5,1.21-.33.34-.73.51-1.21.51s-.87-.16-1.2-.51c-.16-.16-.29-.34-.38-.54l-2.98-7.67h-8.26l-3,7.67c-.08.2-.21.38-.39.54-.33.34-.72.51-1.2.51s-.89-.16-1.21-.51c-.33-.33-.49-.73-.49-1.21,0-.24.06-.51.18-.77h0ZM1433.07,668.92"/>
      <path class="cls-1" d="M1463.01,669.69v-22.38c0-.23.03-.46.13-.67.08-.21.2-.39.36-.54.15-.16.33-.28.54-.36.2-.1.43-.13.68-.13.51,0,.95.2,1.33.62l14.38,18.5v-17.42c0-.47.16-.87.51-1.21.33-.33.74-.49,1.21-.49s.87.16,1.2.49c.34.34.51.74.51,1.21v22.38c0,.26-.05.48-.13.69-.08.2-.21.38-.36.54-.16.15-.34.28-.56.36-.2.08-.42.13-.65.13-.51,0-.95-.19-1.31-.6l-14.41-18.5v17.38c0,.48-.16.89-.49,1.21-.33.34-.74.51-1.21.51s-.87-.16-1.21-.51c-.33-.33-.5-.73-.5-1.21h0ZM1463.01,669.69"/>
      <path class="cls-1" d="M1499.98,658.83c-1.56-.46-2.74-1.05-3.53-1.78-.8-.72-1.36-1.48-1.67-2.25-.31-.77-.47-1.59-.47-2.44,0-1.05.19-2.02.59-2.87.41-.85.99-1.61,1.77-2.28h-.02c1.23-1.08,2.69-1.61,4.35-1.61.54,0,1.08.07,1.62.2.52.13,1.05.34,1.56.6.49.28.97.63,1.39,1.04.44.41.82.88,1.16,1.42.17.28.25.59.25.92,0,.26-.03.47-.13.69-.08.2-.2.38-.36.54-.15.15-.33.28-.54.36-.21.08-.44.13-.67.13-.21,0-.41-.03-.58-.1-.16-.07-.31-.16-.46-.28-.13-.11-.26-.24-.38-.41-.13-.15-.26-.33-.39-.54-.26-.38-.6-.65-1.07-.85-.44-.18-.92-.28-1.44-.28-.41,0-.8.08-1.2.25-.38.18-.72.41-1.02.69-.31.29-.56.64-.74,1.03-.2.39-.28.84-.28,1.3,0,.82.21,1.47.67,1.95.46.5,1.25.89,2.36,1.22,1.9.54,3.38,1.28,4.46,2.23,1.08.93,1.81,1.87,2.2,2.79.37.9.57,1.87.57,2.88,0,2.51-.93,4.56-2.79,6.13h.02c-1.49,1.26-3.2,1.9-5.1,1.9-.64,0-1.26-.08-1.9-.24-.64-.15-1.25-.38-1.83-.67-.58-.31-1.13-.69-1.64-1.13-.51-.46-.95-.97-1.33-1.54-.23-.28-.34-.62-.34-1.03,0-.23.05-.46.13-.65.08-.21.21-.39.36-.56.16-.15.34-.28.54-.36.21-.08.42-.13.69-.13.62,0,1.1.26,1.43.78.46.71,1.02,1.23,1.69,1.59.69.34,1.41.52,2.2.52.63,0,1.2-.11,1.74-.36.54-.24,1.02-.58,1.41-.97.41-.41.74-.9.97-1.46.23-.54.36-1.13.36-1.75s-.12-1.15-.34-1.67c-.21-.52-.64-1.04-1.26-1.56-.64-.51-1.62-.97-3-1.38h0ZM1499.98,658.83"/>
      <path class="cls-1" d="M1520.48,649.01v10.27h3.26c.71,0,1.36-.13,1.99-.41.6-.26,1.15-.62,1.62-1.1.46-.46.84-1,1.11-1.62.28-.63.41-1.3.41-2s-.13-1.39-.41-2.02c-.28-.63-.65-1.17-1.11-1.62-.48-.46-1.02-.84-1.64-1.1-.62-.26-1.28-.39-1.97-.39h-3.26ZM1517.07,669.69v-22.38c0-.23.03-.46.13-.67.08-.21.2-.39.36-.54.15-.16.33-.28.54-.36.19-.1.42-.13.67-.13h4.97c.77,0,1.53.1,2.25.29.74.21,1.41.51,2.05.87.62.38,1.21.84,1.74,1.36.52.51.97,1.1,1.34,1.72.38.64.65,1.33.87,2.05.21.72.31,1.48.31,2.25,0,2.35-.84,4.36-2.52,6.05-1.67,1.67-3.67,2.49-6.04,2.49h-3.26v7c0,.48-.16.89-.49,1.21-.34.34-.74.51-1.21.51s-.87-.16-1.21-.51c-.33-.33-.5-.73-.5-1.21h0ZM1517.07,669.69"/>
      <path class="cls-1" d="M1554.38,649.01c-1.33,0-2.56.23-3.66.71-1.1.46-2.12,1.15-3.05,2.09-.93.93-1.64,1.95-2.1,3.05-.46,1.1-.69,2.31-.69,3.66,0,2.62.94,4.85,2.79,6.71,1.84,1.85,4.08,2.77,6.71,2.77s4.85-.92,6.71-2.77c1.85-1.86,2.77-4.08,2.77-6.71s-.92-4.85-2.77-6.7c-1.86-1.86-4.1-2.79-6.71-2.79h0ZM1567.28,658.51c0,3.56-1.26,6.6-3.79,9.14-2.53,2.51-5.56,3.77-9.12,3.77s-6.61-1.26-9.14-3.77c-2.51-2.53-3.77-5.58-3.77-9.14s1.26-6.61,3.77-9.12c2.53-2.52,5.58-3.79,9.14-3.79s6.59,1.26,9.12,3.79c1.26,1.26,2.21,2.66,2.84,4.17.64,1.51.95,3.15.95,4.95h0ZM1567.28,658.51"/>
      <path class="cls-1" d="M1580.09,649.01v9.02h4.51c.63,0,1.21-.11,1.75-.34.56-.25,1.03-.58,1.43-.98.41-.41.74-.89.97-1.44.23-.54.36-1.12.36-1.72s-.13-1.21-.36-1.77c-.23-.54-.56-1.02-.97-1.43-.41-.41-.89-.74-1.44-.97-.54-.24-1.11-.36-1.74-.36h-4.51ZM1576.67,669.69v-22.38c0-.23.05-.46.13-.67.08-.21.21-.39.36-.54.16-.16.34-.28.54-.36.21-.1.42-.13.67-.13h6.23c1.08,0,2.12.2,3.09.62.95.43,1.79.99,2.51,1.71.72.72,1.28,1.57,1.71,2.52.41.97.62,1.99.62,3.09,0,.71-.08,1.39-.26,2.07-.18.67-.44,1.31-.79,1.9-.36.6-.79,1.15-1.31,1.67-.52.51-1.13.95-1.82,1.35l5.15,8.23c.18.31.28.62.28.93,0,.26-.05.48-.13.69-.08.2-.21.38-.36.54-.16.15-.34.28-.56.36-.2.08-.43.13-.65.13-.61,0-1.1-.28-1.48-.84l-5.69-9.12h-4.81v8.23c0,.48-.16.89-.51,1.21-.33.34-.74.51-1.21.51s-.87-.16-1.2-.51c-.34-.33-.51-.73-.51-1.21h0ZM1576.67,669.69"/>
      <path class="cls-1" d="M1619.52,649.01h-6.38v20.68c0,.48-.16.89-.49,1.21-.34.34-.74.51-1.21.51s-.89-.16-1.21-.51c-.33-.33-.49-.73-.49-1.21v-20.68h-6.38c-.47,0-.87-.16-1.21-.49-.33-.34-.49-.73-.49-1.21s.16-.87.49-1.21c.34-.33.74-.49,1.21-.49h16.17c.47,0,.87.16,1.21.49.33.34.49.74.49,1.21s-.16.87-.49,1.21c-.34.33-.74.49-1.21.49h0ZM1619.52,649.01"/>
    </g>
    <g>
      <path class="cls-2" d="M640.74,528.56c-.18,0-.36,0-.54.03-.18.02-.34.07-.52.1-.16.05-.34.12-.51.18-.16.08-.31.15-.47.25-.15.1-.29.2-.43.31-.15.11-.28.23-.39.36-.13.13-.25.26-.34.41-.1.15-.2.29-.28.46l-32.57,61.83c-.05.11-.11.23-.16.34-.05.11-.08.24-.13.36-.03.13-.07.26-.08.37-.03.13-.05.26-.05.39-.02.12-.02.25-.02.38s0,.26.02.39c.02.11.03.24.05.38.03.13.07.24.1.37.05.12.08.25.13.36.05.12.11.23.18.34.05.12.11.23.2.33.07.11.15.21.23.31.08.1.16.2.26.28.08.1.18.18.28.26.1.08.21.16.31.23.11.07.23.13.34.2.58.3,1.18.44,1.82.44h29.98c.18,0,.36,0,.54-.03.16-.02.34-.07.52-.1.16-.05.34-.12.51-.18.16-.08.31-.17.47-.26.15-.08.3-.2.43-.31.15-.1.28-.23.39-.36.13-.13.24-.26.34-.41.1-.15.2-.31.28-.46l18.02-34.93h106.35l18.01,34.93c.08.15.18.31.28.46.11.15.23.28.34.41.11.13.24.26.39.36.13.11.28.23.45.31.15.1.31.18.47.26.16.06.33.13.51.18.16.03.34.08.52.1.18.03.36.03.54.03h29.96c.13,0,.26,0,.38-.02.13,0,.26-.03.39-.05.13-.03.25-.06.38-.1.12-.03.25-.08.36-.13.12-.05.23-.1.34-.16.12-.06.23-.13.33-.2.12-.06.21-.15.31-.23.1-.08.19-.16.29-.26.08-.08.16-.18.24-.28.08-.1.16-.21.23-.31.08-.12.15-.21.21-.33.05-.12.11-.23.16-.36.05-.12.08-.23.11-.36.05-.12.08-.25.1-.38.03-.11.05-.25.06-.38,0-.13.02-.26.02-.38,0-.65-.16-1.28-.46-1.85l-87.56-165.18c-.08-.16-.16-.31-.28-.46-.1-.15-.21-.28-.33-.41-.13-.13-.26-.25-.39-.36-.15-.11-.29-.21-.44-.31-.15-.08-.31-.16-.48-.23-.16-.08-.33-.13-.49-.18-.18-.05-.34-.08-.52-.11-.18-.02-.36-.03-.54-.03h-34.21c-.18,0-.36.02-.52.03-.18.03-.36.06-.52.11-.18.05-.34.1-.51.18-.16.07-.31.15-.48.23-.15.1-.29.2-.42.31-.15.11-.28.23-.39.36-.11.13-.23.26-.34.41-.1.15-.2.29-.28.44l-43.66,82.13c-.06.11-.11.23-.16.34-.05.11-.1.24-.13.36-.03.13-.07.26-.08.37-.03.13-.05.26-.06.39-.02.12-.02.25-.02.38s0,.26.02.39c.02.11.03.24.06.38.02.11.05.24.1.37.03.12.07.25.13.36.05.12.1.23.16.34.05.12.12.23.2.33.07.11.15.21.23.31.08.1.16.2.26.28.08.1.18.18.28.26.1.08.21.16.31.23.11.08.21.15.33.2.58.31,1.2.46,1.85.46h29.73c.18,0,.36,0,.52-.03.18-.02.36-.07.52-.1.17-.05.34-.11.51-.18.16-.06.31-.15.46-.24.16-.08.31-.2.44-.3.13-.11.26-.24.39-.36.12-.13.23-.28.34-.41.1-.15.2-.29.28-.46l27.66-51.97,35.72,67.65-107.91-.21ZM643.1,536.43l-28.42,53.96h21.06l18.01-34.93c.08-.15.18-.31.28-.46.12-.13.21-.28.34-.41.12-.13.25-.24.39-.36.13-.11.28-.23.44-.31.15-.1.31-.18.48-.24.16-.08.33-.13.51-.18.16-.05.34-.1.52-.12.18-.03.34-.03.52-.03h111.15c.18,0,.36,0,.54.03.18.02.34.07.52.12.16.05.34.1.51.18.16.06.31.15.48.24.15.08.29.2.44.31.13.12.26.23.38.36.13.13.25.28.34.41.1.15.2.31.28.46l18.02,34.93h21.02l-83.37-157.32h-29.49l-39.47,74.25h20.83l30.04-56.45c.05-.11.12-.21.2-.33.07-.11.15-.21.23-.31.08-.1.16-.2.26-.28.08-.1.18-.18.28-.26.1-.08.2-.16.31-.23.1-.08.21-.15.33-.2.11-.06.23-.13.34-.18.11-.05.25-.08.36-.13.13-.03.25-.06.38-.08.13-.03.26-.05.38-.07.13-.02.26-.02.39-.02s.26,0,.38.02c.13.02.26.03.39.07.11.02.25.05.38.08.11.05.24.08.36.13.11.05.23.1.34.16.34.18.65.43.93.71.28.28.51.59.69.94l42.24,80c.07.11.11.23.16.34.05.13.1.24.13.36.03.13.07.26.1.38.02.13.03.26.05.39.01.12.01.25.01.38s-.01.26-.01.39c-.02.11-.03.25-.07.38-.02.13-.05.24-.1.38-.03.11-.08.24-.13.36-.05.11-.1.23-.16.34-.06.11-.13.23-.2.33-.08.11-.15.21-.23.31-.08.1-.18.2-.26.28-.1.1-.2.18-.29.26-.1.08-.2.16-.31.23-.1.06-.21.13-.33.19-.57.31-1.2.46-1.83.46l-112.07-.23ZM643.1,536.43"/>
      <path class="cls-2" d="M841.07,425.19c-.13,0-.26,0-.39.02-.11.02-.24.03-.38.07-.13.01-.24.05-.38.08-.11.05-.24.08-.36.13-.11.05-.23.12-.34.16-.11.07-.23.13-.33.2-.11.08-.21.16-.31.25-.1.06-.2.16-.29.24-.08.1-.16.2-.25.3-.08.1-.16.2-.23.31-.08.1-.15.21-.21.33-.05.11-.12.23-.16.34-.05.11-.08.25-.13.36-.03.13-.06.25-.08.38-.03.13-.05.26-.07.38,0,.13-.02.26-.02.39v165.19c0,.11.02.25.02.38.02.13.03.26.07.38.02.13.05.26.08.38.05.13.08.24.13.36.05.13.11.24.16.36.06.11.13.21.21.33.06.1.15.21.23.31.08.1.16.2.25.28.1.1.2.18.29.26.1.08.2.16.31.23.1.07.21.13.33.2.12.07.23.12.34.16.12.05.25.1.36.13.13.03.25.06.38.1.13.02.26.05.38.05.13.02.26.02.39.02h27.37c.13,0,.26,0,.39-.02.11,0,.25-.03.38-.05.13-.03.25-.06.38-.1.11-.03.24-.08.36-.13.11-.05.23-.1.34-.16.11-.06.23-.13.33-.2.11-.06.21-.15.31-.23.1-.08.2-.16.29-.26.08-.08.18-.18.26-.28.07-.1.15-.21.23-.31.06-.12.13-.21.2-.33.05-.12.11-.23.16-.36.05-.12.08-.23.13-.36.03-.12.06-.25.08-.38.03-.11.05-.25.07-.38.02-.13.02-.26.02-.38v-165.19c0-.13,0-.26-.02-.39-.02-.12-.03-.25-.07-.38-.02-.13-.05-.25-.08-.38-.05-.11-.08-.25-.13-.36-.05-.11-.12-.23-.16-.34-.07-.11-.13-.23-.2-.33-.08-.11-.16-.21-.23-.31-.08-.1-.18-.2-.26-.3-.1-.08-.19-.18-.29-.24-.1-.08-.2-.16-.31-.25-.1-.06-.21-.13-.33-.2-.12-.05-.23-.11-.34-.16-.12-.05-.25-.08-.36-.13-.13-.03-.25-.07-.38-.08-.13-.03-.26-.05-.38-.07-.13-.02-.26-.02-.39-.02h-27.37ZM1032.62,429.13c0-.13-.02-.26-.03-.39,0-.12-.03-.25-.05-.38-.03-.13-.06-.25-.1-.38-.03-.11-.08-.25-.13-.36-.05-.11-.1-.23-.16-.34-.05-.11-.13-.23-.2-.33-.07-.11-.15-.21-.23-.31-.08-.1-.16-.2-.26-.3-.08-.08-.18-.18-.28-.24-.1-.08-.21-.16-.31-.25-.11-.06-.21-.13-.33-.2-.12-.05-.23-.11-.36-.16-.11-.05-.23-.08-.36-.13-.11-.03-.25-.07-.38-.08-.11-.03-.25-.05-.38-.07-.13-.02-.24-.02-.38-.02h-27.39c-.11,0-.25,0-.38.02-.13.02-.26.03-.38.07-.13.01-.26.05-.38.08-.13.05-.24.08-.36.13-.13.05-.24.12-.36.16-.1.07-.21.13-.33.2-.1.08-.21.16-.31.25-.1.06-.2.16-.28.24-.1.1-.18.2-.26.3-.08.1-.16.2-.23.31-.07.1-.13.21-.2.33-.07.11-.12.23-.16.34-.05.11-.1.25-.13.36-.03.13-.06.25-.1.38-.02.13-.03.26-.05.38-.02.13-.02.26-.02.39v125.5l-104.59-111.45c-.08-.08-.18-.18-.26-.26-.1-.08-.21-.16-.31-.25-.1-.07-.21-.13-.33-.2-.11-.06-.21-.13-.34-.18-.11-.05-.23-.1-.36-.15-.11-.03-.24-.07-.36-.1-.13-.03-.26-.05-.38-.07-.13-.02-.26-.03-.39-.03h-.38c-.13.02-.26.03-.39.05-.11.02-.24.05-.38.08-.11.03-.24.07-.36.12-.12.05-.25.1-.36.16-.12.05-.23.11-.33.18-.11.06-.21.15-.33.21-.1.08-.19.16-.29.26-.18.18-.36.38-.52.61-.15.21-.28.44-.38.69-.11.24-.2.51-.24.77-.07.26-.08.52-.08.81v36.09c0,.25.02.5.07.74.05.25.11.47.2.71.1.23.21.44.34.65.13.21.28.41.44.59l104.54,112.32c.18.2.38.38.61.52.21.16.44.29.71.41.25.1.49.18.76.23.26.07.54.08.8.08h34.22c.13,0,.25,0,.38-.02.13,0,.26-.03.38-.05.13-.03.26-.06.38-.1.13-.03.25-.08.36-.13.13-.05.24-.1.36-.16.11-.06.21-.13.33-.2.1-.06.21-.15.31-.23.1-.08.2-.16.28-.26.1-.08.18-.18.26-.28.08-.1.16-.21.23-.31.06-.12.15-.21.2-.33.06-.12.11-.23.16-.36.05-.12.1-.23.13-.36.03-.12.07-.25.1-.38.02-.11.05-.25.05-.38.02-.13.03-.26.03-.38v-165.19ZM845.01,433.07v157.32h19.5v-157.32h-19.5ZM1024.75,433.07h-19.52v131.52c0,.11,0,.25-.01.38-.02.13-.03.26-.05.38-.03.13-.07.26-.1.38-.03.13-.08.24-.13.36-.05.13-.1.24-.16.36-.07.11-.13.21-.2.33-.06.1-.15.21-.23.31-.08.1-.16.2-.26.28-.08.1-.18.18-.28.26-.1.08-.21.16-.31.23-.11.07-.23.13-.33.2-.11.07-.24.12-.36.16-.11.05-.23.1-.36.13-.11.03-.24.06-.37.1-.12.02-.25.03-.38.05-.13.02-.26.02-.39.02-.26,0-.52-.02-.79-.08-.26-.05-.52-.13-.77-.23-.25-.11-.47-.24-.69-.39-.23-.16-.43-.33-.61-.52l-104.59-111.45v24.61l102.33,109.94h28.57v-157.32ZM1024.75,433.07"/>
      <path class="cls-1" d="M1237.51,429.13h-185.23v24.78h185.23v-24.78ZM1158.46,476.33h-27.37v117.99h27.37v-117.99ZM1158.46,476.33"/>
      <path class="cls-1" d="M1261.11,429.13v118.93h27.39v-27.37h117.27v-24.53h-117.27v-42.49h117.04v-24.53h-144.43ZM1261.11,569.54v24.78h144.43v-24.78h-144.43ZM1261.11,569.54"/>
      <path class="cls-1" d="M1456.73,594.32v-50.03l155.29-115.15h-39.41l-115.88,85.65v-85.65h-27.37v165.19h27.37ZM1621.22,594.32l-82.13-89.92-20.76,15.58,67.5,74.34h35.39ZM1621.22,594.32"/>
    </g>
  </g>
  <g>
    <path class="cls-1" d="M460.18,648.56h28.39c4.4,0,5.86,5.92,1.96,7.95-9.19,4.77-19.02,8.49-29.31,10.99-2.66.65-5.24-1.35-5.24-4.09v-10.64c0-2.32,1.88-4.21,4.21-4.21Z"/>
    <path class="cls-1" d="M307.3,563.44l35.25.05v55.73c0,5.79,4.71,10.5,10.5,10.5h35.23v28.04c-41.96-14.86-72.69-50.63-80.99-94.32M304.8,557.14c-2.62,0-4.59,2.38-4.15,4.96,8.21,48.28,42.78,87.57,88.38,102.57.44.15.89.21,1.33.21,2.24,0,4.22-1.81,4.22-4.22v-33.04c0-2.32-1.88-4.21-4.21-4.21h-37.33c-2.32,0-4.21-1.88-4.21-4.21v-57.82c0-2.32-1.88-4.2-4.2-4.21l-39.84-.05h0Z"/>
    <path class="cls-1" d="M535.15,618.7c-4.19,5.58-8.82,10.81-13.84,15.64-.79.76-1.85,1.17-2.94,1.17h-71.23c-2.32,0-4.21,1.88-4.21,4.21v27c0,2.19-1.68,4.05-3.86,4.2-2.96.2-5.96.31-8.97.31-6.42,0-12.73-.46-18.91-1.35-2.05-.3-3.56-2.09-3.56-4.17v-51.13c0-2.32-1.88-4.21-4.21-4.21h-37.33c-2.32,0-4.21-1.88-4.21-4.21v-44.74c0-2.32,1.89-4.21,4.21-4.21l72.96.1c2.33,0,4.22,1.9,4.2,4.24l-.35,46.93c-.02,2.35,1.89,4.26,4.24,4.24l84.56-.72c3.46-.03,5.51,3.93,3.44,6.69Z"/>
    <path class="cls-1" d="M355.58,460.96h-21.62c-3.62,0-5.54-4.25-3.17-6.99,6.61-7.63,14.09-14.49,22.27-20.43,2.8-2.03,6.72-.09,6.72,3.37v19.84c0,2.32-1.88,4.21-4.21,4.21Z"/>
    <path class="cls-1" d="M398.69,417.87v78.3c0,2.32-1.88,4.21-4.21,4.21h-41.44c-2.32,0-4.21,1.88-4.21,4.21v35.36c0,2.32-1.89,4.21-4.21,4.21l-41.66-.05c-2.29,0-4.2-1.84-4.2-4.14,0-.01,0-.03,0-.04,0-23.13,5.97-44.87,16.49-63.76.74-1.33,2.16-2.14,3.68-2.14h49.68c2.32,0,4.21-1.88,4.21-4.21v-45.42c0-1.64.94-3.15,2.42-3.83,5.79-2.67,11.8-4.92,18.01-6.73,2.71-.79,5.43,1.22,5.43,4.04Z"/>
    <path class="cls-1" d="M430.1,414.89c4.09,0,8.18.2,12.17.59v75.6c0,5.79,4.71,10.5,10.5,10.5h41.85v56.24c0,5.79,4.71,10.5,10.5,10.5h46.75c-1.93,8.32-4.73,16.45-8.36,24.24l-81.14.69.33-44.68c.02-2.82-1.06-5.47-3.04-7.47-1.98-2-4.63-3.11-7.44-3.11l-84.02-.12v-18.17h39.35c5.79,0,10.5-4.71,10.5-10.5v-93.75c3.98-.38,8.03-.58,12.06-.58M430.1,408.59c-4.97,0-9.85.28-14.67.82-2.11.24-3.69,2.06-3.69,4.19v95.62c0,2.32-1.88,4.21-4.21,4.21h-41.44c-2.32,0-4.21,1.88-4.21,4.21v22.35c0,2.32,1.88,4.2,4.2,4.21l86.11.12c2.33,0,4.22,1.9,4.2,4.24l-.35,46.8c-.02,2.34,1.87,4.24,4.2,4.24.01,0,.02,0,.04,0l84.57-.72c1.6-.01,3.07-.92,3.77-2.37,4.42-9.24,7.79-19.06,9.95-29.33.55-2.63-1.43-5.12-4.12-5.12h-49.34c-2.32,0-4.21-1.88-4.21-4.21v-58.34c0-2.32-1.88-4.21-4.21-4.21h-43.94c-2.32,0-4.21-1.88-4.21-4.21v-77.47c0-2.12-1.57-3.94-3.68-4.18-4.85-.55-9.79-.83-14.79-.83h0Z"/>
    <path class="cls-1" d="M561.42,539.91c0,1.7-.03,3.4-.1,5.09-.09,2.23-1.97,3.98-4.21,3.98h-38.94c-2.32,0-4.21-1.88-4.21-4.21v-58.34c0-2.32-1.88-4.21-4.21-4.21h-43.94c-2.32,0-4.21-1.88-4.21-4.21v-60.11c0-2.82,2.72-4.83,5.42-4.04,54.55,15.94,94.38,66.34,94.38,126.03Z"/>
  </g>
</svg>