<?xml version="1.0" encoding="UTF-8"?>
<svg id="Layer_1" data-name="Layer 1" xmlns="http://www.w3.org/2000/svg" viewBox="0 0 1920 1080">
  <defs>
    <style>
      .cls-1 {
        fill: #58595b;
      }

      .cls-1, .cls-2 {
        stroke-width: 0px;
      }

      .cls-2 {
        fill: #27bdbe;
      }
    </style>
  </defs>
  <g>
    <path class="cls-2" d="M274.64,384.6h-18.89s-97.59,192.02-97.59,192.02h31.71s24.75-48.81,24.75-48.81h101.39s24.95,48.81,24.95,48.81h32.15s-98.48-192.02-98.48-192.02ZM227.65,502.41l37.77-73.52,37.33,73.52h-75.1Z"/>
    <path class="cls-2" d="M624.79,398.63c-11-9.38-26.41-14.03-46.19-14.03h-139.65s0,28.11,0,28.11h140.98c9.75,0,17.23,2.22,22.49,6.71,5.26,4.53,7.89,10.88,7.89,19.13,0,8.41-2.75,14.84-8.21,19.33-5.46,4.49-13.31,6.75-23.5,6.75h-109.52s0-.08,0-.08h-30.13s0,112.07,0,112.07h30.13s0-83.88,0-83.88h112.67c17.84,0,32.23-5.1,43.15-15.29,10.96-10.19,16.42-23.34,16.42-39.35,0-16.95-5.5-30.09-16.54-39.47Z"/>
    <path class="cls-2" d="M849.98,492.3c14.07-2.26,25.52-8.37,34.3-18.32,8.78-9.99,13.14-21.8,13.14-35.43,0-16.78-5.54-29.93-16.62-39.35-11.12-9.46-26.49-14.15-46.1-14.15h-132.21s0,191.58,0,191.58h30.13s0-83.88,0-83.88h83.64s54.4,83.88,54.4,83.88h32.64s-53.3-84.32-53.3-84.32ZM732.61,464.64v-51.93s102.08,0,102.08,0c10.35,0,18.24,2.18,23.7,6.63,5.5,4.41,8.21,10.8,8.21,19.21,0,8.41-2.71,14.84-8.21,19.33-5.46,4.49-13.35,6.75-23.7,6.75h-102.08Z"/>
    <path class="cls-2" d="M970.45,384.11v192.51s30.62,0,30.62,0v-192.51s-30.62,0-30.62,0Z"/>
    <path class="cls-2" d="M1176.87,453.15l80.48-68.11h-39.55s-101.63,85.21-101.63,85.21v-85.21s-30.13,0-30.13,0v191.58s30.13,0,30.13,0v-72.43s39.55-33.49,39.55-33.49l80.04,105.92h33.73s-92.61-123.47-92.61-123.47Z"/>
    <path class="cls-2" d="M1486.95,407.98c-21.96-19.05-50.23-28.55-84.85-28.55-34.34,0-62.48,9.54-84.44,28.67-21.96,19.09-32.92,43.35-32.92,72.72,0,29.24,11,53.51,33.04,72.84,22.04,19.37,50.15,29.04,84.32,29.04,34.46,0,62.73-9.63,84.77-28.92,22.04-19.25,33.04-43.56,33.04-72.96,0-29.52-11-53.79-32.96-72.84ZM1464.82,533.75c-16.18,13.87-37.09,20.83-62.73,20.83-25.48,0-46.31-6.96-62.4-20.83-16.14-13.83-24.18-31.5-24.18-52.94,0-21.43,8.05-39.07,24.18-52.94,16.1-13.87,36.92-20.79,62.4-20.79,25.48,0,46.35,6.96,62.61,20.91,16.26,13.91,24.39,31.55,24.39,52.82,0,21.43-8.09,39.11-24.27,52.94Z"/>
    <path class="cls-2" d="M1738.46,473.41c-15.61-10.35-38.7-15.53-69.28-15.53-22.04,0-37.49-1.78-46.43-5.38-8.9-3.6-13.39-9.67-13.39-18.24,0-8.25,4.45-14.92,13.27-20.02,8.86-5.1,20.54-7.64,35.1-7.64,12.58,0,25.76,2.22,39.55,6.63,13.79,4.45,26.69,10.72,38.66,18.81l15.09-24.95c-14.4-9.14-29.36-16.06-44.85-20.71-15.53-4.65-31.55-6.96-48.01-6.96-24.14,0-43.35,5.01-57.67,15.04-14.32,10.07-21.47,23.34-21.47,39.8,0,17.71,6.51,30.37,19.53,38.02,13.06,7.64,37.05,11.69,71.99,12.13,20.67.61,35.79,3.56,45.42,8.9,9.58,5.3,14.36,13.43,14.36,24.39,0,10.92-5.22,19.9-15.73,26.85-10.47,7-24.27,10.47-41.37,10.47-14.24,0-29.16-2.47-44.73-7.44-15.61-4.93-29.97-11.81-43.19-20.67l-14.6,25.2c15.29,9.71,32.11,17.27,50.47,22.57,18.36,5.34,36.84,8.01,55.45,8.01,25.16,0,45.66-6.03,61.47-18,15.81-12.01,23.74-27.06,23.74-45.21,0-20.38-7.81-35.75-23.38-46.06Z"/>
  </g>
  <g>
    <path class="cls-1" d="M593.13,640.72l-29.16,35.55-29.28-35.55h-11.69s0,59.85,0,59.85h11.69s0-40.24,0-40.24l27.06,33.04h2.83s26.77-33.97,26.77-33.97v41.17s13.55,0,13.55,0v-59.85s-11.77,0-11.77,0Z"/>
    <path class="cls-1" d="M698.52,689.37v-14.72s28.84,0,28.84,0v-10.27s-28.84,0-28.84,0v-13.06s49.5,0,49.5,0v-10.6s-64.22,0-64.22,0v59.85s64.95,0,64.95,0v-11.2s-50.23,0-50.23,0Z"/>
    <path class="cls-1" d="M889,648.45c-6.19-5.14-15.08-7.72-26.61-7.72h-40.32s0,59.85,0,59.85h36.64c13.27,0,23.17-2.51,29.77-7.52,6.55-5.01,9.83-12.58,9.83-22.61,0-9.54-3.07-16.86-9.3-22ZM877.15,684.89c-4.08,2.99-11.28,4.49-21.56,4.49h-18.81s0-37.93,0-37.93h25.72c7.04,0,12.29,1.5,15.69,4.53,3.4,3.03,5.1,7.6,5.1,13.79,0,7.08-2.02,12.13-6.15,15.13Z"/>
    <path class="cls-1" d="M972.52,640.72v59.85s14.52,0,14.52,0v-59.85s-14.52,0-14.52,0Z"/>
    <path class="cls-1" d="M1133.11,660.62v-5.78c0-5.46-1.05-9.14-3.19-11.12-2.14-1.98-6.31-2.99-12.5-2.99h-37.37c-6.11,0-10.19,1.01-12.33,2.99-2.14,1.98-3.24,5.66-3.24,11.12v31.59c0,5.46,1.09,9.22,3.28,11.2,2.14,1.98,6.27,2.95,12.29,2.95h37.37c6.15,0,10.27-1.01,12.46-2.99,2.18-2.02,3.24-5.74,3.24-11.16v-7.08s-14.72-2.95-14.72-2.95v12.7s-39.31,0-39.31,0v-37.37s39.31,0,39.31,0v11.04s14.72-2.14,14.72-2.14Z"/>
    <path class="cls-1" d="M1247.28,640.72h-14.03s-35.51,59.85-35.51,59.85h14.56s7.56-13.14,7.56-13.14h39.59s7.52,13.14,7.52,13.14h16.38s-36.07-59.85-36.07-59.85ZM1226.05,676.51l13.51-24.95,13.95,24.95h-27.46Z"/>
    <path class="cls-1" d="M1365.25,689.37v-48.65s-14.72,0-14.72,0v59.85s61.63,0,61.63,0v-11.2s-46.91,0-46.91,0Z"/>
  </g>
</svg>