<svg version="1.1" id="Layer_1" xmlns="http://www.w3.org/2000/svg" xmlns:xlink="http://www.w3.org/1999/xlink" x="0px" y="0px"
	 width="100%" viewBox="0 0 2977 1675" enable-background="new 0 0 2977 1675" xml:space="preserve">
<path fill="#000000" opacity="1.000000" stroke="none" 
	d="
M1948.000000,1678.000000 
	C1298.666626,1678.000000 650.333313,1678.000000 2.000000,1678.000000 
	C2.000000,1119.333374 2.000000,560.666687 2.000000,2.000000 
	C994.666687,2.000000 1987.333374,2.000000 2980.000000,2.000000 
	C2980.000000,560.666687 2980.000000,1119.333374 2980.000000,1678.000000 
	C2636.333252,1678.000000 2292.666748,1678.000000 1948.000000,1678.000000 
M1100.097534,685.802673 
	C1100.064941,730.654541 1100.045532,775.506409 1099.996216,820.358276 
	C1099.942871,868.864014 1099.861694,917.369751 1098.767700,965.059082 
	C1096.139893,961.616699 1093.416382,958.242615 1090.898071,954.721924 
	C1028.095215,866.920654 965.317383,779.101501 902.526855,691.291321 
	C887.022766,669.609375 871.460449,647.968933 855.994385,626.259888 
	C852.571716,621.455688 848.929993,617.894470 842.262695,617.944946 
	C811.940186,618.174377 781.614807,618.014771 751.290771,618.108032 
	C749.389526,618.113892 747.491211,619.081970 744.667297,619.855591 
	C746.473083,620.947510 747.009644,621.533997 747.586731,621.577026 
	C750.570251,621.799561 753.563965,621.992615 756.554382,621.996887 
	C774.629456,622.023071 790.865234,627.524841 804.014343,639.905823 
	C810.475281,645.989319 815.607300,653.588867 820.826843,660.870667 
	C905.263367,778.669800 989.593750,896.544983 1074.023560,1014.348877 
	C1083.131104,1027.056519 1092.706787,1039.428589 1102.401733,1052.177979 
	C1102.401733,1052.177979 1102.980713,1052.180054 1102.980713,1052.180054 
	C1102.980713,1052.180054 1103.425171,1051.805420 1103.552734,1049.959351 
	C1103.526489,1022.028503 1103.500366,994.097595 1103.699707,964.276245 
	C1103.797974,960.619751 1103.981689,956.963196 1103.982300,953.306702 
	C1103.998413,867.489014 1103.999268,781.671387 1103.980225,695.853699 
	C1103.979248,691.865112 1103.767212,687.876587 1104.090942,682.469055 
	C1104.925659,679.595581 1105.603882,676.665466 1106.619629,673.857483 
	C1116.472656,646.617737 1134.851196,628.515503 1163.278687,621.304443 
	C1166.681152,620.441345 1170.169434,619.916931 1173.617920,619.235474 
	C1173.580078,619.005005 1173.542236,618.774536 1173.504517,618.544067 
	C1125.842041,618.544067 1078.179688,618.544067 1030.517212,618.544067 
	C1050.372681,621.739685 1067.163940,630.230225 1080.746216,645.060974 
	C1090.937500,656.189209 1096.341553,669.642639 1100.097534,685.802673 
M810.232727,919.000000 
	C810.229614,941.992981 810.336853,964.986816 810.140320,987.978149 
	C810.095276,993.252625 809.832886,998.780334 808.260254,1003.744629 
	C799.217224,1032.289673 780.314758,1050.802368 751.099976,1058.373047 
	C747.592407,1059.281982 744.057373,1060.085205 739.366455,1061.220215 
	C788.822937,1061.220215 837.082947,1061.220215 886.582947,1061.220215 
	C880.671936,1059.819580 875.917419,1058.800049 871.220276,1057.562622 
	C838.131958,1048.846313 814.907715,1018.988708 814.851196,984.899536 
	C814.774902,938.913940 814.828003,892.928101 814.829651,846.942322 
	C814.830200,832.280212 814.721802,817.616333 814.937195,802.957275 
	C814.991516,799.258057 816.100464,795.574402 816.724792,791.883606 
	C817.520081,791.660156 818.315369,791.436707 819.110718,791.213196 
	C821.633301,794.008057 824.440979,796.596924 826.632812,799.630676 
	C842.632629,821.776184 858.527954,843.997253 874.420227,866.220215 
	C918.220947,927.469421 961.996277,988.736877 1005.819885,1049.969604 
	C1007.827576,1052.774902 1010.208496,1055.312988 1012.415649,1057.975342 
	C1013.221802,1057.738159 1014.028015,1057.500854 1014.834167,1057.263550 
	C1015.140869,1053.819824 1015.693481,1050.377563 1015.712585,1046.932251 
	C1015.806824,1029.937988 1015.286011,1012.925049 1015.932190,995.954834 
	C1016.349060,985.007568 1013.015076,976.228333 1006.650940,967.407654 
	C958.499268,900.670105 910.719727,833.663940 862.833496,766.734924 
	C840.150574,735.031738 817.513184,703.295959 794.772583,671.634277 
	C792.787659,668.870667 791.532715,665.023865 786.036621,664.257080 
	C785.728271,668.242310 785.236816,671.750793 785.222168,675.261292 
	C785.145630,693.588562 785.424194,711.920715 785.085571,730.242065 
	C784.935791,738.347839 787.087891,745.202332 792.157532,751.461853 
	C795.925293,756.113892 798.868958,761.446716 802.744812,765.994690 
	C808.748474,773.039612 810.411804,780.964722 810.353210,790.040100 
	C810.080017,832.358582 810.234253,874.679749 810.232727,919.000000 
M1611.049927,670.640381 
	C1603.134888,671.442322 1594.838501,668.805786 1585.326782,673.305542 
	C1589.869507,675.390015 1592.706787,676.930664 1595.706909,678.024414 
	C1605.188965,681.481384 1610.272461,688.217163 1611.054443,698.194946 
	C1611.548706,704.502197 1612.163086,710.824341 1612.177246,717.141052 
	C1612.274780,760.470154 1612.273071,803.799805 1612.177490,847.128906 
	C1612.163452,853.446899 1611.586670,859.772034 1611.081177,866.078674 
	C1610.317383,875.609436 1605.511475,882.224976 1596.550049,885.815491 
	C1593.272461,887.128723 1590.120972,888.756226 1585.043945,891.104431 
	C1593.471436,894.551941 1600.115479,893.093323 1606.528687,893.340576 
	C1613.184814,893.597168 1619.858643,893.397766 1626.524658,893.397766 
	C1633.524048,893.397766 1640.539795,893.695312 1647.517822,893.308594 
	C1653.690552,892.966553 1660.270020,895.058960 1667.227051,891.054565 
	C1664.327881,889.624390 1662.651001,888.457153 1660.792847,887.934631 
	C1646.463501,883.904907 1640.523682,874.207458 1640.539551,859.684021 
	C1640.563110,838.030212 1639.928589,816.376343 1639.840576,794.721436 
	C1639.793335,783.097168 1642.912231,780.823547 1654.401611,782.156067 
	C1659.487305,782.745850 1661.765503,786.143982 1664.198120,789.762756 
	C1674.237915,804.697449 1684.178223,819.701050 1694.384766,834.521057 
	C1706.103149,851.536438 1718.173218,868.309998 1729.857178,885.348633 
	C1733.588623,890.790283 1738.124756,893.625916 1744.822998,893.386230 
	C1752.479004,893.112366 1760.155640,893.429504 1767.813232,893.177856 
	C1769.824951,893.111755 1771.798828,891.891479 1775.629272,890.563782 
	C1756.127319,875.938477 1743.893921,857.251831 1730.881348,839.252197 
	C1717.879517,821.267273 1704.137329,803.759460 1692.291260,783.282776 
	C1696.684448,781.566345 1700.079346,780.537048 1703.199951,778.963623 
	C1711.780151,774.637512 1721.079102,771.175659 1728.609741,765.427734 
	C1758.939819,742.277893 1754.920288,699.829895 1721.290649,681.889160 
	C1705.529663,673.481018 1688.461792,671.073059 1671.024170,670.745850 
	C1651.699341,670.383179 1632.362671,670.650269 1611.049927,670.640381 
M1833.000488,893.393555 
	C1850.661865,893.380005 1868.343262,893.901306 1885.980469,893.241211 
	C1922.348877,891.880127 1951.738403,876.854919 1971.376831,845.727295 
	C1992.865112,811.668030 1995.150635,774.966431 1982.831421,737.235535 
	C1976.061401,716.500854 1962.464966,700.717590 1943.831055,689.474121 
	C1927.302368,679.500793 1909.237427,673.143372 1890.037964,672.318237 
	C1859.772583,671.017517 1829.445435,671.137573 1799.142944,670.782410 
	C1797.248169,670.760193 1795.340454,671.832642 1791.941284,672.839417 
	C1795.037476,674.492310 1796.388062,675.555359 1797.915649,675.976013 
	C1814.078125,680.426453 1820.154663,691.589050 1819.162842,707.550903 
	C1819.100952,708.546448 1819.166382,709.549744 1819.166382,710.549438 
	C1819.166870,758.535400 1819.176514,806.521301 1819.147095,854.507263 
	C1819.144897,858.166626 1818.974854,861.834167 1818.695679,865.483582 
	C1817.905029,875.821106 1812.821899,882.906860 1802.841553,886.342651 
	C1799.537354,887.480225 1796.367920,889.009521 1793.136841,890.359680 
	C1793.293945,891.112915 1793.451050,891.866150 1793.608154,892.619446 
	C1806.000122,894.269409 1818.543091,893.008667 1833.000488,893.393555 
M1215.785522,763.000000 
	C1215.785889,753.003540 1215.594116,743.002319 1215.841553,733.011963 
	C1216.083252,723.249634 1214.658203,713.356567 1217.254883,701.696411 
	C1220.248657,705.389648 1222.236938,707.463440 1223.795166,709.821411 
	C1245.652710,742.899353 1267.546387,775.954163 1289.233887,809.143616 
	C1305.452637,833.963989 1321.374756,858.978088 1337.455078,883.889160 
	C1343.032837,892.530029 1350.222656,895.687927 1358.323364,892.761475 
	C1366.252930,889.896912 1363.015869,882.798340 1363.750366,877.258118 
	C1363.967285,875.620667 1363.786499,873.930359 1363.786499,872.264282 
	C1363.788086,824.280823 1363.676758,776.296936 1363.886108,728.314392 
	C1363.928101,718.687012 1364.952026,709.040283 1365.950073,699.446899 
	C1367.136597,688.040466 1373.501099,680.554565 1384.344849,676.815308 
	C1387.188477,675.834595 1389.951904,674.621277 1392.752197,673.514771 
	C1392.528809,672.629700 1392.305542,671.744629 1392.082275,670.859619 
	C1371.851562,670.647644 1351.615845,669.951721 1331.260010,672.360229 
	C1333.110229,674.375977 1335.023560,675.599182 1337.115479,676.227356 
	C1350.743286,680.319397 1356.993530,689.986572 1357.941284,703.622009 
	C1358.471924,711.259399 1359.048462,718.914124 1359.073730,726.562805 
	C1359.192505,762.549927 1359.135254,798.537781 1359.119873,834.525330 
	C1359.117432,840.188843 1359.230957,845.867798 1358.840576,851.508362 
	C1358.680542,853.819580 1357.325928,856.048096 1355.779785,860.367493 
	C1352.424072,856.206909 1350.206177,853.903198 1348.497925,851.268921 
	C1332.909668,827.230408 1317.527588,803.057617 1301.856079,779.073853 
	C1280.169312,745.884155 1258.181152,712.890808 1236.575195,679.648865 
	C1232.527466,673.421143 1227.729370,670.294128 1220.205933,670.560181 
	C1209.889038,670.924988 1199.548828,670.582458 1189.221802,670.747192 
	C1187.206421,670.779358 1185.205933,671.743591 1181.486694,672.733582 
	C1188.169678,676.701599 1193.204102,679.801819 1198.343384,682.717346 
	C1206.996338,687.626160 1210.482666,694.619873 1210.391113,704.876343 
	C1209.963135,752.855896 1210.272217,800.841736 1210.104858,848.824585 
	C1210.082886,855.101318 1209.123535,861.422791 1208.081543,867.636841 
	C1206.450928,877.360107 1200.658691,883.736450 1191.341797,887.008423 
	C1188.509766,888.002930 1185.808472,889.369934 1183.047363,890.566406 
	C1183.283325,891.435913 1183.519287,892.305420 1183.755249,893.174927 
	C1203.359375,893.351990 1222.969238,894.162476 1242.718750,891.644409 
	C1240.268677,889.440430 1237.738403,887.993958 1235.028931,887.076477 
	C1224.772461,883.603455 1219.131714,876.367249 1217.875977,865.832458 
	C1216.892456,857.580811 1215.971313,849.267517 1215.886841,840.972839 
	C1215.628662,815.650818 1215.787964,790.324585 1215.785522,763.000000 
M1457.605469,672.514832 
	C1428.273560,683.711670 1410.727173,705.369934 1402.057251,734.965698 
	C1397.965210,748.934082 1397.219604,763.295959 1398.449585,777.566284 
	C1401.679443,815.041870 1417.815796,844.431824 1453.516479,860.382080 
	C1490.929443,877.097229 1536.797729,864.676697 1560.876099,831.649841 
	C1586.351074,796.707214 1587.309326,740.804382 1562.707886,705.335999 
	C1548.781738,685.258423 1529.763428,672.684509 1505.447266,668.623291 
	C1489.734009,665.998962 1474.269409,667.067627 1457.605469,672.514832 
M2166.586914,667.853882 
	C2134.136230,671.100586 2109.243408,687.085449 2092.407715,714.469238 
	C2069.820312,751.208984 2067.897705,790.836670 2081.574219,830.863098 
	C2094.749023,869.421143 2122.726074,891.162109 2163.327881,896.178650 
	C2188.666992,899.309387 2213.017090,894.210999 2237.117920,887.058655 
	C2242.725098,885.394592 2245.068848,881.579041 2245.791992,876.164673 
	C2247.026611,866.921509 2248.461670,857.704224 2249.607422,848.450745 
	C2249.864990,846.369812 2249.277100,844.184143 2248.851074,839.602539 
	C2245.259521,844.263794 2243.094238,847.067749 2240.935547,849.876526 
	C2229.900879,864.234192 2217.834717,877.401672 2201.387695,885.875061 
	C2185.662598,893.976624 2170.137207,893.734619 2154.421631,885.903259 
	C2134.423584,875.937805 2122.399170,859.079895 2114.709717,838.983337 
	C2101.914551,805.542908 2101.994629,771.251465 2109.858887,736.746155 
	C2113.000732,722.960938 2118.500732,710.103455 2127.159424,698.840088 
	C2148.760498,670.741455 2183.174072,661.982422 2214.779541,687.031799 
	C2225.844971,695.801758 2235.164062,706.129333 2243.183105,717.707520 
	C2244.698486,719.895691 2246.656250,721.777893 2248.409912,723.801208 
	C2249.099854,723.421936 2249.789795,723.042664 2250.479736,722.663391 
	C2248.742432,710.199402 2247.112305,697.719055 2245.209961,685.280334 
	C2244.535645,680.870850 2241.363037,678.446655 2237.139893,677.384216 
	C2228.744385,675.272034 2220.420898,672.784790 2211.933105,671.149658 
	C2197.554688,668.379639 2183.091797,665.893372 2166.586914,667.853882 
M2064.173340,677.326233 
	C2066.522217,676.068726 2068.870850,674.811157 2072.442871,672.898743 
	C2061.353516,669.781006 1999.442383,669.974060 1990.430176,672.989502 
	C1994.071045,674.760132 1996.828369,676.502563 1999.833618,677.492615 
	C2012.483276,681.660034 2017.535645,690.716431 2017.140381,703.494690 
	C2017.078613,705.491394 2017.167236,707.492371 2017.167236,709.491394 
	C2017.169434,757.802429 2017.172729,806.113464 2017.160767,854.424500 
	C2017.159912,857.755127 2017.111328,861.088684 2016.967529,864.415833 
	C2016.501831,875.181946 2011.456909,882.634583 2001.153809,886.393188 
	C1997.845825,887.599976 1994.689331,889.222168 1990.501099,891.081421 
	C2000.301636,894.225891 2062.452393,894.154541 2072.336182,890.856812 
	C2067.722656,888.707520 2064.298828,886.987610 2060.777588,885.497437 
	C2052.691895,882.075317 2048.000732,876.066406 2047.000732,867.371887 
	C2046.392822,862.086243 2045.846069,856.756348 2045.835571,851.445129 
	C2045.743896,805.466553 2045.756470,759.487732 2045.815552,713.509094 
	C2045.821533,708.856506 2046.306396,704.202271 2046.627441,699.552856 
	C2047.366821,688.847473 2052.422607,681.346863 2064.173340,677.326233 
M1660.387817,997.348755 
	C1660.091919,994.860474 1660.611694,991.779785 1659.326416,990.009888 
	C1656.823608,986.563232 1643.461670,987.375732 1639.316650,990.770447 
	C1639.088867,990.957092 1639.545776,991.979797 1639.721436,992.785278 
	C1643.206787,993.806396 1646.758301,994.846985 1650.606445,995.974365 
	C1644.405151,1006.110291 1634.089844,1006.560303 1628.820679,997.932434 
	C1625.427124,992.375549 1625.993286,984.996033 1630.177246,980.249023 
	C1634.379028,975.481689 1640.873047,974.655212 1647.406860,978.299438 
	C1650.749023,980.163574 1653.700562,983.618347 1658.779541,979.315369 
	C1657.458862,977.177307 1656.523804,974.704407 1654.802734,973.048401 
	C1648.392578,966.880676 1635.913208,966.209290 1627.763794,971.291809 
	C1619.726807,976.304199 1615.860962,986.200134 1618.268066,995.598511 
	C1620.741943,1005.257690 1628.489990,1011.570129 1638.423462,1011.912231 
	C1648.461548,1012.257935 1655.634766,1007.843811 1660.387817,997.348755 
M1872.361206,990.900513 
	C1871.798584,1006.369141 1888.565186,1017.544739 1905.875610,1009.349731 
	C1909.751709,1007.514709 1913.344604,1004.927917 1912.117554,999.738586 
	C1907.014526,996.593567 1904.429688,1000.919434 1901.080811,1002.529724 
	C1894.614868,1005.638916 1887.941528,1004.251404 1884.060181,998.977905 
	C1880.178711,993.704163 1880.462891,985.208618 1884.682983,980.350830 
	C1888.736084,975.685608 1895.039307,974.579773 1901.056763,977.630310 
	C1902.824341,978.526367 1904.267090,980.250488 1906.095947,980.786560 
	C1907.984619,981.340210 1910.161743,980.909729 1912.557739,980.909729 
	C1912.428833,974.455322 1908.972412,971.966187 1904.927612,970.203674 
	C1889.758911,963.593872 1872.426514,972.236511 1872.361206,990.900513 
M1782.864746,999.680969 
	C1779.681030,990.933472 1776.778564,982.065613 1773.120605,973.521240 
	C1772.177612,971.318848 1768.974487,969.086304 1766.594116,968.823914 
	C1764.804321,968.626648 1761.649414,971.156677 1760.859985,973.164001 
	C1756.726318,983.673584 1753.047241,994.368713 1749.504272,1005.096436 
	C1748.993652,1006.641968 1750.075439,1008.713440 1750.420410,1010.541565 
	C1752.436768,1009.950134 1754.905884,1009.906677 1756.394531,1008.676697 
	C1764.822998,1001.713257 1769.176147,1001.725647 1777.696777,1008.918640 
	C1779.023315,1010.038574 1781.090332,1010.281311 1782.815063,1010.929626 
	C1783.389404,1008.929321 1784.217773,1006.956970 1784.442261,1004.918213 
	C1784.576172,1003.703613 1783.761963,1002.384644 1782.864746,999.680969 
M1519.191895,985.706299 
	C1516.266479,985.149475 1513.654297,983.538879 1514.705200,980.493286 
	C1515.385376,978.521973 1518.020142,976.859375 1520.153076,975.846313 
	C1522.890503,974.546204 1527.081543,975.862915 1527.864136,971.260071 
	C1523.389160,968.056641 1523.389160,968.056641 1518.295410,967.985107 
	C1505.669067,967.807922 1504.432617,968.945129 1504.242188,981.191223 
	C1504.164917,986.163208 1504.198120,991.137390 1504.222168,996.110413 
	C1504.296997,1011.630981 1506.095337,1013.268005 1521.551270,1011.951355 
	C1522.541260,1011.867004 1523.723511,1012.068481 1524.474609,1011.594910 
	C1525.722778,1010.807861 1527.561401,1009.570923 1527.549561,1008.541748 
	C1527.536621,1007.396667 1525.925293,1005.903198 1524.655396,1005.237366 
	C1523.253418,1004.502502 1521.186523,1004.954102 1519.881348,1004.135742 
	C1517.852051,1002.863403 1514.962524,1001.074707 1514.791382,999.280396 
	C1514.633179,997.620789 1517.296265,995.277161 1519.211060,993.945129 
	C1521.363037,992.448120 1524.068848,991.746948 1526.533691,990.699585 
	C1526.467651,989.938660 1526.401611,989.177795 1526.335571,988.416870 
	C1524.437256,987.586914 1522.539062,986.757019 1519.191895,985.706299 
M1434.234009,893.659119 
	C1469.158936,893.680176 1504.083862,893.707520 1539.008789,893.710205 
	C1541.666748,893.710388 1544.380859,893.828552 1546.961914,893.334045 
	C1548.535767,893.032593 1549.905029,891.662781 1553.053833,889.744690 
	C1548.971191,888.825256 1546.867065,887.942505 1544.761108,887.937988 
	C1507.508301,887.857971 1470.255371,887.858459 1433.002808,887.961121 
	C1430.988403,887.966736 1428.977051,889.021179 1426.964233,889.587341 
	C1426.930542,890.189941 1426.896851,890.792542 1426.863037,891.395142 
	C1428.786987,892.124634 1430.710815,892.854126 1434.234009,893.659119 
M2011.628052,973.207947 
	C2009.695557,969.863159 2007.496216,967.136719 2001.780273,969.858521 
	C2003.209717,973.488159 2004.410889,977.118347 2006.035767,980.547729 
	C2009.851807,988.601929 2014.921387,996.127625 2014.652710,1005.686340 
	C2014.597412,1007.648315 2016.786621,1009.673279 2017.941284,1011.669189 
	C2018.753418,1011.549072 2019.565552,1011.428955 2020.377686,1011.308838 
	C2022.317627,1004.209961 2024.049683,997.045715 2026.256226,990.030640 
	C2028.450806,983.053955 2035.053223,977.549072 2033.680908,968.916626 
	C2022.562866,967.817627 2025.489746,980.967468 2018.277344,983.456787 
	C2017.344971,982.730896 2016.328857,982.292908 2015.879883,981.523804 
	C2014.545166,979.237305 2013.433716,976.820435 2011.628052,973.207947 
M1393.156738,998.507080 
	C1392.668945,1013.019409 1396.918457,1012.306335 1408.747681,1011.773560 
	C1410.421387,1011.698181 1412.029907,1010.178711 1413.668579,1009.327698 
	C1412.335327,1007.802002 1411.191162,1005.213074 1409.635864,1004.936523 
	C1403.264648,1003.803650 1401.822021,999.701782 1401.841553,994.170044 
	C1401.862549,988.208374 1401.815918,982.243164 1401.620850,976.285339 
	C1401.512573,972.980347 1401.189331,969.584473 1395.459229,968.816284 
	C1394.709839,971.798035 1393.480957,974.749695 1393.312744,977.760681 
	C1392.961792,984.036011 1393.171997,990.342651 1393.156738,998.507080 
z"/>
<path fill="#10333F" opacity="1.000000" stroke="none" 
	d="
M1102.065308,1051.956299 
	C1092.706787,1039.428589 1083.131104,1027.056519 1074.023560,1014.348877 
	C989.593750,896.544983 905.263367,778.669800 820.826843,660.870667 
	C815.607300,653.588867 810.475281,645.989319 804.014343,639.905823 
	C790.865234,627.524841 774.629456,622.023071 756.554382,621.996887 
	C753.563965,621.992615 750.570251,621.799561 747.586731,621.577026 
	C747.009644,621.533997 746.473083,620.947510 744.667297,619.855591 
	C747.491211,619.081970 749.389526,618.113892 751.290771,618.108032 
	C781.614807,618.014771 811.940186,618.174377 842.262695,617.944946 
	C848.929993,617.894470 852.571716,621.455688 855.994385,626.259888 
	C871.460449,647.968933 887.022766,669.609375 902.526855,691.291321 
	C965.317383,779.101501 1028.095215,866.920654 1090.898071,954.721924 
	C1093.416382,958.242615 1096.139893,961.616699 1099.894043,965.523010 
	C1101.838257,966.046875 1102.656128,966.106812 1103.474121,966.166748 
	C1103.500366,994.097595 1103.526489,1022.028503 1103.148682,1050.911865 
	C1102.744751,1051.864258 1102.065308,1051.956299 1102.065308,1051.956299 
z"/>
<path fill="#10323E" opacity="1.000000" stroke="none" 
	d="
M810.234192,918.000000 
	C810.234253,874.679749 810.080017,832.358582 810.353210,790.040100 
	C810.411804,780.964722 808.748474,773.039612 802.744812,765.994690 
	C798.868958,761.446716 795.925293,756.113892 792.157532,751.461853 
	C787.087891,745.202332 784.935791,738.347839 785.085571,730.242065 
	C785.424194,711.920715 785.145630,693.588562 785.222168,675.261292 
	C785.236816,671.750793 785.728271,668.242310 786.036621,664.257080 
	C791.532715,665.023865 792.787659,668.870667 794.772583,671.634277 
	C817.513184,703.295959 840.150574,735.031738 862.833496,766.734924 
	C910.719727,833.663940 958.499268,900.670105 1006.650940,967.407654 
	C1013.015076,976.228333 1016.349060,985.007568 1015.932190,995.954834 
	C1015.286011,1012.925049 1015.806824,1029.937988 1015.712585,1046.932251 
	C1015.693481,1050.377563 1015.140869,1053.819824 1014.834167,1057.263550 
	C1014.028015,1057.500854 1013.221802,1057.738159 1012.415649,1057.975342 
	C1010.208496,1055.312988 1007.827576,1052.774902 1005.819885,1049.969604 
	C961.996277,988.736877 918.220947,927.469421 874.420227,866.220215 
	C858.527954,843.997253 842.632629,821.776184 826.632812,799.630676 
	C824.440979,796.596924 821.633301,794.008057 819.110718,791.213196 
	C818.315369,791.436707 817.520081,791.660156 816.724792,791.883606 
	C816.100464,795.574402 814.991516,799.258057 814.937195,802.957275 
	C814.721802,817.616333 814.830200,832.280212 814.829651,846.942322 
	C814.828003,892.928101 814.774902,938.913940 814.851196,984.899536 
	C814.907715,1018.988708 838.131958,1048.846313 871.220276,1057.562622 
	C875.917419,1058.800049 880.671936,1059.819580 886.582947,1061.220215 
	C837.082947,1061.220215 788.822937,1061.220215 739.366455,1061.220215 
	C744.057373,1060.085205 747.592407,1059.281982 751.099976,1058.373047 
	C780.314758,1050.802368 799.217224,1032.289673 808.260254,1003.744629 
	C809.832886,998.780334 810.095276,993.252625 810.140320,987.978149 
	C810.336853,964.986816 810.229614,941.992981 810.234192,918.000000 
z"/>
<path fill="#10323E" opacity="1.000000" stroke="none" 
	d="
M1612.040527,670.641785 
	C1632.362671,670.650269 1651.699341,670.383179 1671.024170,670.745850 
	C1688.461792,671.073059 1705.529663,673.481018 1721.290649,681.889160 
	C1754.920288,699.829895 1758.939819,742.277893 1728.609741,765.427734 
	C1721.079102,771.175659 1711.780151,774.637512 1703.199951,778.963623 
	C1700.079346,780.537048 1696.684448,781.566345 1692.291260,783.282776 
	C1704.137329,803.759460 1717.879517,821.267273 1730.881348,839.252197 
	C1743.893921,857.251831 1756.127319,875.938477 1775.629272,890.563782 
	C1771.798828,891.891479 1769.824951,893.111755 1767.813232,893.177856 
	C1760.155640,893.429504 1752.479004,893.112366 1744.822998,893.386230 
	C1738.124756,893.625916 1733.588623,890.790283 1729.857178,885.348633 
	C1718.173218,868.309998 1706.103149,851.536438 1694.384766,834.521057 
	C1684.178223,819.701050 1674.237915,804.697449 1664.198120,789.762756 
	C1661.765503,786.143982 1659.487305,782.745850 1654.401611,782.156067 
	C1642.912231,780.823547 1639.793335,783.097168 1639.840576,794.721436 
	C1639.928589,816.376343 1640.563110,838.030212 1640.539551,859.684021 
	C1640.523682,874.207458 1646.463501,883.904907 1660.792847,887.934631 
	C1662.651001,888.457153 1664.327881,889.624390 1667.227051,891.054565 
	C1660.270020,895.058960 1653.690552,892.966553 1647.517822,893.308594 
	C1640.539795,893.695312 1633.524048,893.397766 1626.524658,893.397766 
	C1619.858643,893.397766 1613.184814,893.597168 1606.528687,893.340576 
	C1600.115479,893.093323 1593.471436,894.551941 1585.043945,891.104431 
	C1590.120972,888.756226 1593.272461,887.128723 1596.550049,885.815491 
	C1605.511475,882.224976 1610.317383,875.609436 1611.081177,866.078674 
	C1611.586670,859.772034 1612.163452,853.446899 1612.177490,847.128906 
	C1612.273071,803.799805 1612.274780,760.470154 1612.177246,717.141052 
	C1612.163086,710.824341 1611.548706,704.502197 1611.054443,698.194946 
	C1610.272461,688.217163 1605.188965,681.481384 1595.706909,678.024414 
	C1592.706787,676.930664 1589.869507,675.390015 1585.326782,673.305542 
	C1594.838501,668.805786 1603.134888,671.442322 1612.040527,670.641785 
M1720.190796,726.906738 
	C1720.145020,724.910217 1720.185059,722.907410 1720.040527,720.918030 
	C1718.098145,694.196899 1702.083618,677.978516 1675.471313,676.262085 
	C1666.850342,675.706055 1658.160645,675.908997 1649.513306,676.153381 
	C1641.644409,676.375732 1639.986084,677.813232 1639.926270,685.633423 
	C1639.720337,712.597961 1639.713989,739.566162 1639.934326,766.530518 
	C1640.000732,774.639709 1641.822876,776.215515 1650.317627,776.471680 
	C1659.294678,776.742249 1668.310059,776.822449 1677.270752,776.315369 
	C1692.178955,775.471924 1704.002319,768.589600 1712.340576,756.235535 
	C1717.893433,748.008423 1719.800049,738.540039 1720.190796,726.906738 
z"/>
<path fill="#10323E" opacity="1.000000" stroke="none" 
	d="
M1832.000732,893.392212 
	C1818.543091,893.008667 1806.000122,894.269409 1793.608154,892.619446 
	C1793.451050,891.866150 1793.293945,891.112915 1793.136841,890.359680 
	C1796.367920,889.009521 1799.537354,887.480225 1802.841553,886.342651 
	C1812.821899,882.906860 1817.905029,875.821106 1818.695679,865.483582 
	C1818.974854,861.834167 1819.144897,858.166626 1819.147095,854.507263 
	C1819.176514,806.521301 1819.166870,758.535400 1819.166382,710.549438 
	C1819.166382,709.549744 1819.100952,708.546448 1819.162842,707.550903 
	C1820.154663,691.589050 1814.078125,680.426453 1797.915649,675.976013 
	C1796.388062,675.555359 1795.037476,674.492310 1791.941284,672.839417 
	C1795.340454,671.832642 1797.248169,670.760193 1799.142944,670.782410 
	C1829.445435,671.137573 1859.772583,671.017517 1890.037964,672.318237 
	C1909.237427,673.143372 1927.302368,679.500793 1943.831055,689.474121 
	C1962.464966,700.717590 1976.061401,716.500854 1982.831421,737.235535 
	C1995.150635,774.966431 1992.865112,811.668030 1971.376831,845.727295 
	C1951.738403,876.854919 1922.348877,891.880127 1885.980469,893.241211 
	C1868.343262,893.901306 1850.661865,893.380005 1832.000732,893.392212 
M1948.592773,722.688049 
	C1939.246582,702.217651 1924.132568,688.232056 1902.570435,681.249390 
	C1887.426270,676.345093 1871.905396,675.587708 1856.189087,676.122009 
	C1850.978760,676.299194 1848.083862,678.611145 1847.948608,683.957764 
	C1847.864258,687.284546 1847.768311,690.612366 1847.766724,693.939758 
	C1847.752686,725.561584 1847.751343,757.183472 1847.758667,788.805298 
	C1847.764893,815.434143 1847.697388,842.063538 1847.848633,868.691650 
	C1847.906372,878.856934 1850.631592,882.393005 1860.195312,885.344360 
	C1871.891602,888.953735 1883.906128,889.114014 1895.758545,886.780090 
	C1921.026978,881.804321 1938.289185,866.341553 1947.560425,842.931152 
	C1963.089111,803.720154 1964.229004,763.911133 1948.592773,722.688049 
z"/>
<path fill="#0F313D" opacity="1.000000" stroke="none" 
	d="
M1215.785156,764.000000 
	C1215.787964,790.324585 1215.628662,815.650818 1215.886841,840.972839 
	C1215.971313,849.267517 1216.892456,857.580811 1217.875977,865.832458 
	C1219.131714,876.367249 1224.772461,883.603455 1235.028931,887.076477 
	C1237.738403,887.993958 1240.268677,889.440430 1242.718750,891.644409 
	C1222.969238,894.162476 1203.359375,893.351990 1183.755249,893.174927 
	C1183.519287,892.305420 1183.283325,891.435913 1183.047363,890.566406 
	C1185.808472,889.369934 1188.509766,888.002930 1191.341797,887.008423 
	C1200.658691,883.736450 1206.450928,877.360107 1208.081543,867.636841 
	C1209.123535,861.422791 1210.082886,855.101318 1210.104858,848.824585 
	C1210.272217,800.841736 1209.963135,752.855896 1210.391113,704.876343 
	C1210.482666,694.619873 1206.996338,687.626160 1198.343384,682.717346 
	C1193.204102,679.801819 1188.169678,676.701599 1181.486694,672.733582 
	C1185.205933,671.743591 1187.206421,670.779358 1189.221802,670.747192 
	C1199.548828,670.582458 1209.889038,670.924988 1220.205933,670.560181 
	C1227.729370,670.294128 1232.527466,673.421143 1236.575195,679.648865 
	C1258.181152,712.890808 1280.169312,745.884155 1301.856079,779.073853 
	C1317.527588,803.057617 1332.909668,827.230408 1348.497925,851.268921 
	C1350.206177,853.903198 1352.424072,856.206909 1355.779785,860.367493 
	C1357.325928,856.048096 1358.680542,853.819580 1358.840576,851.508362 
	C1359.230957,845.867798 1359.117432,840.188843 1359.119873,834.525330 
	C1359.135254,798.537781 1359.192505,762.549927 1359.073730,726.562805 
	C1359.048462,718.914124 1358.471924,711.259399 1357.941284,703.622009 
	C1356.993530,689.986572 1350.743286,680.319397 1337.115479,676.227356 
	C1335.023560,675.599182 1333.110229,674.375977 1331.260010,672.360229 
	C1351.615845,669.951721 1371.851562,670.647644 1392.082275,670.859619 
	C1392.305542,671.744629 1392.528809,672.629700 1392.752197,673.514771 
	C1389.951904,674.621277 1387.188477,675.834595 1384.344849,676.815308 
	C1373.501099,680.554565 1367.136597,688.040466 1365.950073,699.446899 
	C1364.952026,709.040283 1363.928101,718.687012 1363.886108,728.314392 
	C1363.676758,776.296936 1363.788086,824.280823 1363.786499,872.264282 
	C1363.786499,873.930359 1363.967285,875.620667 1363.750366,877.258118 
	C1363.015869,882.798340 1366.252930,889.896912 1358.323364,892.761475 
	C1350.222656,895.687927 1343.032837,892.530029 1337.455078,883.889160 
	C1321.374756,858.978088 1305.452637,833.963989 1289.233887,809.143616 
	C1267.546387,775.954163 1245.652710,742.899353 1223.795166,709.821411 
	C1222.236938,707.463440 1220.248657,705.389648 1217.254883,701.696411 
	C1214.658203,713.356567 1216.083252,723.249634 1215.841553,733.011963 
	C1215.594116,743.002319 1215.785889,753.003540 1215.785156,764.000000 
z"/>
<path fill="#10323E" opacity="1.000000" stroke="none" 
	d="
M1458.349609,672.250671 
	C1474.269409,667.067627 1489.734009,665.998962 1505.447266,668.623291 
	C1529.763428,672.684509 1548.781738,685.258423 1562.707886,705.335999 
	C1587.309326,740.804382 1586.351074,796.707214 1560.876099,831.649841 
	C1536.797729,864.676697 1490.929443,877.097229 1453.516479,860.382080 
	C1417.815796,844.431824 1401.679443,815.041870 1398.449585,777.566284 
	C1397.219604,763.295959 1397.965210,748.934082 1402.057251,734.965698 
	C1410.727173,705.369934 1428.273560,683.711670 1458.349609,672.250671 
M1539.779419,834.545837 
	C1545.705322,824.733582 1549.460571,814.102112 1551.597900,802.884521 
	C1557.047241,774.284607 1553.713257,746.495239 1543.483398,719.444763 
	C1538.459961,706.161560 1530.744751,694.605835 1520.039307,685.121216 
	C1504.420410,671.283325 1481.833496,667.842529 1463.143677,677.050293 
	C1448.759888,684.136597 1439.148804,695.886292 1433.231445,710.574707 
	C1420.445923,742.310669 1421.958374,774.393555 1431.658936,806.511292 
	C1435.646240,819.713135 1441.726807,831.925598 1450.941284,842.321777 
	C1463.908569,856.952209 1479.977173,864.379089 1499.775879,862.201721 
	C1517.397827,860.263794 1529.547974,849.972839 1539.779419,834.545837 
z"/>
<path fill="#10323E" opacity="1.000000" stroke="none" 
	d="
M2167.455566,667.780640 
	C2183.091797,665.893372 2197.554688,668.379639 2211.933105,671.149658 
	C2220.420898,672.784790 2228.744385,675.272034 2237.139893,677.384216 
	C2241.363037,678.446655 2244.535645,680.870850 2245.209961,685.280334 
	C2247.112305,697.719055 2248.742432,710.199402 2250.479736,722.663391 
	C2249.789795,723.042664 2249.099854,723.421936 2248.409912,723.801208 
	C2246.656250,721.777893 2244.698486,719.895691 2243.183105,717.707520 
	C2235.164062,706.129333 2225.844971,695.801758 2214.779541,687.031799 
	C2183.174072,661.982422 2148.760498,670.741455 2127.159424,698.840088 
	C2118.500732,710.103455 2113.000732,722.960938 2109.858887,736.746155 
	C2101.994629,771.251465 2101.914551,805.542908 2114.709717,838.983337 
	C2122.399170,859.079895 2134.423584,875.937805 2154.421631,885.903259 
	C2170.137207,893.734619 2185.662598,893.976624 2201.387695,885.875061 
	C2217.834717,877.401672 2229.900879,864.234192 2240.935547,849.876526 
	C2243.094238,847.067749 2245.259521,844.263794 2248.851074,839.602539 
	C2249.277100,844.184143 2249.864990,846.369812 2249.607422,848.450745 
	C2248.461670,857.704224 2247.026611,866.921509 2245.791992,876.164673 
	C2245.068848,881.579041 2242.725098,885.394592 2237.117920,887.058655 
	C2213.017090,894.210999 2188.666992,899.309387 2163.327881,896.178650 
	C2122.726074,891.162109 2094.749023,869.421143 2081.574219,830.863098 
	C2067.897705,790.836670 2069.820312,751.208984 2092.407715,714.469238 
	C2109.243408,687.085449 2134.136230,671.100586 2167.455566,667.780640 
z"/>
<path fill="#10323E" opacity="1.000000" stroke="none" 
	d="
M2063.507812,677.597595 
	C2052.422607,681.346863 2047.366821,688.847473 2046.627441,699.552856 
	C2046.306396,704.202271 2045.821533,708.856506 2045.815552,713.509094 
	C2045.756470,759.487732 2045.743896,805.466553 2045.835571,851.445129 
	C2045.846069,856.756348 2046.392822,862.086243 2047.000732,867.371887 
	C2048.000732,876.066406 2052.691895,882.075317 2060.777588,885.497437 
	C2064.298828,886.987610 2067.722656,888.707520 2072.336182,890.856812 
	C2062.452393,894.154541 2000.301636,894.225891 1990.501099,891.081421 
	C1994.689331,889.222168 1997.845825,887.599976 2001.153809,886.393188 
	C2011.456909,882.634583 2016.501831,875.181946 2016.967529,864.415833 
	C2017.111328,861.088684 2017.159912,857.755127 2017.160767,854.424500 
	C2017.172729,806.113464 2017.169434,757.802429 2017.167236,709.491394 
	C2017.167236,707.492371 2017.078613,705.491394 2017.140381,703.494690 
	C2017.535645,690.716431 2012.483276,681.660034 1999.833618,677.492615 
	C1996.828369,676.502563 1994.071045,674.760132 1990.430176,672.989502 
	C1999.442383,669.974060 2061.353516,669.781006 2072.442871,672.898743 
	C2068.870850,674.811157 2066.522217,676.068726 2063.507812,677.597595 
z"/>
<path fill="#10323E" opacity="1.000000" stroke="none" 
	d="
M1100.168457,683.917175 
	C1096.341553,669.642639 1090.937500,656.189209 1080.746216,645.060974 
	C1067.163940,630.230225 1050.372681,621.739685 1030.517212,618.544067 
	C1078.179688,618.544067 1125.842041,618.544067 1173.504517,618.544067 
	C1173.542236,618.774536 1173.580078,619.005005 1173.617920,619.235474 
	C1170.169434,619.916931 1166.681152,620.441345 1163.278687,621.304443 
	C1134.851196,628.515503 1116.472656,646.617737 1106.619629,673.857483 
	C1105.603882,676.665466 1104.925659,679.595581 1103.291870,683.184509 
	C1101.718018,683.905701 1100.943237,683.911438 1100.168457,683.917175 
z"/>
<path fill="#0C2730" opacity="1.000000" stroke="none" 
	d="
M1100.133057,684.859924 
	C1100.943237,683.911438 1101.718018,683.905701 1103.073120,683.893982 
	C1103.767212,687.876587 1103.979248,691.865112 1103.980225,695.853699 
	C1103.999268,781.671387 1103.998413,867.489014 1103.982300,953.306702 
	C1103.981689,956.963196 1103.797974,960.619751 1103.586914,965.221497 
	C1102.656128,966.106812 1101.838257,966.046875 1100.406372,965.931213 
	C1099.861694,917.369751 1099.942871,868.864014 1099.996216,820.358276 
	C1100.045532,775.506409 1100.064941,730.654541 1100.133057,684.859924 
z"/>
<path fill="#0F313D" opacity="1.000000" stroke="none" 
	d="
M1660.151611,998.048523 
	C1655.634766,1007.843811 1648.461548,1012.257935 1638.423462,1011.912231 
	C1628.489990,1011.570129 1620.741943,1005.257690 1618.268066,995.598511 
	C1615.860962,986.200134 1619.726807,976.304199 1627.763794,971.291809 
	C1635.913208,966.209290 1648.392578,966.880676 1654.802734,973.048401 
	C1656.523804,974.704407 1657.458862,977.177307 1658.779541,979.315369 
	C1653.700562,983.618347 1650.749023,980.163574 1647.406860,978.299438 
	C1640.873047,974.655212 1634.379028,975.481689 1630.177246,980.249023 
	C1625.993286,984.996033 1625.427124,992.375549 1628.820679,997.932434 
	C1634.089844,1006.560303 1644.405151,1006.110291 1650.606445,995.974365 
	C1646.758301,994.846985 1643.206787,993.806396 1639.721436,992.785278 
	C1639.545776,991.979797 1639.088867,990.957092 1639.316650,990.770447 
	C1643.461670,987.375732 1656.823608,986.563232 1659.326416,990.009888 
	C1660.611694,991.779785 1660.091919,994.860474 1660.151611,998.048523 
z"/>
<path fill="#0F313D" opacity="1.000000" stroke="none" 
	d="
M1872.365234,990.085327 
	C1872.426514,972.236511 1889.758911,963.593872 1904.927612,970.203674 
	C1908.972412,971.966187 1912.428833,974.455322 1912.557739,980.909729 
	C1910.161743,980.909729 1907.984619,981.340210 1906.095947,980.786560 
	C1904.267090,980.250488 1902.824341,978.526367 1901.056763,977.630310 
	C1895.039307,974.579773 1888.736084,975.685608 1884.682983,980.350830 
	C1880.462891,985.208618 1880.178711,993.704163 1884.060181,998.977905 
	C1887.941528,1004.251404 1894.614868,1005.638916 1901.080811,1002.529724 
	C1904.429688,1000.919434 1907.014526,996.593567 1912.117554,999.738586 
	C1913.344604,1004.927917 1909.751709,1007.514709 1905.875610,1009.349731 
	C1888.565186,1017.544739 1871.798584,1006.369141 1872.365234,990.085327 
z"/>
<path fill="#0F313D" opacity="1.000000" stroke="none" 
	d="
M1783.119385,1000.396729 
	C1783.761963,1002.384644 1784.576172,1003.703613 1784.442261,1004.918213 
	C1784.217773,1006.956970 1783.389404,1008.929321 1782.814941,1010.929626 
	C1781.090332,1010.281311 1779.023315,1010.038574 1777.696777,1008.918640 
	C1769.176147,1001.725647 1764.822998,1001.713257 1756.394531,1008.676697 
	C1754.905884,1009.906677 1752.436768,1009.950134 1750.420410,1010.541565 
	C1750.075439,1008.713440 1748.993652,1006.641968 1749.504272,1005.096436 
	C1753.047241,994.368713 1756.726318,983.673584 1760.859985,973.164001 
	C1761.649414,971.156677 1764.804321,968.626648 1766.594116,968.823914 
	C1768.974487,969.086304 1772.177612,971.318848 1773.120605,973.521240 
	C1776.778564,982.065613 1779.681030,990.933472 1783.119385,1000.396729 
M1770.548462,991.414734 
	C1769.955933,988.751587 1770.095947,985.580811 1765.916138,984.750671 
	C1765.004639,986.659485 1763.691162,988.304443 1763.541260,990.049255 
	C1763.404541,991.642334 1764.527954,993.343628 1765.095825,994.997253 
	C1766.871826,994.205811 1768.647705,993.414429 1770.548462,991.414734 
z"/>
<path fill="#0F313D" opacity="1.000000" stroke="none" 
	d="
M1519.916260,985.816650 
	C1522.539062,986.757019 1524.437256,987.586914 1526.335571,988.416870 
	C1526.401611,989.177795 1526.467651,989.938660 1526.533691,990.699585 
	C1524.068848,991.746948 1521.363037,992.448120 1519.211060,993.945129 
	C1517.296265,995.277161 1514.633179,997.620789 1514.791382,999.280396 
	C1514.962524,1001.074707 1517.852051,1002.863403 1519.881348,1004.135742 
	C1521.186523,1004.954102 1523.253418,1004.502502 1524.655396,1005.237366 
	C1525.925293,1005.903198 1527.536621,1007.396667 1527.549561,1008.541748 
	C1527.561401,1009.570923 1525.722778,1010.807861 1524.474609,1011.594910 
	C1523.723511,1012.068481 1522.541260,1011.867004 1521.551270,1011.951355 
	C1506.095337,1013.268005 1504.296997,1011.630981 1504.222168,996.110413 
	C1504.198120,991.137390 1504.164917,986.163208 1504.242188,981.191223 
	C1504.432617,968.945129 1505.669067,967.807922 1518.295410,967.985107 
	C1523.389160,968.056641 1523.389160,968.056641 1527.864136,971.260071 
	C1527.081543,975.862915 1522.890503,974.546204 1520.153076,975.846313 
	C1518.020142,976.859375 1515.385376,978.521973 1514.705200,980.493286 
	C1513.654297,983.538879 1516.266479,985.149475 1519.916260,985.816650 
z"/>
<path fill="#0C2730" opacity="1.000000" stroke="none" 
	d="
M1433.434326,893.621338 
	C1430.710815,892.854126 1428.786987,892.124634 1426.863037,891.395142 
	C1426.896851,890.792542 1426.930542,890.189941 1426.964233,889.587341 
	C1428.977051,889.021179 1430.988403,887.966736 1433.002808,887.961121 
	C1470.255371,887.858459 1507.508301,887.857971 1544.761108,887.937988 
	C1546.867065,887.942505 1548.971191,888.825256 1553.053833,889.744690 
	C1549.905029,891.662781 1548.535767,893.032593 1546.961914,893.334045 
	C1544.380859,893.828552 1541.666748,893.710388 1539.008789,893.710205 
	C1504.083862,893.707520 1469.158936,893.680176 1433.434326,893.621338 
z"/>
<path fill="#0F313D" opacity="1.000000" stroke="none" 
	d="
M2011.931396,973.831299 
	C2013.433716,976.820435 2014.545166,979.237305 2015.879883,981.523804 
	C2016.328857,982.292908 2017.344971,982.730896 2018.277344,983.456787 
	C2025.489746,980.967468 2022.562866,967.817627 2033.680908,968.916626 
	C2035.053223,977.549072 2028.450806,983.053955 2026.256226,990.030640 
	C2024.049683,997.045715 2022.317627,1004.209961 2020.377686,1011.308838 
	C2019.565552,1011.428955 2018.753418,1011.549072 2017.941284,1011.669189 
	C2016.786621,1009.673279 2014.597412,1007.648315 2014.652710,1005.686340 
	C2014.921387,996.127625 2009.851807,988.601929 2006.035767,980.547729 
	C2004.410889,977.118347 2003.209717,973.488159 2001.780273,969.858521 
	C2007.496216,967.136719 2009.695557,969.863159 2011.931396,973.831299 
z"/>
<path fill="#0F313D" opacity="1.000000" stroke="none" 
	d="
M1393.154175,997.571777 
	C1393.171997,990.342651 1392.961792,984.036011 1393.312744,977.760681 
	C1393.480957,974.749695 1394.709839,971.798035 1395.459229,968.816284 
	C1401.189331,969.584473 1401.512573,972.980347 1401.620850,976.285339 
	C1401.815918,982.243164 1401.862549,988.208374 1401.841553,994.170044 
	C1401.822021,999.701782 1403.264648,1003.803650 1409.635864,1004.936523 
	C1411.191162,1005.213074 1412.335327,1007.802002 1413.668579,1009.327637 
	C1412.029907,1010.178711 1410.421387,1011.698181 1408.747681,1011.773560 
	C1396.918457,1012.306335 1392.668945,1013.019409 1393.154175,997.571777 
z"/>
<path fill="#0C2730" opacity="1.000000" stroke="none" 
	d="
M1102.233521,1052.067139 
	C1102.065308,1051.956299 1102.744751,1051.864258 1103.084961,1051.834839 
	C1103.425171,1051.805420 1102.980713,1052.180054 1102.980713,1052.180054 
	C1102.980713,1052.180054 1102.401733,1052.177979 1102.233521,1052.067139 
z"/>
<path fill="#000000" opacity="1.000000" stroke="none" 
	d="
M1720.176025,727.819214 
	C1719.800049,738.540039 1717.893433,748.008423 1712.340576,756.235535 
	C1704.002319,768.589600 1692.178955,775.471924 1677.270752,776.315369 
	C1668.310059,776.822449 1659.294678,776.742249 1650.317627,776.471680 
	C1641.822876,776.215515 1640.000732,774.639709 1639.934326,766.530518 
	C1639.713989,739.566162 1639.720337,712.597961 1639.926270,685.633423 
	C1639.986084,677.813232 1641.644409,676.375732 1649.513306,676.153381 
	C1658.160645,675.908997 1666.850342,675.706055 1675.471313,676.262085 
	C1702.083618,677.978516 1718.098145,694.196899 1720.040527,720.918030 
	C1720.185059,722.907410 1720.145020,724.910217 1720.176025,727.819214 
z"/>
<path fill="#000000" opacity="1.000000" stroke="none" 
	d="
M1948.900635,723.383179 
	C1964.229004,763.911133 1963.089111,803.720154 1947.560425,842.931152 
	C1938.289185,866.341553 1921.026978,881.804321 1895.758545,886.780090 
	C1883.906128,889.114014 1871.891602,888.953735 1860.195312,885.344360 
	C1850.631592,882.393005 1847.906372,878.856934 1847.848633,868.691650 
	C1847.697388,842.063538 1847.764893,815.434143 1847.758667,788.805298 
	C1847.751343,757.183472 1847.752686,725.561584 1847.766724,693.939758 
	C1847.768311,690.612366 1847.864258,687.284546 1847.948608,683.957764 
	C1848.083862,678.611145 1850.978760,676.299194 1856.189087,676.122009 
	C1871.905396,675.587708 1887.426270,676.345093 1902.570435,681.249390 
	C1924.132568,688.232056 1939.246582,702.217651 1948.900635,723.383179 
z"/>
<path fill="#000000" opacity="1.000000" stroke="none" 
	d="
M1539.392822,835.169067 
	C1529.547974,849.972839 1517.397827,860.263794 1499.775879,862.201721 
	C1479.977173,864.379089 1463.908569,856.952209 1450.941284,842.321777 
	C1441.726807,831.925598 1435.646240,819.713135 1431.658936,806.511292 
	C1421.958374,774.393555 1420.445923,742.310669 1433.231445,710.574707 
	C1439.148804,695.886292 1448.759888,684.136597 1463.143677,677.050293 
	C1481.833496,667.842529 1504.420410,671.283325 1520.039307,685.121216 
	C1530.744751,694.605835 1538.459961,706.161560 1543.483398,719.444763 
	C1553.713257,746.495239 1557.047241,774.284607 1551.597900,802.884521 
	C1549.460571,814.102112 1545.705322,824.733582 1539.392822,835.169067 
z"/>
<path fill="#000000" opacity="1.000000" stroke="none" 
	d="
M1770.486084,992.018860 
	C1768.647705,993.414429 1766.871826,994.205811 1765.095825,994.997253 
	C1764.527954,993.343628 1763.404541,991.642334 1763.541260,990.049255 
	C1763.691162,988.304443 1765.004639,986.659485 1765.916138,984.750671 
	C1770.095947,985.580811 1769.955933,988.751587 1770.486084,992.018860 
z"/>
</svg>