<?xml version="1.0" encoding="UTF-8"?>
<svg id="Layer_1" data-name="Layer 1" xmlns="http://www.w3.org/2000/svg" viewBox="0 0 1920 1080">
  <defs>
    <style>
      .cls-1 {
        fill: #1b263a;
      }

      .cls-1, .cls-2 {
        stroke-width: 0px;
      }

      .cls-2 {
        fill: #bb885e;
      }
    </style>
  </defs>
  <g>
    <path class="cls-1" d="M596.66,416.22c4.22,5.7,11.54,14.53,21.96,26.5l33.78,39.16,32.51,37.58c.7-12.74,1.06-29.27,1.06-49.61,0-15.27-.32-25.49-.95-30.67-.64-5.17-2.98-9.51-7.02-13.03-4.05-3.52-9.1-5.28-15.15-5.28-2.82,0-4.22-.6-4.22-1.79,0-.7.3-1.21.9-1.53.6-.32,5.33-.63,14.2-.95,8.87-.32,16.33-.47,22.38-.47l14.25.1h2.32c2.18,0,3.27.61,3.27,1.85,0,1.1-.95,1.75-2.85,1.95-7.11.78-12.23,2.62-15.36,5.55-3.13,2.92-5,7.13-5.59,12.63-.6,5.49-.9,23.98-.9,55.46l-1.04,55.78c0,2.82-.69,4.23-2.08,4.23-.36,0-.85-.16-1.46-.47-.61-.32-3.77-3.87-9.47-10.66-5.7-6.79-12.72-14.94-21.06-24.44-8.34-9.5-14.9-17.21-19.69-23.12-10.49-12.74-17.1-20.58-19.84-23.54-10.21-10.83-16.22-17.8-18.05-20.9-1.2-2.11-2.29-3.17-3.27-3.17-.78,0-1.16,1.37-1.16,4.12l.21,16.36c0,20.76.56,37.34,1.69,49.72,1.13,12.39,2.3,19.65,3.53,21.8,1.23,2.15,3.38,4.31,6.44,6.49,3.06,2.18,6.32,3.27,9.76,3.27,4.64,0,6.97.84,6.97,2.53,0,1.27-1.31,1.9-3.91,1.9l-50.77-.1c-2.39,0-3.59-.6-3.59-1.79,0-1.41,1.16-2.11,3.48-2.11,8.65,0,14.42-1.92,17.31-5.76,2.89-3.83,4.33-11.98,4.33-24.44l-.87-37.05c.01-21.89-.57-34.78-1.77-38.69-1.2-3.91-3.89-8.66-8.07-14.25-4.19-5.59-8.96-8.74-14.31-9.45-2.39-.28-3.59-.91-3.59-1.9,0-1.33,1.55-2,4.64-2l31.04.21Z"/>
    <path class="cls-1" d="M719.84,483.68c0-9.5,2.88-19.93,8.65-31.3,5.77-11.36,14.2-20.74,25.28-28.13,11.08-7.39,23.59-11.08,37.53-11.08,19.49,0,35.59,6.97,48.29,20.9,12.7,13.93,19.05,29.84,19.05,47.71,0,19-7.04,36.05-21.11,51.15-14.08,15.09-31,22.64-50.78,22.64s-34.82-6.62-47.66-19.85c-12.84-13.23-19.26-30.58-19.26-52.04ZM743.37,480.24c0,11.48,1.76,23.26,5.27,35.34,3.51,12.08,9.03,20.85,16.55,26.31,7.52,5.46,15.57,8.19,24.15,8.19,13.85,0,24.93-6.74,33.26-20.23,8.33-13.49,12.49-29.11,12.49-46.85s-4.25-32.28-12.76-45.27c-8.5-12.99-19.61-19.49-33.32-19.49-10.33,0-18.95,3.47-25.84,10.4-6.89,6.94-11.92,15.23-15.08,24.88-3.16,9.65-4.74,18.56-4.74,26.73Z"/>
    <path class="cls-1" d="M930.45,555.98h-6.23c-3.31-10.62-8.51-25.12-15.62-43.49l-19.95-51.41c-6.19-15.9-10.5-25.82-12.93-29.77-2.43-3.94-4.8-6.61-7.12-8.02-2.32-1.41-5.59-2.29-9.82-2.64-1.76-.14-2.64-.77-2.64-1.9,0-1.33.88-2,2.64-2h55.32c3.45,0,5.17.6,5.17,1.79,0,1.55-1.13,2.32-3.38,2.32-9.29,0-13.93,3.98-13.93,11.93,0,1.9.42,4.92,1.27,9.08.85,4.16,2.31,9.26,4.38,15.31,2.07,6.05,6.54,18.46,13.41,37.21,6.86,18.76,11.24,30.28,13.14,34.57l22.59-62.6c6.47-17.73,9.71-28.88,9.71-33.46,0-7.39-4.58-11.47-13.73-12.25-1.83-.14-2.74-.81-2.74-2,0-.78.33-1.28,1-1.53.67-.24,2.62-.37,5.86-.37h35.26c3.17,0,5.08.09,5.75.26.67.18,1,.68,1,1.53,0,1.27-1.38,2.11-4.12,2.53-5.28.78-9.23,2.69-11.88,5.75-2.64,3.06-5.17,6.72-7.6,10.98-2.43,4.26-8.92,21.2-19.47,50.83-3.73,10.42-12.18,32.86-25.34,67.35Z"/>
    <path class="cls-1" d="M1122.03,416.75c2.04,7.88,4.05,18.93,6.02,33.15-.34.56-.72.84-1.13.84-.48,0-1-.28-1.56-.84-4.86-7.81-9.51-13.76-13.94-17.84-4.44-4.08-8.89-6.98-13.36-8.71-4.47-1.72-12.17-2.59-23.08-2.59-10.28,0-18.41.6-24.4,1.79-.56.7-.85,2-.85,3.9,0,.49-.07,1.37-.21,2.63-.71,5.62-1.06,20.87-1.06,45.73,0,1.06.07,2.53.21,4.42,5.35.21,9.01.32,10.99.32,8.87,0,15.3-1.32,19.28-3.97,3.98-2.65,7.44-8.36,10.4-17.13.49-1.48,1.18-2.22,2.1-2.22,1.32,0,1.99,1.02,1.99,3.07l-.42,4.23c-.57,5.57-.85,11.32-.85,17.24,0,9.59.18,18.23.53,25.91,0,2.4-.65,3.6-1.94,3.6-.95,0-1.6-.85-1.93-2.53-1.49-8.3-4.59-14.28-9.32-17.94-4.73-3.66-15-5.49-30.82-5.49-.21,5.14-.32,13.44-.32,24.91,0,14.85.53,24.28,1.59,28.29,1.06,4.01,3.59,7.2,7.61,9.55,4.01,2.36,10.81,3.54,20.39,3.54,27.39,0,45.07-9.43,53.02-28.29.97-2.32,1.99-3.48,3.03-3.48,1.11,0,1.67.78,1.67,2.32,0,.85-.18,1.76-.53,2.75-.42,1.33-1.44,6.33-3.06,14.99-.35,1.83-1.69,7.32-4.01,16.46l-44.23-.1c-6.33,0-15.64-.26-27.92-.79-12.28-.53-23.15-.81-32.62-.84-9.47-.04-14.41-.23-14.83-.58-.42-.35-.63-.74-.63-1.16,0-1.41,1.16-2.11,3.48-2.11,7.81,0,12.95-2.07,15.41-6.22,2.46-4.15,3.7-14.24,3.7-30.27l-.11-21.62.32-20.25c0-4.08-.23-11.8-.68-23.15-.46-11.36-.88-17.84-1.27-19.46-.39-1.62-1.48-3.22-3.27-4.8-1.79-1.58-5.75-3.18-11.88-4.8-1.83-.49-2.74-1.27-2.74-2.32,0-1.27,1.23-1.9,3.69-1.9l21.54,1.16c7.6.35,26.28.53,56.05.53,19.57,0,29.56.04,29.98.11Z"/>
    <path class="cls-1" d="M1191.45,415.48c7.11,15.42,13.73,29.05,19.86,40.88,7.4,14.16,13.15,25.92,17.27,35.29,4.12,9.37,8.93,18.63,14.42,27.78,14.58-24.15,31.48-58.81,50.72-103.95l42.01.11c1.48.22,2.22.87,2.22,1.95s-.84,1.7-2.53,1.85c-7.46.63-12.44,2.13-14.93,4.48-2.5,2.36-4.05,6.32-4.64,11.88-.6,5.56-1.18,15.9-1.74,31.03-.56,15.13-.84,27.73-.84,37.79,0,19.36.14,30.63.42,33.83.28,3.2,1.48,5.76,3.59,7.65,2.11,1.9,6.23,3.27,12.35,4.12,1.76.28,2.64.95,2.64,2s-1.09,1.59-3.27,1.59l-41.06-.11h-10.77c-2.39,0-3.59-.56-3.59-1.69,0-.99.81-1.59,2.43-1.79,5.91-.78,9.83-1.87,11.77-3.28,1.93-1.41,3.38-3.92,4.33-7.55.95-3.63,1.42-12.66,1.42-27.1l2-50.71,1.06-25.04c0-1.9-.28-2.85-.85-2.85-.85,0-1.55.56-2.11,1.69l-20.92,41.31c-13.38,26.41-21.59,43.31-24.62,50.71l-6.55,15.95c-2.04,4.86-3.28,7.52-3.7,7.98-.42.46-.92.69-1.48.69-.85,0-1.55-.92-2.11-2.75-1.27-4.37-7.78-18.24-19.54-41.62-6.13-13.17-13.47-28.21-22.03-45.11-8.56-16.9-13.19-25.72-13.89-26.46-.7-.74-1.23-1.11-1.58-1.11-.71,0-1.06.88-1.06,2.64l-1.16,63.96-.32,21.11c0,11.19,1.53,18.51,4.59,21.96,3.06,3.45,7.44,5.17,13.14,5.17,3.66,0,5.49.78,5.49,2.32,0,1.13-.88,1.69-2.64,1.69l-2.21-.11-6.86.11-14.88-.11c-6.48,0-14.81.35-25.02,1.06-.84-.56-1.27-1.13-1.27-1.69,0-1.41,1.23-2.15,3.69-2.22,7.04-.21,12.21-2.53,15.52-6.97,3.31-4.44,4.96-14.37,4.96-29.79l-.21-18.59,1.48-47.12c0-10.99-1.62-18.5-4.85-22.55-3.24-4.05-7.99-6.46-14.25-7.24-2.68-.34-4.01-1.06-4.01-2.16,0-1.24.99-1.85,2.96-1.85,1.06,0,2.32.04,3.8.11l37.38.85Z"/>
    <path class="cls-1" d="M1425.49,478.98c13.09,3.45,22.89,8.28,29.4,14.48,6.51,6.2,9.76,13.73,9.76,22.6,0,9.51-4.05,18.28-12.14,26.31-8.09,8.1-19.99,12.15-35.68,12.15-2.95,0-7.67-.18-14.14-.53-4.15-.21-6.4-.32-6.76-.32-21.68,0-36.31.21-43.91.63-2.53,0-3.8-.67-3.8-2,0-.7.37-1.2,1.11-1.48.74-.28,3.46-.85,8.18-1.69,2.81-.49,5.03-1.69,6.65-3.59s2.85-5.77,3.7-11.61c.85-5.84,1.27-14.53,1.27-26.07s.14-20.6.42-27.6c.28-7,.42-12.37.42-16.1,0-11.61-.44-20.94-1.32-27.98-.88-7.04-2.13-11.52-3.75-13.46-1.62-1.93-4.92-3.29-9.92-4.06-2.04-.28-3.06-1.02-3.06-2.22,0-1.27,1.02-1.9,3.06-1.9l19.21.32c6.26,0,12.14-.14,17.63-.42,12.31-.63,20.27-.95,23.86-.95,13.02,0,23.36,2.85,31.03,8.54,7.6,5.7,11.4,13.47,11.4,23.31,0,7.74-2.5,14.38-7.5,19.94-5,5.56-13.37,10.12-25.12,13.71ZM1389.29,483.88c-.99,1.76-1.48,4.82-1.48,9.18l-.74,32.72c0,11.54.3,17.98.9,19.32.6,1.34,2.64,2.46,6.12,3.38,3.48.91,8.99,1.37,16.52,1.37,6.69,0,12.12-.93,16.31-2.8,4.19-1.86,8.04-5.54,11.56-11.03,3.52-5.49,5.28-12.07,5.28-19.74,0-11.4-3.36-19.77-10.08-25.12-6.72-5.35-16.66-8.02-29.82-8.02-4.44,0-9.29.25-14.57.74ZM1389.29,420.97c-.63,15.41-.95,27.91-.95,37.48l.11,15.62c0,2.11.3,3.45.9,4.01.6.56,2.23.84,4.91.84,13.37,0,24.1-2.45,32.19-7.34,8.09-4.89,12.14-13.1,12.14-24.65,0-9.78-3.01-17.08-9.02-21.9-6.02-4.82-13.49-7.23-22.43-7.23-5.21,0-11.16,1.06-17.84,3.17Z"/>
    <path class="cls-1" d="M1587.17,416.75c2.04,7.88,4.05,18.93,6.02,33.15-.34.56-.72.84-1.13.84-.48,0-1-.28-1.56-.84-4.86-7.81-9.51-13.76-13.94-17.84-4.44-4.08-8.89-6.98-13.36-8.71-4.47-1.72-12.17-2.59-23.08-2.59-10.28,0-18.41.6-24.4,1.79-.56.7-.85,2-.85,3.9,0,.49-.07,1.37-.21,2.63-.71,5.62-1.06,20.87-1.06,45.73,0,1.06.07,2.53.21,4.42,5.35.21,9.01.32,10.99.32,8.87,0,15.3-1.32,19.28-3.97,3.98-2.65,7.44-8.36,10.4-17.13.49-1.48,1.18-2.22,2.1-2.22,1.32,0,1.99,1.02,1.99,3.07l-.42,4.23c-.57,5.57-.85,11.32-.85,17.24,0,9.59.18,18.23.53,25.91,0,2.4-.65,3.6-1.94,3.6-.95,0-1.6-.85-1.93-2.53-1.49-8.3-4.59-14.28-9.32-17.94-4.73-3.66-15-5.49-30.82-5.49-.21,5.14-.32,13.44-.32,24.91,0,14.85.53,24.28,1.59,28.29,1.06,4.01,3.59,7.2,7.61,9.55,4.01,2.36,10.81,3.54,20.39,3.54,27.39,0,45.07-9.43,53.02-28.29.97-2.32,1.99-3.48,3.03-3.48,1.11,0,1.67.78,1.67,2.32,0,.85-.18,1.76-.53,2.75-.42,1.33-1.44,6.33-3.06,14.99-.35,1.83-1.69,7.32-4.01,16.46l-44.23-.1c-6.33,0-15.64-.26-27.92-.79-12.28-.53-23.15-.81-32.62-.84-9.47-.04-14.41-.23-14.83-.58-.42-.35-.63-.74-.63-1.16,0-1.41,1.16-2.11,3.48-2.11,7.81,0,12.95-2.07,15.41-6.22,2.46-4.15,3.7-14.24,3.7-30.27l-.11-21.62.32-20.25c0-4.08-.23-11.8-.68-23.15-.46-11.36-.88-17.84-1.27-19.46-.39-1.62-1.48-3.22-3.27-4.8-1.79-1.58-5.75-3.18-11.88-4.8-1.83-.49-2.74-1.27-2.74-2.32,0-1.27,1.23-1.9,3.69-1.9l21.54,1.16c7.6.35,26.28.53,56.05.53,19.57,0,29.56.04,29.98.11Z"/>
    <path class="cls-1" d="M1692.34,482.88c9.77,4.23,16.57,8.66,20.39,13.28,3.82,4.62,6.64,11.75,8.45,21.4,2.37,12.67,5.66,21.18,9.86,25.54,4.21,4.36,9.71,6.69,16.51,6.97,1.89.14,2.84.82,2.84,2.06s-1.09,1.85-3.27,1.85c-19.7,0-31.65-.65-35.84-1.95-4.19-1.3-7.3-8.5-9.34-21.59-1.9-12.74-3.89-22.04-5.96-27.92-2.08-5.87-5.38-10.38-9.92-13.51-4.54-3.13-11.63-4.7-21.27-4.7-3.66,0-7.81.39-12.46,1.16-.35,4.43-.53,9.03-.53,13.81,0,18.06.25,29.74.74,35.04.49,5.3,1.99,9.17,4.49,11.59,2.5,2.42,6.67,3.71,12.51,3.85,2.53.07,3.8.69,3.8,1.84,0,1.38-1.55,2.06-4.64,2.06h-52.25c-3.03,0-4.54-.69-4.54-2.06,0-1.23,1.2-1.84,3.59-1.84,5.35,0,9.06-.81,11.14-2.43,2.07-1.61,3.71-4.13,4.91-7.54,1.2-3.41,1.79-9.58,1.79-18.51l-.21-21.52.11-32.8c0-16.73-.37-27.81-1.11-33.22-.74-5.41-2.06-9.05-3.96-10.92-1.9-1.86-6.3-3.32-13.2-4.38-1.48-.21-2.22-.81-2.22-1.79,0-1.13,1.48-1.69,4.44-1.69l62.49-1.37c17.24,0,29.75,3.31,37.53,9.91,7.77,6.61,11.67,14.7,11.67,24.26,0,6.05-1.57,11.57-4.7,16.56-3.13,4.99-6.84,8.61-11.14,10.86-4.29,2.25-11.19,4.82-20.69,7.7ZM1652.34,480.19c13.51-.28,23.64-1.23,30.4-2.85,6.76-1.62,12.51-5.17,17.26-10.66,4.75-5.49,7.13-12,7.13-19.53,0-7.95-2.64-14.88-7.92-20.79-5.28-5.91-13.72-8.87-25.34-8.87-6.33,0-13.34.85-21.01,2.53-.84,19.35-1.27,34.76-1.27,46.24,0,3.94.25,8.59.74,13.93Z"/>
  </g>
  <g>
    <path class="cls-1" d="M825.1,586.61c4.17,3.55,6.25,8.58,6.25,15.1s-2.09,11.97-6.25,15.67c-4.17,3.7-10.07,5.55-17.69,5.55h-16.64v19.9h-6.08v-61.53h22.71c7.63,0,13.53,1.78,17.69,5.33ZM820.74,613.46c3.2-2.67,4.8-6.53,4.8-11.58s-1.59-8.69-4.76-11.27c-3.17-2.58-7.72-3.87-13.64-3.87h-16.37v30.72h16.37c5.87,0,10.4-1.33,13.6-4Z"/>
    <path class="cls-1" d="M919.29,642.81l-13.29-20.07c-1.88.12-3.32.18-4.31.18h-16.9v19.9h-6.08v-61.53h22.98c7.69,0,13.63,1.78,17.83,5.33,4.2,3.55,6.3,8.58,6.3,15.1,0,5.11-1.23,9.36-3.7,12.77-2.46,3.41-5.98,5.78-10.56,7.13l14.79,21.22h-7.04ZM901.69,617.46c5.87,0,10.39-1.33,13.56-4,3.17-2.67,4.76-6.53,4.76-11.58s-1.59-8.69-4.76-11.27c-3.17-2.58-7.69-3.87-13.56-3.87h-16.9v30.72h16.9Z"/>
    <path class="cls-1" d="M1019.87,584.93c4.9,2.79,8.79,6.56,11.67,11.31,2.87,4.76,4.31,9.98,4.31,15.67s-1.44,10.94-4.31,15.76c-2.88,4.81-6.77,8.63-11.67,11.44-4.9,2.82-10.29,4.23-16.15,4.23s-11.26-1.41-16.16-4.23c-4.9-2.82-8.79-6.63-11.67-11.44-2.88-4.81-4.31-10.07-4.31-15.76s1.44-10.92,4.31-15.67c2.88-4.76,6.76-8.52,11.67-11.31,4.9-2.79,10.29-4.18,16.16-4.18s11.25,1.39,16.15,4.18ZM990.78,589.64c-3.99,2.29-7.16,5.4-9.51,9.33-2.35,3.93-3.52,8.25-3.52,12.94s1.17,9.04,3.52,13.03c2.35,3.99,5.52,7.15,9.51,9.46,3.99,2.32,8.33,3.48,13.03,3.48s8.94-1.16,12.9-3.48c3.96-2.32,7.12-5.47,9.47-9.46,2.35-3.99,3.52-8.33,3.52-13.03s-1.17-9.01-3.52-12.94c-2.35-3.93-5.5-7.04-9.47-9.33-3.96-2.29-8.26-3.43-12.9-3.43s-9.04,1.14-13.03,3.43Z"/>
    <path class="cls-1" d="M1124.85,586.61c4.17,3.55,6.25,8.58,6.25,15.1s-2.09,11.97-6.25,15.67c-4.17,3.7-10.07,5.55-17.69,5.55h-16.64v19.9h-6.08v-61.53h22.71c7.63,0,13.53,1.78,17.69,5.33ZM1120.5,613.46c3.2-2.67,4.8-6.53,4.8-11.58s-1.59-8.69-4.76-11.27c-3.17-2.58-7.72-3.87-13.64-3.87h-16.37v30.72h16.37c5.87,0,10.4-1.33,13.6-4Z"/>
    <path class="cls-1" d="M1178.47,581.28h41.2v5.46h-35.13v22.01h31.43v5.46h-31.43v23.15h36.27v5.46h-42.34v-61.53Z"/>
    <path class="cls-1" d="M1311.48,642.81l-13.29-20.07c-1.88.12-3.32.18-4.31.18h-16.9v19.9h-6.08v-61.53h22.98c7.69,0,13.63,1.78,17.83,5.33,4.2,3.55,6.3,8.58,6.3,15.1,0,5.11-1.23,9.36-3.7,12.77-2.46,3.41-5.98,5.78-10.56,7.13l14.79,21.22h-7.04ZM1293.88,617.46c5.87,0,10.39-1.33,13.56-4,3.17-2.67,4.76-6.53,4.76-11.58s-1.59-8.69-4.76-11.27c-3.17-2.58-7.69-3.87-13.56-3.87h-16.9v30.72h16.9Z"/>
    <path class="cls-1" d="M1361.05,581.19h46.75v5.55h-20.33v56.08h-6.08v-56.08h-20.34v-5.55Z"/>
    <path class="cls-1" d="M1498.2,581.28l-23.68,39.62v21.92h-6.07v-21.92l-24.03-39.62h6.34l20.78,33.1,20.34-33.1h6.34Z"/>
  </g>
  <g>
    <path class="cls-2" d="M237.5,718.12v-223.7c0-22.69,11.33-44.1,30.54-56.19.59-.37,1.18-.73,1.77-1.08v-20.91c-1.43.53-2.84,1.09-4.23,1.68h0c-41.79,17.72-70.15,58.36-70.25,105.79v194.41c0,14.21-11.52,25.74-25.73,25.74h93.64c-14.21,0-25.73-11.52-25.73-25.74Z"/>
    <path class="cls-2" d="M444.43,564.1v-30.3c46.86-47.55,38.09-136.72-23.32-169.84-24.76-16.56-61.06-15.18-89.97-14.72v296.17c0,14.2,11.54,25.74,25.74,25.74h-93.66c14.25,0,25.74-11.54,25.74-25.74v-283.47c.06-12.58-9.46-23.31-21.87-24.93,41.21,2.14,139.31-8.48,172.61,12.23,89.45,42.07,86.57,171.69,4.73,214.86Z"/>
    <path class="cls-2" d="M424.77,718.12l.73-168.92c-.06-4.89.02-9.85.05-14.73.36-51.91-24.91-99.98-75.27-118.24v20.91c.61.36,1.2.73,1.79,1.1,19.2,12.1,30.53,33.49,30.53,56.18v223.7c0,14.21-11.52,25.74-25.74,25.74h93.64c-14.21,0-25.74-11.52-25.74-25.74Z"/>
  </g>
</svg>