<svg version="1.1" id="Layer_1" xmlns="http://www.w3.org/2000/svg" xmlns:xlink="http://www.w3.org/1999/xlink" x="0px" y="0px"
	 width="100%" viewBox="0 0 1803 753" enable-background="new 0 0 1803 753" xml:space="preserve">
<path fill="#FFFFFF" opacity="1.000000" stroke="none" 
	d="
M1337.000000,754.000000 
	C891.333313,754.000000 446.166656,754.000000 1.000000,754.000000 
	C1.000000,503.000000 1.000000,252.000000 1.000000,1.000000 
	C602.000000,1.000000 1203.000000,1.000000 1804.000000,1.000000 
	C1804.000000,252.000000 1804.000000,503.000000 1804.000000,754.000000 
	C1648.500000,754.000000 1493.000000,754.000000 1337.000000,754.000000 
M1357.000000,383.500000 
	C1357.000000,369.408264 1357.000000,355.316528 1357.000000,340.735016 
	C1490.069336,340.735016 1622.462036,340.735016 1754.749634,340.735016 
	C1754.749634,319.292297 1754.749634,298.350922 1754.749634,276.911591 
	C1622.107666,276.911591 1489.714966,276.911591 1357.338867,276.911591 
	C1357.338867,241.017654 1357.338867,205.625290 1357.338867,169.734680 
	C1494.069702,169.734680 1630.462280,169.734680 1766.749512,169.734680 
	C1766.749512,146.958664 1766.749512,124.683922 1766.749512,102.294579 
	C1601.440430,102.294579 1436.381836,102.294579 1271.338623,102.294579 
	C1271.338623,243.647980 1271.338623,384.706543 1271.338623,525.617249 
	C1439.736206,525.617249 1607.794800,525.617249 1775.749756,525.617249 
	C1775.749756,500.959106 1775.749756,476.684418 1775.749756,451.911652 
	C1636.107788,451.911652 1496.715088,451.911652 1357.000000,451.911652 
	C1357.000000,429.108337 1357.000000,406.804169 1357.000000,383.500000 
M308.500000,90.000000 
	C289.237061,90.333145 269.955841,90.260315 250.716949,91.127014 
	C235.137985,91.828850 219.529724,93.066330 204.080811,95.150948 
	C186.998459,97.455978 169.960251,100.435852 153.121109,104.119667 
	C122.364853,110.848045 93.336990,122.009987 67.898102,141.068481 
	C51.813923,153.118546 40.068596,168.568832 32.959591,187.513306 
	C27.863501,201.093643 27.766548,215.157043 27.959671,229.341461 
	C28.154121,243.623489 31.588724,257.146301 37.559723,269.954315 
	C44.241020,284.285950 54.148426,296.211365 66.554276,306.053314 
	C77.611984,314.825714 89.811241,321.593170 102.796867,327.034393 
	C122.096245,335.121185 142.085007,340.682556 162.885834,343.002472 
	C179.836945,344.893005 196.805847,347.030975 213.823578,347.793671 
	C228.542755,348.453369 243.343124,347.384674 258.104828,346.979065 
	C265.871948,346.765656 273.633026,346.333038 281.397034,346.004913 
	C297.257965,345.334656 313.114777,344.287750 328.981293,344.109161 
	C344.239075,343.937439 359.543488,344.130859 374.758942,345.168060 
	C386.942322,345.998566 399.207062,347.518707 411.104248,350.202240 
	C427.168610,353.825714 442.401947,359.995148 452.481140,374.093567 
	C462.787750,388.510040 464.522461,404.438110 457.583954,420.660400 
	C449.615234,439.291290 433.116547,448.551300 415.557739,455.898956 
	C398.836731,462.895996 381.254944,467.077911 363.230774,468.984924 
	C345.113617,470.901764 326.968750,473.328766 308.795502,473.739746 
	C288.294098,474.203369 267.737061,472.886383 247.225143,471.906067 
	C237.415848,471.437195 227.521057,470.648956 217.900787,468.787018 
	C199.753815,465.274811 181.710159,461.182892 164.515945,454.032288 
	C139.403473,443.588654 117.382065,429.498566 104.081764,404.601868 
	C103.493340,403.500427 101.018997,402.477692 99.772484,402.794220 
	C76.659866,408.663025 53.601288,414.744598 30.528826,420.771759 
	C27.318439,421.610382 24.094830,422.398407 20.572506,423.286743 
	C21.595804,426.146606 22.163673,428.362610 23.144567,430.377533 
	C32.777359,450.164581 46.300808,466.789917 63.241539,480.871887 
	C82.437859,496.828857 104.260162,507.794373 127.534798,516.172180 
	C149.924423,524.231445 172.848618,530.216370 196.525589,533.006531 
	C214.252960,535.095520 231.959778,537.644043 249.752914,538.801697 
	C264.550934,539.764404 279.462494,538.880127 294.321625,539.027893 
	C318.135223,539.264648 341.864105,538.245605 365.479950,535.017212 
	C376.008789,533.577881 386.677765,532.888000 397.073700,530.810181 
	C417.599976,526.707642 437.935181,521.779236 457.498688,514.039856 
	C484.338745,503.421906 508.540863,489.150360 527.148438,466.437195 
	C543.293335,446.730072 551.040039,423.919281 551.772217,398.873779 
	C552.110596,387.299042 550.846497,375.504517 548.831909,364.069885 
	C544.628601,340.212097 532.438416,321.000793 512.541870,306.883606 
	C495.668243,294.911224 476.722107,288.228058 456.656769,283.697540 
	C435.597534,278.942627 414.313354,276.388458 392.859009,276.162506 
	C363.102478,275.849091 333.333282,276.614136 303.571136,277.031982 
	C294.804352,277.155090 286.044617,277.718933 277.278778,277.985931 
	C264.683228,278.369537 252.086212,278.845795 239.487457,278.930908 
	C232.226181,278.979950 224.947220,278.509796 217.699371,277.965149 
	C206.404465,277.116302 195.077515,276.396637 183.858063,274.912231 
	C167.742859,272.780060 152.629654,267.872314 139.187988,258.124023 
	C123.624702,246.837067 115.958908,224.924438 121.722076,206.659637 
	C126.647484,191.049881 138.338211,181.887878 152.126770,175.064163 
	C171.717941,165.368896 192.789032,160.487839 214.380081,158.082870 
	C232.981476,156.010880 251.641785,153.681915 270.316437,153.262131 
	C291.317535,152.790039 312.390289,153.894897 333.380432,155.164139 
	C345.403992,155.891174 357.392151,157.931503 369.279175,160.040573 
	C396.487091,164.867996 422.701385,172.658035 446.274719,187.697754 
	C458.809479,195.694916 469.255707,205.535278 474.902771,220.537918 
	C480.216888,218.683105 485.539520,216.825089 490.862274,214.967499 
	C509.999512,208.288773 529.140747,201.621597 548.268860,194.916748 
	C550.566711,194.111282 551.655396,192.785263 550.611816,190.054245 
	C543.239258,170.759628 530.522034,155.483261 514.336548,143.181702 
	C493.008575,126.971741 468.869446,116.393494 443.297394,108.544441 
	C411.289124,98.719872 378.440063,94.047935 345.280884,91.116158 
	C333.413788,90.066925 321.430328,90.333809 308.500000,90.000000 
M632.063721,205.741226 
	C630.039185,211.038132 627.855591,216.280518 626.018005,221.641479 
	C618.464783,243.677048 614.177917,266.503906 613.260132,289.626831 
	C612.159607,317.353302 611.821777,345.240814 617.097351,372.717285 
	C621.744568,396.920959 628.949890,420.234192 641.823853,441.582855 
	C652.057312,458.552856 664.772156,473.356110 680.253235,485.491608 
	C698.808228,500.036713 719.727539,510.430573 742.064270,518.118530 
	C769.303040,527.493713 797.407959,532.754883 825.896240,535.827026 
	C843.419128,537.716675 861.105896,538.260681 878.737427,538.910583 
	C891.244629,539.371643 903.794739,539.354370 916.303772,538.919006 
	C936.265564,538.224182 956.260559,537.585388 976.144226,535.824341 
	C992.370850,534.387085 1008.504089,531.635864 1024.590942,528.942627 
	C1047.923584,525.036255 1070.383911,517.929626 1091.623169,507.594574 
	C1113.697388,496.853241 1133.510498,482.972809 1149.717529,464.033112 
	C1161.001953,450.846100 1169.794434,436.317749 1176.639648,420.600494 
	C1188.364136,393.680145 1193.465210,365.073090 1194.755127,336.011078 
	C1195.874512,310.789307 1195.518921,285.498779 1191.153809,260.377655 
	C1187.118896,237.156265 1180.628174,214.951492 1169.609863,194.028381 
	C1159.505371,174.840515 1146.045776,158.446365 1129.269531,144.943405 
	C1110.359741,129.723206 1089.046143,118.653374 1066.009033,110.958397 
	C1048.732056,105.187386 1031.237183,100.269669 1013.113525,97.962105 
	C997.059875,95.918114 981.003235,93.888161 964.925293,92.049507 
	C959.199524,91.394699 953.410461,91.250610 947.644897,90.993988 
	C931.956787,90.295731 916.269836,89.511368 900.573669,89.081490 
	C894.825012,88.924049 889.054077,89.717995 883.289124,89.987854 
	C875.196411,90.366669 867.082642,90.434044 859.008423,91.040688 
	C843.450439,92.209618 827.861938,93.239288 812.384521,95.131493 
	C799.799744,96.670082 787.269470,98.974236 774.875061,101.673828 
	C756.783813,105.614204 739.254211,111.321739 722.222778,118.802025 
	C703.984253,126.812454 687.260010,137.042770 672.425781,150.198654 
	C655.145142,165.524094 642.164978,184.146988 632.063721,205.741226 
M1669.975098,685.254456 
	C1674.241089,675.517822 1675.584839,665.329346 1675.041382,654.761353 
	C1674.559326,645.389099 1672.269775,636.585999 1667.096558,628.761902 
	C1665.393921,626.186951 1665.309570,624.615967 1667.190674,622.180298 
	C1670.323975,618.122986 1672.994995,613.708618 1676.013062,609.217896 
	C1668.747681,608.671143 1662.069092,607.614563 1658.716675,615.552490 
	C1658.433472,616.223328 1655.355835,616.566528 1654.269287,615.911926 
	C1644.880371,610.255676 1634.536011,610.478943 1624.283203,611.114502 
	C1615.760864,611.642944 1608.407471,615.917542 1602.763062,621.985229 
	C1595.535767,629.754456 1591.296021,639.127380 1589.823853,649.974609 
	C1587.787354,664.980469 1589.378296,678.998230 1597.405273,692.082275 
	C1598.029419,693.099670 1597.801392,695.270386 1597.109009,696.356384 
	C1594.021240,701.198853 1590.620361,705.841797 1587.394653,710.468201 
	C1596.295044,713.295227 1602.306030,709.613586 1606.162231,701.763062 
	C1618.021362,710.383423 1630.726440,710.327454 1643.602783,707.932739 
	C1656.292114,705.572754 1663.866333,696.744934 1669.975098,685.254456 
M1368.041992,697.465942 
	C1369.493042,700.645813 1370.944092,703.825623 1372.248291,706.683533 
	C1377.406982,706.683533 1382.129517,706.683533 1387.362793,706.683533 
	C1380.536011,691.976440 1373.923096,677.730225 1367.764282,664.462097 
	C1372.267212,661.312256 1377.571411,659.031616 1380.780518,655.058594 
	C1387.396973,646.866577 1388.192383,637.352295 1383.259399,627.753479 
	C1378.074219,617.664307 1369.548096,613.050110 1358.399780,613.011597 
	C1344.402344,612.963257 1330.404541,612.993164 1316.406982,613.010315 
	C1314.979004,613.012085 1313.551392,613.157898 1312.318848,613.226013 
	C1312.318848,644.714233 1312.318848,675.784546 1312.318848,706.676575 
	C1316.715698,706.676575 1320.788940,706.676575 1325.249756,706.676575 
	C1325.249756,692.947754 1325.249756,679.539429 1325.249756,666.101135 
	C1334.961548,666.101135 1344.273193,666.101135 1353.363892,666.101135 
	C1358.286133,676.408264 1363.128052,686.547241 1368.041992,697.465942 
M1707.000000,683.501221 
	C1707.000000,677.738953 1707.000000,671.976746 1707.000000,666.000000 
	C1715.371704,666.000000 1723.202759,666.378418 1730.972168,665.849854 
	C1735.234497,665.559814 1736.599854,667.708191 1737.980713,670.794434 
	C1743.398682,682.903503 1748.879883,694.984253 1754.148560,706.656860 
	C1759.455444,706.656860 1764.163818,706.656860 1769.352661,706.656860 
	C1762.520752,691.941284 1755.908936,677.699585 1749.298218,663.460266 
	C1766.653931,659.097229 1770.968140,643.350952 1766.837891,631.246399 
	C1763.052979,620.153992 1754.544189,613.391724 1741.410156,613.054382 
	C1730.924316,612.785095 1720.426270,613.000000 1709.933594,613.000000 
	C1704.677002,613.000000 1699.420532,613.000000 1694.288330,613.000000 
	C1694.288330,644.675720 1694.288330,675.733887 1694.288330,706.709961 
	C1698.654053,706.709961 1702.725830,706.709961 1707.000000,706.709961 
	C1707.000000,699.114441 1707.000000,691.807556 1707.000000,683.501221 
M331.998993,667.058899 
	C338.111664,680.317871 344.224335,693.576843 350.329559,706.819702 
	C355.194183,706.819702 359.977142,706.819702 365.271393,706.819702 
	C361.938171,699.342896 358.838104,692.167114 355.551361,685.078003 
	C352.177551,677.801025 348.621307,670.608704 345.650452,664.430603 
	C350.122314,661.486328 355.463501,659.553040 358.406555,655.759338 
	C371.517120,638.859558 361.468048,615.208008 340.181213,613.299072 
	C323.702148,611.821228 306.984497,613.003906 290.200378,613.003906 
	C290.200378,644.481628 290.200378,675.545532 290.200378,706.798584 
	C294.471252,706.798584 298.541412,706.798584 303.006714,706.798584 
	C303.006714,693.197693 303.006714,679.790527 303.006714,666.235229 
	C312.841919,666.235229 322.283447,666.235229 331.998993,667.058899 
M681.448120,709.000000 
	C698.130188,709.628357 709.281616,701.223389 716.977112,687.211853 
	C723.480042,675.371765 723.996887,662.409241 722.783997,649.539795 
	C721.905518,640.219910 718.155212,631.511719 711.769287,624.270325 
	C702.811951,614.113037 691.574524,610.480652 678.110901,610.808044 
	C664.041992,611.150208 653.618591,616.883240 645.989319,628.293152 
	C637.317444,641.262268 635.841797,655.468018 637.864441,670.697632 
	C640.612366,691.388428 656.158752,711.258911 681.448120,709.000000 
M462.998383,668.117188 
	C462.513641,659.749084 463.237000,651.089050 461.299896,643.071838 
	C456.875977,624.762085 442.150513,609.666870 418.229889,610.735413 
	C401.750610,611.471497 390.547791,618.978210 383.224976,632.683105 
	C376.943481,644.439026 375.766357,657.217102 377.830505,670.552612 
	C379.365265,680.467896 382.899261,689.235413 389.309357,696.679382 
	C397.939392,706.701355 409.318329,709.593811 422.306366,709.152771 
	C436.127533,708.683411 447.096466,703.532288 453.852722,691.574097 
	C457.805725,684.577515 459.993652,676.583679 462.998383,668.117188 
M1117.974365,703.716370 
	C1111.759155,690.315552 1105.543945,676.914795 1099.330933,663.518738 
	C1117.514648,658.220215 1120.737549,643.114258 1116.824951,631.292114 
	C1113.124634,620.112000 1104.489990,613.401855 1091.438477,613.054199 
	C1081.281982,612.783630 1071.112549,613.000000 1060.948853,613.000000 
	C1055.355591,613.000000 1049.762329,613.000000 1044.298828,613.000000 
	C1044.298828,644.678711 1044.298828,675.745972 1044.298828,706.697632 
	C1048.675781,706.697632 1052.748535,706.697632 1057.206665,706.697632 
	C1057.206665,692.991638 1057.206665,679.584534 1057.206665,666.094421 
	C1066.909668,666.094421 1076.214722,666.094421 1085.511963,666.094421 
	C1091.855957,679.805176 1098.164551,693.439575 1104.438477,706.999207 
	C1108.816162,706.999207 1112.812012,706.981873 1116.807739,707.006165 
	C1118.930298,707.019104 1119.808594,706.467041 1117.974365,703.716370 
M922.501831,673.001099 
	C909.899597,653.743408 897.321350,634.469849 884.631165,615.270264 
	C883.924805,614.201599 882.322266,613.166077 881.087463,613.104248 
	C876.160278,612.857605 871.213440,613.002502 866.228394,613.002502 
	C866.228394,644.559814 866.228394,675.615723 866.228394,706.772583 
	C869.862915,706.772583 873.265442,706.772583 877.036560,706.772583 
	C877.036560,680.858154 877.036560,655.168152 877.036560,629.478149 
	C880.583435,633.051941 883.005066,637.118835 885.592773,641.077209 
	C898.893860,661.423584 912.204651,681.763855 925.620178,702.034729 
	C926.883057,703.942932 928.701111,706.417480 930.606689,706.771729 
	C934.561340,707.506836 938.748047,706.993713 942.716919,706.993713 
	C942.716919,675.325867 942.716919,644.268860 942.716919,613.284912 
	C939.022156,613.284912 935.616699,613.284912 931.375244,613.284912 
	C931.375244,637.263489 931.375244,660.962585 931.375244,684.661682 
	C930.972839,684.729858 930.570435,684.798035 930.168030,684.866272 
	C927.766846,681.108521 925.365662,677.350769 922.501831,673.001099 
M1493.000000,626.507874 
	C1493.000000,653.267029 1493.000000,680.026184 1493.000000,706.715210 
	C1496.975098,706.715210 1500.381714,706.715210 1504.353271,706.715210 
	C1504.353271,680.974182 1504.353271,655.515015 1504.353271,628.958069 
	C1505.765625,630.548340 1506.470215,631.167297 1506.964722,631.923645 
	C1522.655273,655.923889 1538.303101,679.952026 1554.057983,703.909912 
	C1554.925415,705.229187 1556.578735,706.710754 1557.997314,706.858398 
	C1561.891602,707.263794 1565.855591,706.998291 1569.726074,706.998291 
	C1569.726074,675.368835 1569.726074,644.300415 1569.726074,613.277161 
	C1566.039917,613.277161 1562.633667,613.277161 1558.663086,613.277161 
	C1558.663086,637.346924 1558.663086,661.143433 1558.663086,686.023132 
	C1557.246704,684.456970 1556.533936,683.847839 1556.038940,683.095215 
	C1541.345337,660.747681 1526.697021,638.370239 1511.937500,616.066467 
	C1511.066895,614.750854 1509.384155,613.242371 1507.983276,613.140137 
	C1503.078125,612.782288 1498.130981,613.001465 1493.000000,613.001465 
	C1493.000000,617.555359 1493.000000,621.533203 1493.000000,626.507874 
M185.999725,671.468445 
	C188.143036,683.985107 193.197388,694.639709 203.807159,702.496826 
	C214.065353,710.093689 225.658905,709.811523 237.133621,708.700928 
	C245.613129,707.880188 253.138000,703.228638 258.590515,696.661926 
	C267.829865,685.534485 271.464691,672.453003 271.137726,657.885620 
	C270.814972,643.507385 266.639069,631.537476 256.029053,621.198120 
	C244.920731,610.373108 231.693268,609.461731 218.222458,611.586243 
	C202.719925,614.031250 193.511093,625.017456 188.346313,639.321228 
	C184.688690,649.450989 183.712265,659.920105 185.999725,671.468445 
M543.962585,662.442139 
	C540.601501,660.618286 537.432861,658.114685 533.843201,657.098328 
	C523.194580,654.083374 512.387268,651.624756 501.627686,649.007385 
	C494.831848,647.354248 489.606232,642.516479 489.001404,637.165161 
	C488.395355,631.802795 491.378754,626.838257 498.797638,624.269897 
	C504.027740,622.459290 509.971619,622.061157 515.580688,622.142578 
	C524.616028,622.273743 532.778687,629.135132 535.692871,638.409546 
	C540.087036,637.370178 544.527039,636.320007 550.663147,634.868652 
	C545.440002,628.536316 541.634216,622.645203 536.605652,618.109741 
	C527.951843,610.304260 516.882507,610.859253 506.037659,610.919312 
	C498.652924,610.960205 492.125793,613.066467 486.010834,616.989014 
	C473.947266,624.727539 471.918091,640.719238 480.107086,651.858887 
	C484.566101,657.924622 490.788239,660.005554 497.140808,661.855530 
	C506.836914,664.679260 516.846802,666.412903 526.586121,669.105896 
	C531.932495,670.584106 536.065918,674.045349 536.970032,680.017639 
	C537.993652,686.780151 534.872253,691.499146 529.278748,694.986450 
	C523.482483,698.600281 517.075195,697.964111 510.724213,698.014954 
	C498.813446,698.110291 489.776459,693.437561 484.120117,682.633606 
	C483.475739,681.402771 481.461517,680.067444 480.174286,680.153564 
	C476.737823,680.383545 473.351440,681.361572 469.731781,682.084900 
	C473.526184,691.241699 478.077637,699.060669 486.770966,703.231934 
	C503.638611,711.325439 520.798035,712.041443 537.895142,703.972900 
	C553.021667,696.834167 557.568481,674.230347 543.962585,662.442139 
M85.385284,692.964294 
	C78.727821,698.139709 70.981117,698.229736 63.046715,698.054871 
	C51.535557,697.801208 42.796207,693.283203 37.277916,682.898132 
	C36.598068,681.618713 34.714012,680.088806 33.478275,680.163757 
	C29.920404,680.379578 26.408794,681.357910 22.855143,682.041321 
	C27.816067,695.762085 36.780903,704.364197 50.129559,707.432129 
	C56.601009,708.919373 63.506523,708.483215 70.207962,709.013428 
	C78.466537,709.666931 85.907753,707.193909 92.808258,702.989624 
	C106.234184,694.809814 109.572861,674.636536 98.383469,663.806274 
	C91.094589,656.751465 81.675659,655.283264 72.486252,652.970764 
	C64.719574,651.016235 56.900005,649.152100 49.329273,646.583435 
	C44.781174,645.040405 41.881847,641.268677 42.047997,636.104614 
	C42.207024,631.161987 44.912682,627.799194 49.163105,625.289734 
	C54.664463,622.041870 60.568623,621.860107 66.663376,621.966003 
	C76.759781,622.141541 85.405922,628.294128 88.734222,638.293823 
	C92.744080,637.435364 96.809319,636.565063 100.848511,635.700317 
	C100.662582,630.190430 95.614235,621.396790 90.377045,618.122986 
	C75.006630,608.514771 58.762527,608.094727 42.499313,615.078857 
	C32.707165,619.283997 27.341406,627.552124 28.146214,638.390259 
	C28.870819,648.148254 33.529388,656.951965 45.527843,660.110962 
	C54.686741,662.522278 64.034508,664.300781 73.044739,667.159790 
	C78.244179,668.809631 84.151268,670.971497 87.570984,674.826843 
	C92.354408,680.219482 90.780579,686.955505 85.385284,692.964294 
M1445.498779,663.000000 
	C1451.268311,663.000000 1457.037720,663.000000 1462.713867,663.000000 
	C1462.713867,659.690308 1462.713867,656.951355 1462.713867,653.827393 
	C1449.024414,653.827393 1435.617188,653.827393 1422.288696,653.827393 
	C1422.288696,643.352417 1422.288696,633.280945 1422.288696,622.823364 
	C1439.651245,622.823364 1456.728394,622.823364 1473.710449,622.823364 
	C1473.710449,619.349304 1473.710449,616.274414 1473.710449,613.288574 
	C1451.350830,613.288574 1429.282104,613.288574 1407.285156,613.288574 
	C1407.285156,644.644958 1407.285156,675.711914 1407.285156,706.720215 
	C1430.310669,706.720215 1453.050049,706.720215 1475.715576,706.720215 
	C1475.715576,703.359375 1475.715576,700.284729 1475.715576,696.829590 
	C1457.694946,696.829590 1439.955444,696.829590 1422.286255,696.829590 
	C1422.286255,685.357361 1422.286255,674.286194 1422.286255,663.000000 
	C1429.880493,663.000000 1437.190063,663.000000 1445.498779,663.000000 
M1153.504395,613.000000 
	C1148.737427,613.000000 1143.970337,613.000000 1139.282715,613.000000 
	C1139.282715,644.640198 1139.282715,675.707153 1139.282715,706.722412 
	C1162.305908,706.722412 1185.045166,706.722412 1207.718018,706.722412 
	C1207.718018,703.364014 1207.718018,700.289612 1207.718018,696.834106 
	C1189.699829,696.834106 1171.960205,696.834106 1154.283936,696.834106 
	C1154.283936,685.362000 1154.283936,674.290955 1154.283936,662.833130 
	C1167.976685,662.833130 1181.389771,662.833130 1194.716064,662.833130 
	C1194.716064,659.694458 1194.716064,656.955627 1194.716064,653.831543 
	C1181.028809,653.831543 1167.620850,653.831543 1154.286621,653.831543 
	C1154.286621,643.356750 1154.286621,633.285339 1154.286621,622.827515 
	C1171.646973,622.827515 1188.723999,622.827515 1205.712646,622.827515 
	C1205.712646,619.353516 1205.712646,616.278748 1205.712646,613.000000 
	C1188.451782,613.000000 1171.477539,613.000000 1153.504395,613.000000 
M839.438232,623.000000 
	C841.879211,623.000000 844.320190,623.000000 846.733215,623.000000 
	C846.733215,619.393677 846.733215,616.321655 846.733215,613.267212 
	C824.395874,613.267212 802.326355,613.267212 780.264893,613.267212 
	C780.264893,644.602722 780.264893,675.670227 780.264893,706.738953 
	C803.269897,706.738953 826.009033,706.738953 848.735596,706.738953 
	C848.735596,703.398438 848.735596,700.326416 848.735596,696.867065 
	C830.734741,696.867065 812.994324,696.867065 795.267822,696.867065 
	C795.267822,685.395325 795.267822,674.324402 795.267822,662.864075 
	C808.943665,662.864075 822.356628,662.864075 835.732361,662.864075 
	C835.732361,659.725342 835.732361,656.987183 835.732361,653.861328 
	C822.061096,653.861328 808.652283,653.861328 795.271851,653.861328 
	C795.271851,643.387085 795.271851,633.315857 795.271851,623.000000 
	C809.846802,623.000000 824.151001,623.000000 839.438232,623.000000 
M1225.000000,635.500000 
	C1225.000000,659.256165 1225.000000,683.012390 1225.000000,706.720825 
	C1229.964355,706.720825 1234.369873,706.720825 1239.159912,706.720825 
	C1239.159912,694.039734 1239.159912,681.633057 1239.159912,669.000000 
	C1248.358643,669.000000 1257.164307,669.057312 1265.968750,668.986267 
	C1278.470337,668.885376 1287.651855,664.043518 1293.578735,652.233704 
	C1300.703735,638.036682 1291.937622,619.212097 1278.347168,615.081421 
	C1274.381714,613.876160 1270.122803,613.166077 1265.982910,613.091736 
	C1252.395508,612.847534 1238.801147,613.000000 1225.000000,613.000000 
	C1225.000000,620.549683 1225.000000,627.524902 1225.000000,635.500000 
M153.000000,662.500000 
	C153.000000,649.404785 153.000000,636.309570 153.000000,622.828125 
	C163.312927,622.828125 173.060623,622.828125 182.712036,622.828125 
	C182.712036,619.352051 182.712036,616.279480 182.712036,613.281982 
	C158.017426,613.281982 133.611801,613.281982 109.286713,613.281982 
	C109.286713,616.645142 109.286713,619.719849 109.286713,623.176636 
	C119.311447,623.176636 129.055115,623.176636 139.176834,623.176636 
	C139.176834,651.312378 139.176834,679.049194 139.176834,706.711670 
	C143.981125,706.711670 148.387222,706.711670 153.000000,706.711670 
	C153.000000,692.116211 153.000000,677.808105 153.000000,662.500000 
M1012.499390,613.000000 
	C994.068481,613.000000 975.637573,613.000000 957.284912,613.000000 
	C957.284912,616.641968 957.284912,619.714417 957.284912,623.173279 
	C967.307861,623.173279 977.051575,623.173279 987.173462,623.173279 
	C987.173462,651.308838 987.173462,679.045715 987.173462,706.713318 
	C991.977844,706.713318 996.383911,706.713318 1001.173279,706.713318 
	C1001.173279,678.692688 1001.173279,650.956665 1001.173279,622.831421 
	C1011.309448,622.831421 1021.056885,622.831421 1030.713745,622.831421 
	C1030.713745,619.355774 1030.713745,616.281128 1030.713745,613.000000 
	C1024.785767,613.000000 1019.142273,613.000000 1012.499390,613.000000 
M571.000000,648.500000 
	C571.000000,667.927063 571.000000,687.354065 571.000000,706.719604 
	C591.977112,706.719604 612.383911,706.719604 632.714966,706.719604 
	C632.714966,703.358154 632.714966,700.283508 632.714966,696.827454 
	C616.692993,696.827454 600.952332,696.827454 584.827209,696.827454 
	C584.827209,668.692139 584.827209,640.954529 584.827209,613.287109 
	C580.020447,613.287109 575.613953,613.287109 571.000000,613.287109 
	C571.000000,624.881958 571.000000,636.190979 571.000000,648.500000 
z"/>
<path fill="#FF5E14" opacity="1.000000" stroke="none" 
	d="
M1357.000000,384.000000 
	C1357.000000,406.804169 1357.000000,429.108337 1357.000000,451.911652 
	C1496.715088,451.911652 1636.107788,451.911652 1775.749756,451.911652 
	C1775.749756,476.684418 1775.749756,500.959106 1775.749756,525.617249 
	C1607.794800,525.617249 1439.736206,525.617249 1271.338623,525.617249 
	C1271.338623,384.706543 1271.338623,243.647980 1271.338623,102.294579 
	C1436.381836,102.294579 1601.440430,102.294579 1766.749512,102.294579 
	C1766.749512,124.683922 1766.749512,146.958664 1766.749512,169.734680 
	C1630.462280,169.734680 1494.069702,169.734680 1357.338867,169.734680 
	C1357.338867,205.625290 1357.338867,241.017654 1357.338867,276.911591 
	C1489.714966,276.911591 1622.107666,276.911591 1754.749634,276.911591 
	C1754.749634,298.350922 1754.749634,319.292297 1754.749634,340.735016 
	C1622.462036,340.735016 1490.069336,340.735016 1357.000000,340.735016 
	C1357.000000,355.316528 1357.000000,369.408264 1357.000000,384.000000 
z"/>
<path fill="#FF5E14" opacity="1.000000" stroke="none" 
	d="
M309.000000,90.000000 
	C321.430328,90.333809 333.413788,90.066925 345.280884,91.116158 
	C378.440063,94.047935 411.289124,98.719872 443.297394,108.544441 
	C468.869446,116.393494 493.008575,126.971741 514.336548,143.181702 
	C530.522034,155.483261 543.239258,170.759628 550.611816,190.054245 
	C551.655396,192.785263 550.566711,194.111282 548.268860,194.916748 
	C529.140747,201.621597 509.999512,208.288773 490.862274,214.967499 
	C485.539520,216.825089 480.216888,218.683105 474.902771,220.537918 
	C469.255707,205.535278 458.809479,195.694916 446.274719,187.697754 
	C422.701385,172.658035 396.487091,164.867996 369.279175,160.040573 
	C357.392151,157.931503 345.403992,155.891174 333.380432,155.164139 
	C312.390289,153.894897 291.317535,152.790039 270.316437,153.262131 
	C251.641785,153.681915 232.981476,156.010880 214.380081,158.082870 
	C192.789032,160.487839 171.717941,165.368896 152.126770,175.064163 
	C138.338211,181.887878 126.647484,191.049881 121.722076,206.659637 
	C115.958908,224.924438 123.624702,246.837067 139.187988,258.124023 
	C152.629654,267.872314 167.742859,272.780060 183.858063,274.912231 
	C195.077515,276.396637 206.404465,277.116302 217.699371,277.965149 
	C224.947220,278.509796 232.226181,278.979950 239.487457,278.930908 
	C252.086212,278.845795 264.683228,278.369537 277.278778,277.985931 
	C286.044617,277.718933 294.804352,277.155090 303.571136,277.031982 
	C333.333282,276.614136 363.102478,275.849091 392.859009,276.162506 
	C414.313354,276.388458 435.597534,278.942627 456.656769,283.697540 
	C476.722107,288.228058 495.668243,294.911224 512.541870,306.883606 
	C532.438416,321.000793 544.628601,340.212097 548.831909,364.069885 
	C550.846497,375.504517 552.110596,387.299042 551.772217,398.873779 
	C551.040039,423.919281 543.293335,446.730072 527.148438,466.437195 
	C508.540863,489.150360 484.338745,503.421906 457.498688,514.039856 
	C437.935181,521.779236 417.599976,526.707642 397.073700,530.810181 
	C386.677765,532.888000 376.008789,533.577881 365.479950,535.017212 
	C341.864105,538.245605 318.135223,539.264648 294.321625,539.027893 
	C279.462494,538.880127 264.550934,539.764404 249.752914,538.801697 
	C231.959778,537.644043 214.252960,535.095520 196.525589,533.006531 
	C172.848618,530.216370 149.924423,524.231445 127.534798,516.172180 
	C104.260162,507.794373 82.437859,496.828857 63.241539,480.871887 
	C46.300808,466.789917 32.777359,450.164581 23.144567,430.377533 
	C22.163673,428.362610 21.595804,426.146606 20.572506,423.286743 
	C24.094830,422.398407 27.318439,421.610382 30.528826,420.771759 
	C53.601288,414.744598 76.659866,408.663025 99.772484,402.794220 
	C101.018997,402.477692 103.493340,403.500427 104.081764,404.601868 
	C117.382065,429.498566 139.403473,443.588654 164.515945,454.032288 
	C181.710159,461.182892 199.753815,465.274811 217.900787,468.787018 
	C227.521057,470.648956 237.415848,471.437195 247.225143,471.906067 
	C267.737061,472.886383 288.294098,474.203369 308.795502,473.739746 
	C326.968750,473.328766 345.113617,470.901764 363.230774,468.984924 
	C381.254944,467.077911 398.836731,462.895996 415.557739,455.898956 
	C433.116547,448.551300 449.615234,439.291290 457.583954,420.660400 
	C464.522461,404.438110 462.787750,388.510040 452.481140,374.093567 
	C442.401947,359.995148 427.168610,353.825714 411.104248,350.202240 
	C399.207062,347.518707 386.942322,345.998566 374.758942,345.168060 
	C359.543488,344.130859 344.239075,343.937439 328.981293,344.109161 
	C313.114777,344.287750 297.257965,345.334656 281.397034,346.004913 
	C273.633026,346.333038 265.871948,346.765656 258.104828,346.979065 
	C243.343124,347.384674 228.542755,348.453369 213.823578,347.793671 
	C196.805847,347.030975 179.836945,344.893005 162.885834,343.002472 
	C142.085007,340.682556 122.096245,335.121185 102.796867,327.034393 
	C89.811241,321.593170 77.611984,314.825714 66.554276,306.053314 
	C54.148426,296.211365 44.241020,284.285950 37.559723,269.954315 
	C31.588724,257.146301 28.154121,243.623489 27.959671,229.341461 
	C27.766548,215.157043 27.863501,201.093643 32.959591,187.513306 
	C40.068596,168.568832 51.813923,153.118546 67.898102,141.068481 
	C93.336990,122.009987 122.364853,110.848045 153.121109,104.119667 
	C169.960251,100.435852 186.998459,97.455978 204.080811,95.150948 
	C219.529724,93.066330 235.137985,91.828850 250.716949,91.127014 
	C269.955841,90.260315 289.237061,90.333145 309.000000,90.000000 
z"/>
<path fill="#FF5E14" opacity="1.000000" stroke="none" 
	d="
M632.251343,205.401260 
	C642.164978,184.146988 655.145142,165.524094 672.425781,150.198654 
	C687.260010,137.042770 703.984253,126.812454 722.222778,118.802025 
	C739.254211,111.321739 756.783813,105.614204 774.875061,101.673828 
	C787.269470,98.974236 799.799744,96.670082 812.384521,95.131493 
	C827.861938,93.239288 843.450439,92.209618 859.008423,91.040688 
	C867.082642,90.434044 875.196411,90.366669 883.289124,89.987854 
	C889.054077,89.717995 894.825012,88.924049 900.573669,89.081490 
	C916.269836,89.511368 931.956787,90.295731 947.644897,90.993988 
	C953.410461,91.250610 959.199524,91.394699 964.925293,92.049507 
	C981.003235,93.888161 997.059875,95.918114 1013.113525,97.962105 
	C1031.237183,100.269669 1048.732056,105.187386 1066.009033,110.958397 
	C1089.046143,118.653374 1110.359741,129.723206 1129.269531,144.943405 
	C1146.045776,158.446365 1159.505371,174.840515 1169.609863,194.028381 
	C1180.628174,214.951492 1187.118896,237.156265 1191.153809,260.377655 
	C1195.518921,285.498779 1195.874512,310.789307 1194.755127,336.011078 
	C1193.465210,365.073090 1188.364136,393.680145 1176.639648,420.600494 
	C1169.794434,436.317749 1161.001953,450.846100 1149.717529,464.033112 
	C1133.510498,482.972809 1113.697388,496.853241 1091.623169,507.594574 
	C1070.383911,517.929626 1047.923584,525.036255 1024.590942,528.942627 
	C1008.504089,531.635864 992.370850,534.387085 976.144226,535.824341 
	C956.260559,537.585388 936.265564,538.224182 916.303772,538.919006 
	C903.794739,539.354370 891.244629,539.371643 878.737427,538.910583 
	C861.105896,538.260681 843.419128,537.716675 825.896240,535.827026 
	C797.407959,532.754883 769.303040,527.493713 742.064270,518.118530 
	C719.727539,510.430573 698.808228,500.036713 680.253235,485.491608 
	C664.772156,473.356110 652.057312,458.552856 641.823853,441.582855 
	C628.949890,420.234192 621.744568,396.920959 617.097351,372.717285 
	C611.821777,345.240814 612.159607,317.353302 613.260132,289.626831 
	C614.177917,266.503906 618.464783,243.677048 626.018005,221.641479 
	C627.855591,216.280518 630.039185,211.038132 632.251343,205.401260 
M703.998718,335.713837 
	C704.662415,342.066223 705.214294,348.432709 706.011169,354.768341 
	C708.328064,373.189026 713.736755,390.584290 723.229126,406.651733 
	C734.183716,425.194397 750.055847,438.393951 769.180664,447.441315 
	C786.106384,455.448395 804.147461,460.106537 822.720703,463.226471 
	C844.525574,466.889313 866.437073,468.737610 888.439636,468.834412 
	C909.955322,468.929077 931.486816,467.884277 952.991699,466.906708 
	C963.296448,466.438324 973.703552,465.735199 983.802734,463.784180 
	C1001.136475,460.435486 1018.266602,456.413727 1034.703247,449.310211 
	C1058.614868,438.976257 1076.859375,422.891388 1088.928223,400.006378 
	C1103.068726,373.193298 1104.715820,343.705017 1105.802124,314.284271 
	C1106.139893,305.139221 1104.634644,295.928375 1104.010132,286.745117 
	C1102.931885,270.891968 1099.669067,255.539581 1094.045776,240.646317 
	C1084.520752,215.419357 1067.694580,196.610550 1044.019165,184.079147 
	C1023.983643,173.474274 1002.330444,167.728561 979.910828,165.057541 
	C963.145264,163.060150 946.337463,160.805466 929.494873,160.227798 
	C910.439026,159.574219 891.304688,160.259125 872.239624,161.130112 
	C857.501465,161.803436 842.772217,163.290314 828.119446,165.075607 
	C804.229614,167.986374 781.296875,174.356659 760.249878,186.378952 
	C747.431335,193.701019 736.620544,203.320068 727.888489,215.356369 
	C712.420471,236.677612 706.733765,261.284088 704.184875,286.728912 
	C702.817139,300.383514 703.281860,314.225983 703.051697,327.985870 
	C703.013916,330.242615 703.659851,332.510773 703.998718,335.713837 
z"/>
<path fill="#000000" opacity="1.000000" stroke="none" 
	d="
M1669.780884,685.593506 
	C1663.866333,696.744934 1656.292114,705.572754 1643.602783,707.932739 
	C1630.726440,710.327454 1618.021362,710.383423 1606.162231,701.763062 
	C1602.306030,709.613586 1596.295044,713.295227 1587.394653,710.468201 
	C1590.620361,705.841797 1594.021240,701.198853 1597.109009,696.356384 
	C1597.801392,695.270386 1598.029419,693.099670 1597.405273,692.082275 
	C1589.378296,678.998230 1587.787354,664.980469 1589.823853,649.974609 
	C1591.296021,639.127380 1595.535767,629.754456 1602.763062,621.985229 
	C1608.407471,615.917542 1615.760864,611.642944 1624.283203,611.114502 
	C1634.536011,610.478943 1644.880371,610.255676 1654.269287,615.911926 
	C1655.355835,616.566528 1658.433472,616.223328 1658.716675,615.552490 
	C1662.069092,607.614563 1668.747681,608.671143 1676.013062,609.217896 
	C1672.994995,613.708618 1670.323975,618.122986 1667.190674,622.180298 
	C1665.309570,624.615967 1665.393921,626.186951 1667.096558,628.761902 
	C1672.269775,636.585999 1674.559326,645.389099 1675.041382,654.761353 
	C1675.584839,665.329346 1674.241089,675.517822 1669.780884,685.593506 
M1660.514526,655.010437 
	C1659.345703,648.979187 1658.177002,642.947998 1657.008179,636.916748 
	C1656.362671,636.879883 1655.717041,636.842957 1655.071533,636.806091 
	C1641.575562,655.238586 1628.079712,673.671143 1614.612671,692.064209 
	C1621.851685,698.270264 1630.039795,699.202576 1638.116821,697.678223 
	C1643.601929,696.643005 1648.703979,693.925720 1652.284180,688.529785 
	C1658.958862,678.470276 1660.528809,667.360962 1660.514526,655.010437 
M1621.033325,665.609680 
	C1630.365356,652.908997 1639.697388,640.208252 1649.102539,627.408081 
	C1647.905884,626.444824 1647.112061,625.524780 1646.108032,625.039795 
	C1630.628540,617.563477 1614.133423,622.487793 1606.919800,640.485840 
	C1603.561279,648.865356 1603.615112,657.474487 1604.152710,666.070740 
	C1604.506104,671.723572 1606.320557,677.285095 1607.697632,683.934448 
	C1612.796265,677.176270 1616.882935,671.759277 1621.033325,665.609680 
z"/>
<path fill="#000000" opacity="1.000000" stroke="none" 
	d="
M1368.005981,697.076050 
	C1363.128052,686.547241 1358.286133,676.408264 1353.363892,666.101135 
	C1344.273193,666.101135 1334.961548,666.101135 1325.249756,666.101135 
	C1325.249756,679.539429 1325.249756,692.947754 1325.249756,706.676575 
	C1320.788940,706.676575 1316.715698,706.676575 1312.318848,706.676575 
	C1312.318848,675.784546 1312.318848,644.714233 1312.318848,613.226013 
	C1313.551392,613.157898 1314.979004,613.012085 1316.406982,613.010315 
	C1330.404541,612.993164 1344.402344,612.963257 1358.399780,613.011597 
	C1369.548096,613.050110 1378.074219,617.664307 1383.259399,627.753479 
	C1388.192383,637.352295 1387.396973,646.866577 1380.780518,655.058594 
	C1377.571411,659.031616 1372.267212,661.312256 1367.764282,664.462097 
	C1373.923096,677.730225 1380.536011,691.976440 1387.362793,706.683533 
	C1382.129517,706.683533 1377.406982,706.683533 1372.248291,706.683533 
	C1370.944092,703.825623 1369.493042,700.645813 1368.005981,697.076050 
M1334.531250,656.000000 
	C1338.689575,656.000000 1342.919067,656.483582 1346.989624,655.885742 
	C1352.977661,655.006165 1359.210938,654.190979 1364.692871,651.840149 
	C1373.324341,648.138916 1375.608643,631.755859 1365.876709,627.516235 
	C1361.718140,625.704529 1357.109863,624.437744 1352.603394,624.014526 
	C1343.494873,623.159119 1334.316284,623.049438 1325.305298,622.638550 
	C1325.305298,634.374817 1325.305298,645.100159 1325.305298,656.000000 
	C1328.253662,656.000000 1330.898071,656.000000 1334.531250,656.000000 
z"/>
<path fill="#000000" opacity="1.000000" stroke="none" 
	d="
M1707.000000,684.000916 
	C1707.000000,691.807556 1707.000000,699.114441 1707.000000,706.709961 
	C1702.725830,706.709961 1698.654053,706.709961 1694.288330,706.709961 
	C1694.288330,675.733887 1694.288330,644.675720 1694.288330,613.000000 
	C1699.420532,613.000000 1704.677002,613.000000 1709.933594,613.000000 
	C1720.426270,613.000000 1730.924316,612.785095 1741.410156,613.054382 
	C1754.544189,613.391724 1763.052979,620.153992 1766.837891,631.246399 
	C1770.968140,643.350952 1766.653931,659.097229 1749.298218,663.460266 
	C1755.908936,677.699585 1762.520752,691.941284 1769.352661,706.656860 
	C1764.163818,706.656860 1759.455444,706.656860 1754.148560,706.656860 
	C1748.879883,694.984253 1743.398682,682.903503 1737.980713,670.794434 
	C1736.599854,667.708191 1735.234497,665.559814 1730.972168,665.849854 
	C1723.202759,666.378418 1715.371704,666.000000 1707.000000,666.000000 
	C1707.000000,671.976746 1707.000000,677.738953 1707.000000,684.000916 
M1746.440063,652.075745 
	C1752.895630,648.548157 1754.661621,642.644653 1753.908569,635.966248 
	C1753.235718,629.998901 1748.927246,625.949768 1743.525269,625.214600 
	C1731.565186,623.586914 1719.449097,623.105347 1707.239258,622.144043 
	C1707.239258,634.218262 1707.239258,644.952759 1707.239258,656.000000 
	C1713.936157,656.000000 1720.436768,656.438049 1726.850098,655.876648 
	C1733.243530,655.316956 1739.549316,653.755249 1746.440063,652.075745 
z"/>
<path fill="#000000" opacity="1.000000" stroke="none" 
	d="
M331.862000,666.647095 
	C322.283447,666.235229 312.841919,666.235229 303.006714,666.235229 
	C303.006714,679.790527 303.006714,693.197693 303.006714,706.798584 
	C298.541412,706.798584 294.471252,706.798584 290.200378,706.798584 
	C290.200378,675.545532 290.200378,644.481628 290.200378,613.003906 
	C306.984497,613.003906 323.702148,611.821228 340.181213,613.299072 
	C361.468048,615.208008 371.517120,638.859558 358.406555,655.759338 
	C355.463501,659.553040 350.122314,661.486328 345.650452,664.430603 
	C348.621307,670.608704 352.177551,677.801025 355.551361,685.078003 
	C358.838104,692.167114 361.938171,699.342896 365.271393,706.819702 
	C359.977142,706.819702 355.194183,706.819702 350.329559,706.819702 
	C344.224335,693.576843 338.111664,680.317871 331.862000,666.647095 
M343.405884,626.938477 
	C341.957581,626.283325 340.549622,625.178345 339.054626,625.044250 
	C327.178955,623.979736 315.286774,623.099670 303.238068,622.150269 
	C303.238068,634.215515 303.238068,644.950256 303.238068,655.998596 
	C311.266602,655.998596 319.102020,656.482544 326.842072,655.831970 
	C332.181335,655.383057 337.614532,653.919983 342.593079,651.895386 
	C347.852264,649.756714 349.709747,644.729614 349.991669,639.236389 
	C350.251434,634.174866 348.881500,629.907227 343.405884,626.938477 
z"/>
<path fill="#000000" opacity="1.000000" stroke="none" 
	d="
M680.961670,709.000000 
	C656.158752,711.258911 640.612366,691.388428 637.864441,670.697632 
	C635.841797,655.468018 637.317444,641.262268 645.989319,628.293152 
	C653.618591,616.883240 664.041992,611.150208 678.110901,610.808044 
	C691.574524,610.480652 702.811951,614.113037 711.769287,624.270325 
	C718.155212,631.511719 721.905518,640.219910 722.783997,649.539795 
	C723.996887,662.409241 723.480042,675.371765 716.977112,687.211853 
	C709.281616,701.223389 698.130188,709.628357 680.961670,709.000000 
M706.053589,676.501282 
	C709.748413,665.901917 709.457031,655.185120 706.988525,644.407471 
	C704.305420,632.692810 694.036987,622.765259 684.358215,621.952576 
	C667.696045,620.553711 660.266724,627.653137 655.283020,639.914673 
	C650.020752,652.861572 649.744751,666.906250 655.192322,679.957764 
	C661.979309,696.218201 673.586365,701.117676 688.847961,696.857666 
	C698.411438,694.188171 702.763977,686.028870 706.053589,676.501282 
z"/>
<path fill="#000000" opacity="1.000000" stroke="none" 
	d="
M462.987000,668.577820 
	C459.993652,676.583679 457.805725,684.577515 453.852722,691.574097 
	C447.096466,703.532288 436.127533,708.683411 422.306366,709.152771 
	C409.318329,709.593811 397.939392,706.701355 389.309357,696.679382 
	C382.899261,689.235413 379.365265,680.467896 377.830505,670.552612 
	C375.766357,657.217102 376.943481,644.439026 383.224976,632.683105 
	C390.547791,618.978210 401.750610,611.471497 418.229889,610.735413 
	C442.150513,609.666870 456.875977,624.762085 461.299896,643.071838 
	C463.237000,651.089050 462.513641,659.749084 462.987000,668.577820 
M428.218018,622.991943 
	C412.833832,619.262451 401.734619,623.981689 395.207306,640.211792 
	C390.038025,653.065063 390.118286,666.744019 395.130341,679.806396 
	C398.696716,689.100952 404.990112,696.495911 415.533203,697.885864 
	C427.996246,699.528931 437.769409,695.195923 443.392334,683.194458 
	C448.047516,673.258545 449.621429,663.107849 448.145966,652.107666 
	C446.402924,639.112793 442.007843,628.401794 428.218018,622.991943 
z"/>
<path fill="#000000" opacity="1.000000" stroke="none" 
	d="
M1118.020996,704.128296 
	C1119.808594,706.467041 1118.930298,707.019104 1116.807739,707.006165 
	C1112.812012,706.981873 1108.816162,706.999207 1104.438477,706.999207 
	C1098.164551,693.439575 1091.855957,679.805176 1085.511963,666.094421 
	C1076.214722,666.094421 1066.909668,666.094421 1057.206665,666.094421 
	C1057.206665,679.584534 1057.206665,692.991638 1057.206665,706.697632 
	C1052.748535,706.697632 1048.675781,706.697632 1044.298828,706.697632 
	C1044.298828,675.745972 1044.298828,644.678711 1044.298828,613.000000 
	C1049.762329,613.000000 1055.355591,613.000000 1060.948853,613.000000 
	C1071.112549,613.000000 1081.281982,612.783630 1091.438477,613.054199 
	C1104.489990,613.401855 1113.124634,620.112000 1116.824951,631.292114 
	C1120.737549,643.114258 1117.514648,658.220215 1099.330933,663.518738 
	C1105.543945,676.914795 1111.759155,690.315552 1118.020996,704.128296 
M1057.000122,625.680542 
	C1057.000122,635.749390 1057.000122,645.818298 1057.000122,656.463257 
	C1068.068481,655.954102 1078.455078,655.598145 1088.824219,654.958313 
	C1096.271484,654.498840 1103.263794,647.885803 1103.998779,641.038330 
	C1104.906006,632.585083 1101.733521,626.669739 1092.626221,625.216797 
	C1081.191895,623.392639 1069.421387,623.668640 1057.791870,623.124939 
	C1057.554443,623.113892 1057.267700,624.160522 1057.000122,625.680542 
z"/>
<path fill="#000000" opacity="1.000000" stroke="none" 
	d="
M922.733154,673.297058 
	C925.365662,677.350769 927.766846,681.108521 930.168030,684.866272 
	C930.570435,684.798035 930.972839,684.729858 931.375244,684.661682 
	C931.375244,660.962585 931.375244,637.263489 931.375244,613.284912 
	C935.616699,613.284912 939.022156,613.284912 942.716919,613.284912 
	C942.716919,644.268860 942.716919,675.325867 942.716919,706.993713 
	C938.748047,706.993713 934.561340,707.506836 930.606689,706.771729 
	C928.701111,706.417480 926.883057,703.942932 925.620178,702.034729 
	C912.204651,681.763855 898.893860,661.423584 885.592773,641.077209 
	C883.005066,637.118835 880.583435,633.051941 877.036560,629.478149 
	C877.036560,655.168152 877.036560,680.858154 877.036560,706.772583 
	C873.265442,706.772583 869.862915,706.772583 866.228394,706.772583 
	C866.228394,675.615723 866.228394,644.559814 866.228394,613.002502 
	C871.213440,613.002502 876.160278,612.857605 881.087463,613.104248 
	C882.322266,613.166077 883.924805,614.201599 884.631165,615.270264 
	C897.321350,634.469849 909.899597,653.743408 922.733154,673.297058 
z"/>
<path fill="#000000" opacity="1.000000" stroke="none" 
	d="
M1493.000000,626.009399 
	C1493.000000,621.533203 1493.000000,617.555359 1493.000000,613.001465 
	C1498.130981,613.001465 1503.078125,612.782288 1507.983276,613.140137 
	C1509.384155,613.242371 1511.066895,614.750854 1511.937500,616.066467 
	C1526.697021,638.370239 1541.345337,660.747681 1556.038940,683.095215 
	C1556.533936,683.847839 1557.246704,684.456970 1558.663086,686.023132 
	C1558.663086,661.143433 1558.663086,637.346924 1558.663086,613.277161 
	C1562.633667,613.277161 1566.039917,613.277161 1569.726074,613.277161 
	C1569.726074,644.300415 1569.726074,675.368835 1569.726074,706.998291 
	C1565.855591,706.998291 1561.891602,707.263794 1557.997314,706.858398 
	C1556.578735,706.710754 1554.925415,705.229187 1554.057983,703.909912 
	C1538.303101,679.952026 1522.655273,655.923889 1506.964722,631.923645 
	C1506.470215,631.167297 1505.765625,630.548340 1504.353271,628.958069 
	C1504.353271,655.515015 1504.353271,680.974182 1504.353271,706.715210 
	C1500.381714,706.715210 1496.975098,706.715210 1493.000000,706.715210 
	C1493.000000,680.026184 1493.000000,653.267029 1493.000000,626.009399 
z"/>
<path fill="#000000" opacity="1.000000" stroke="none" 
	d="
M185.997955,671.016846 
	C183.712265,659.920105 184.688690,649.450989 188.346313,639.321228 
	C193.511093,625.017456 202.719925,614.031250 218.222458,611.586243 
	C231.693268,609.461731 244.920731,610.373108 256.029053,621.198120 
	C266.639069,631.537476 270.814972,643.507385 271.137726,657.885620 
	C271.464691,672.453003 267.829865,685.534485 258.590515,696.661926 
	C253.138000,703.228638 245.613129,707.880188 237.133621,708.700928 
	C225.658905,709.811523 214.065353,710.093689 203.807159,702.496826 
	C193.197388,694.639709 188.143036,683.985107 185.997955,671.016846 
M214.338303,694.037720 
	C220.501343,700.082947 227.973297,698.179138 235.174438,697.290283 
	C240.190262,696.671143 243.977722,693.943970 247.089050,689.817017 
	C252.605682,682.499756 255.258728,674.526550 256.262177,665.335022 
	C257.433075,654.609314 255.576767,645.014343 251.126709,635.369812 
	C243.661011,619.189392 217.015091,616.228149 206.882584,633.342773 
	C197.198807,649.699524 197.984268,666.444641 204.353012,683.270691 
	C205.922348,687.416870 210.421280,690.454224 214.338303,694.037720 
z"/>
<path fill="#000000" opacity="1.000000" stroke="none" 
	d="
M544.214905,662.711060 
	C557.568481,674.230347 553.021667,696.834167 537.895142,703.972900 
	C520.798035,712.041443 503.638611,711.325439 486.770966,703.231934 
	C478.077637,699.060669 473.526184,691.241699 469.731781,682.084900 
	C473.351440,681.361572 476.737823,680.383545 480.174286,680.153564 
	C481.461517,680.067444 483.475739,681.402771 484.120117,682.633606 
	C489.776459,693.437561 498.813446,698.110291 510.724213,698.014954 
	C517.075195,697.964111 523.482483,698.600281 529.278748,694.986450 
	C534.872253,691.499146 537.993652,686.780151 536.970032,680.017639 
	C536.065918,674.045349 531.932495,670.584106 526.586121,669.105896 
	C516.846802,666.412903 506.836914,664.679260 497.140808,661.855530 
	C490.788239,660.005554 484.566101,657.924622 480.107086,651.858887 
	C471.918091,640.719238 473.947266,624.727539 486.010834,616.989014 
	C492.125793,613.066467 498.652924,610.960205 506.037659,610.919312 
	C516.882507,610.859253 527.951843,610.304260 536.605652,618.109741 
	C541.634216,622.645203 545.440002,628.536316 550.663147,634.868652 
	C544.527039,636.320007 540.087036,637.370178 535.692871,638.409546 
	C532.778687,629.135132 524.616028,622.273743 515.580688,622.142578 
	C509.971619,622.061157 504.027740,622.459290 498.797638,624.269897 
	C491.378754,626.838257 488.395355,631.802795 489.001404,637.165161 
	C489.606232,642.516479 494.831848,647.354248 501.627686,649.007385 
	C512.387268,651.624756 523.194580,654.083374 533.843201,657.098328 
	C537.432861,658.114685 540.601501,660.618286 544.214905,662.711060 
z"/>
<path fill="#000000" opacity="1.000000" stroke="none" 
	d="
M85.689865,692.731445 
	C90.780579,686.955505 92.354408,680.219482 87.570984,674.826843 
	C84.151268,670.971497 78.244179,668.809631 73.044739,667.159790 
	C64.034508,664.300781 54.686741,662.522278 45.527843,660.110962 
	C33.529388,656.951965 28.870819,648.148254 28.146214,638.390259 
	C27.341406,627.552124 32.707165,619.283997 42.499313,615.078857 
	C58.762527,608.094727 75.006630,608.514771 90.377045,618.122986 
	C95.614235,621.396790 100.662582,630.190430 100.848511,635.700317 
	C96.809319,636.565063 92.744080,637.435364 88.734222,638.293823 
	C85.405922,628.294128 76.759781,622.141541 66.663376,621.966003 
	C60.568623,621.860107 54.664463,622.041870 49.163105,625.289734 
	C44.912682,627.799194 42.207024,631.161987 42.047997,636.104614 
	C41.881847,641.268677 44.781174,645.040405 49.329273,646.583435 
	C56.900005,649.152100 64.719574,651.016235 72.486252,652.970764 
	C81.675659,655.283264 91.094589,656.751465 98.383469,663.806274 
	C109.572861,674.636536 106.234184,694.809814 92.808258,702.989624 
	C85.907753,707.193909 78.466537,709.666931 70.207962,709.013428 
	C63.506523,708.483215 56.601009,708.919373 50.129559,707.432129 
	C36.780903,704.364197 27.816067,695.762085 22.855143,682.041321 
	C26.408794,681.357910 29.920404,680.379578 33.478275,680.163757 
	C34.714012,680.088806 36.598068,681.618713 37.277916,682.898132 
	C42.796207,693.283203 51.535557,697.801208 63.046715,698.054871 
	C70.981117,698.229736 78.727821,698.139709 85.689865,692.731445 
z"/>
<path fill="#000000" opacity="1.000000" stroke="none" 
	d="
M1444.999146,663.000000 
	C1437.190063,663.000000 1429.880493,663.000000 1422.286255,663.000000 
	C1422.286255,674.286194 1422.286255,685.357361 1422.286255,696.829590 
	C1439.955444,696.829590 1457.694946,696.829590 1475.715576,696.829590 
	C1475.715576,700.284729 1475.715576,703.359375 1475.715576,706.720215 
	C1453.050049,706.720215 1430.310669,706.720215 1407.285156,706.720215 
	C1407.285156,675.711914 1407.285156,644.644958 1407.285156,613.288574 
	C1429.282104,613.288574 1451.350830,613.288574 1473.710449,613.288574 
	C1473.710449,616.274414 1473.710449,619.349304 1473.710449,622.823364 
	C1456.728394,622.823364 1439.651245,622.823364 1422.288696,622.823364 
	C1422.288696,633.280945 1422.288696,643.352417 1422.288696,653.827393 
	C1435.617188,653.827393 1449.024414,653.827393 1462.713867,653.827393 
	C1462.713867,656.951355 1462.713867,659.690308 1462.713867,663.000000 
	C1457.037720,663.000000 1451.268311,663.000000 1444.999146,663.000000 
z"/>
<path fill="#000000" opacity="1.000000" stroke="none" 
	d="
M1154.003906,613.000000 
	C1171.477539,613.000000 1188.451782,613.000000 1205.712646,613.000000 
	C1205.712646,616.278748 1205.712646,619.353516 1205.712646,622.827515 
	C1188.723999,622.827515 1171.646973,622.827515 1154.286621,622.827515 
	C1154.286621,633.285339 1154.286621,643.356750 1154.286621,653.831543 
	C1167.620850,653.831543 1181.028809,653.831543 1194.716064,653.831543 
	C1194.716064,656.955627 1194.716064,659.694458 1194.716064,662.833130 
	C1181.389771,662.833130 1167.976685,662.833130 1154.283936,662.833130 
	C1154.283936,674.290955 1154.283936,685.362000 1154.283936,696.834106 
	C1171.960205,696.834106 1189.699829,696.834106 1207.718018,696.834106 
	C1207.718018,700.289612 1207.718018,703.364014 1207.718018,706.722412 
	C1185.045166,706.722412 1162.305908,706.722412 1139.282715,706.722412 
	C1139.282715,675.707153 1139.282715,644.640198 1139.282715,613.000000 
	C1143.970337,613.000000 1148.737427,613.000000 1154.003906,613.000000 
z"/>
<path fill="#000000" opacity="1.000000" stroke="none" 
	d="
M838.946777,623.000000 
	C824.151001,623.000000 809.846802,623.000000 795.271851,623.000000 
	C795.271851,633.315857 795.271851,643.387085 795.271851,653.861328 
	C808.652283,653.861328 822.061096,653.861328 835.732361,653.861328 
	C835.732361,656.987183 835.732361,659.725342 835.732361,662.864075 
	C822.356628,662.864075 808.943665,662.864075 795.267822,662.864075 
	C795.267822,674.324402 795.267822,685.395325 795.267822,696.867065 
	C812.994324,696.867065 830.734741,696.867065 848.735596,696.867065 
	C848.735596,700.326416 848.735596,703.398438 848.735596,706.738953 
	C826.009033,706.738953 803.269897,706.738953 780.264893,706.738953 
	C780.264893,675.670227 780.264893,644.602722 780.264893,613.267212 
	C802.326355,613.267212 824.395874,613.267212 846.733215,613.267212 
	C846.733215,616.321655 846.733215,619.393677 846.733215,623.000000 
	C844.320190,623.000000 841.879211,623.000000 838.946777,623.000000 
z"/>
<path fill="#000000" opacity="1.000000" stroke="none" 
	d="
M1225.000000,635.000061 
	C1225.000000,627.524902 1225.000000,620.549683 1225.000000,613.000000 
	C1238.801147,613.000000 1252.395508,612.847534 1265.982910,613.091736 
	C1270.122803,613.166077 1274.381714,613.876160 1278.347168,615.081421 
	C1291.937622,619.212097 1300.703735,638.036682 1293.578735,652.233704 
	C1287.651855,664.043518 1278.470337,668.885376 1265.968750,668.986267 
	C1257.164307,669.057312 1248.358643,669.000000 1239.159912,669.000000 
	C1239.159912,681.633057 1239.159912,694.039734 1239.159912,706.720825 
	C1234.369873,706.720825 1229.964355,706.720825 1225.000000,706.720825 
	C1225.000000,683.012390 1225.000000,659.256165 1225.000000,635.000061 
M1251.466797,659.000000 
	C1256.703857,658.665833 1261.986206,658.651550 1267.166626,657.917358 
	C1273.774414,656.980774 1278.501343,652.915222 1280.887451,646.852356 
	C1283.396606,640.477295 1282.058105,634.667542 1277.116577,629.470276 
	C1273.025146,625.166992 1268.344482,623.853271 1262.642090,623.814819 
	C1254.823975,623.762207 1247.010010,623.059204 1239.000000,622.624329 
	C1239.000000,629.427734 1239.000000,635.232910 1239.000000,641.038025 
	C1239.000000,646.956360 1239.000000,652.874695 1239.000000,659.000000 
	C1243.211060,659.000000 1246.848022,659.000000 1251.466797,659.000000 
z"/>
<path fill="#000000" opacity="1.000000" stroke="none" 
	d="
M153.000000,663.000000 
	C153.000000,677.808105 153.000000,692.116211 153.000000,706.711670 
	C148.387222,706.711670 143.981125,706.711670 139.176834,706.711670 
	C139.176834,679.049194 139.176834,651.312378 139.176834,623.176636 
	C129.055115,623.176636 119.311447,623.176636 109.286713,623.176636 
	C109.286713,619.719849 109.286713,616.645142 109.286713,613.281982 
	C133.611801,613.281982 158.017426,613.281982 182.712036,613.281982 
	C182.712036,616.279480 182.712036,619.352051 182.712036,622.828125 
	C173.060623,622.828125 163.312927,622.828125 153.000000,622.828125 
	C153.000000,636.309570 153.000000,649.404785 153.000000,663.000000 
z"/>
<path fill="#000000" opacity="1.000000" stroke="none" 
	d="
M1012.999084,613.000000 
	C1019.142273,613.000000 1024.785767,613.000000 1030.713745,613.000000 
	C1030.713745,616.281128 1030.713745,619.355774 1030.713745,622.831421 
	C1021.056885,622.831421 1011.309448,622.831421 1001.173279,622.831421 
	C1001.173279,650.956665 1001.173279,678.692688 1001.173279,706.713318 
	C996.383911,706.713318 991.977844,706.713318 987.173462,706.713318 
	C987.173462,679.045715 987.173462,651.308838 987.173462,623.173279 
	C977.051575,623.173279 967.307861,623.173279 957.284912,623.173279 
	C957.284912,619.714417 957.284912,616.641968 957.284912,613.000000 
	C975.637573,613.000000 994.068481,613.000000 1012.999084,613.000000 
z"/>
<path fill="#000000" opacity="1.000000" stroke="none" 
	d="
M571.000000,648.000000 
	C571.000000,636.190979 571.000000,624.881958 571.000000,613.287109 
	C575.613953,613.287109 580.020447,613.287109 584.827209,613.287109 
	C584.827209,640.954529 584.827209,668.692139 584.827209,696.827454 
	C600.952332,696.827454 616.692993,696.827454 632.714966,696.827454 
	C632.714966,700.283508 632.714966,703.358154 632.714966,706.719604 
	C612.383911,706.719604 591.977112,706.719604 571.000000,706.719604 
	C571.000000,687.354065 571.000000,667.927063 571.000000,648.000000 
z"/>
<path fill="#FFFFFF" opacity="1.000000" stroke="none" 
	d="
M703.994263,335.243744 
	C703.659851,332.510773 703.013916,330.242615 703.051697,327.985870 
	C703.281860,314.225983 702.817139,300.383514 704.184875,286.728912 
	C706.733765,261.284088 712.420471,236.677612 727.888489,215.356369 
	C736.620544,203.320068 747.431335,193.701019 760.249878,186.378952 
	C781.296875,174.356659 804.229614,167.986374 828.119446,165.075607 
	C842.772217,163.290314 857.501465,161.803436 872.239624,161.130112 
	C891.304688,160.259125 910.439026,159.574219 929.494873,160.227798 
	C946.337463,160.805466 963.145264,163.060150 979.910828,165.057541 
	C1002.330444,167.728561 1023.983643,173.474274 1044.019165,184.079147 
	C1067.694580,196.610550 1084.520752,215.419357 1094.045776,240.646317 
	C1099.669067,255.539581 1102.931885,270.891968 1104.010132,286.745117 
	C1104.634644,295.928375 1106.139893,305.139221 1105.802124,314.284271 
	C1104.715820,343.705017 1103.068726,373.193298 1088.928223,400.006378 
	C1076.859375,422.891388 1058.614868,438.976257 1034.703247,449.310211 
	C1018.266602,456.413727 1001.136475,460.435486 983.802734,463.784180 
	C973.703552,465.735199 963.296448,466.438324 952.991699,466.906708 
	C931.486816,467.884277 909.955322,468.929077 888.439636,468.834412 
	C866.437073,468.737610 844.525574,466.889313 822.720703,463.226471 
	C804.147461,460.106537 786.106384,455.448395 769.180664,447.441315 
	C750.055847,438.393951 734.183716,425.194397 723.229126,406.651733 
	C713.736755,390.584290 708.328064,373.189026 706.011169,354.768341 
	C705.214294,348.432709 704.662415,342.066223 703.994263,335.243744 
z"/>
<path fill="#FFFFFF" opacity="1.000000" stroke="none" 
	d="
M1660.739380,655.408936 
	C1660.528809,667.360962 1658.958862,678.470276 1652.284180,688.529785 
	C1648.703979,693.925720 1643.601929,696.643005 1638.116821,697.678223 
	C1630.039795,699.202576 1621.851685,698.270264 1614.612671,692.064209 
	C1628.079712,673.671143 1641.575562,655.238586 1655.071533,636.806091 
	C1655.717041,636.842957 1656.362671,636.879883 1657.008179,636.916748 
	C1658.177002,642.947998 1659.345703,648.979187 1660.739380,655.408936 
z"/>
<path fill="#FFFFFF" opacity="1.000000" stroke="none" 
	d="
M1621.001465,665.975952 
	C1616.882935,671.759277 1612.796265,677.176270 1607.697632,683.934448 
	C1606.320557,677.285095 1604.506104,671.723572 1604.152710,666.070740 
	C1603.615112,657.474487 1603.561279,648.865356 1606.919800,640.485840 
	C1614.133423,622.487793 1630.628540,617.563477 1646.108032,625.039795 
	C1647.112061,625.524780 1647.905884,626.444824 1649.102539,627.408081 
	C1639.697388,640.208252 1630.365356,652.908997 1621.001465,665.975952 
z"/>
<path fill="#FFFFFF" opacity="1.000000" stroke="none" 
	d="
M1334.036865,656.000000 
	C1330.898071,656.000000 1328.253662,656.000000 1325.305298,656.000000 
	C1325.305298,645.100159 1325.305298,634.374817 1325.305298,622.638550 
	C1334.316284,623.049438 1343.494873,623.159119 1352.603394,624.014526 
	C1357.109863,624.437744 1361.718140,625.704529 1365.876709,627.516235 
	C1375.608643,631.755859 1373.324341,648.138916 1364.692871,651.840149 
	C1359.210938,654.190979 1352.977661,655.006165 1346.989624,655.885742 
	C1342.919067,656.483582 1338.689575,656.000000 1334.036865,656.000000 
z"/>
<path fill="#FFFFFF" opacity="1.000000" stroke="none" 
	d="
M1746.166748,652.354309 
	C1739.549316,653.755249 1733.243530,655.316956 1726.850098,655.876648 
	C1720.436768,656.438049 1713.936157,656.000000 1707.239258,656.000000 
	C1707.239258,644.952759 1707.239258,634.218262 1707.239258,622.144043 
	C1719.449097,623.105347 1731.565186,623.586914 1743.525269,625.214600 
	C1748.927246,625.949768 1753.235718,629.998901 1753.908569,635.966248 
	C1754.661621,642.644653 1752.895630,648.548157 1746.166748,652.354309 
z"/>
<path fill="#FFFFFF" opacity="1.000000" stroke="none" 
	d="
M343.693237,627.200195 
	C348.881500,629.907227 350.251434,634.174866 349.991669,639.236389 
	C349.709747,644.729614 347.852264,649.756714 342.593079,651.895386 
	C337.614532,653.919983 332.181335,655.383057 326.842072,655.831970 
	C319.102020,656.482544 311.266602,655.998596 303.238068,655.998596 
	C303.238068,644.950256 303.238068,634.215515 303.238068,622.150269 
	C315.286774,623.099670 327.178955,623.979736 339.054626,625.044250 
	C340.549622,625.178345 341.957581,626.283325 343.693237,627.200195 
z"/>
<path fill="#FFFFFF" opacity="1.000000" stroke="none" 
	d="
M706.028137,676.914185 
	C702.763977,686.028870 698.411438,694.188171 688.847961,696.857666 
	C673.586365,701.117676 661.979309,696.218201 655.192322,679.957764 
	C649.744751,666.906250 650.020752,652.861572 655.283020,639.914673 
	C660.266724,627.653137 667.696045,620.553711 684.358215,621.952576 
	C694.036987,622.765259 704.305420,632.692810 706.988525,644.407471 
	C709.457031,655.185120 709.748413,665.901917 706.028137,676.914185 
z"/>
<path fill="#FFFFFF" opacity="1.000000" stroke="none" 
	d="
M428.637024,623.005249 
	C442.007843,628.401794 446.402924,639.112793 448.145966,652.107666 
	C449.621429,663.107849 448.047516,673.258545 443.392334,683.194458 
	C437.769409,695.195923 427.996246,699.528931 415.533203,697.885864 
	C404.990112,696.495911 398.696716,689.100952 395.130341,679.806396 
	C390.118286,666.744019 390.038025,653.065063 395.207306,640.211792 
	C401.734619,623.981689 412.833832,619.262451 428.637024,623.005249 
z"/>
<path fill="#FFFFFF" opacity="1.000000" stroke="none" 
	d="
M1057.001953,625.197144 
	C1057.267700,624.160522 1057.554443,623.113892 1057.791870,623.124939 
	C1069.421387,623.668640 1081.191895,623.392639 1092.626221,625.216797 
	C1101.733521,626.669739 1104.906006,632.585083 1103.998779,641.038330 
	C1103.263794,647.885803 1096.271484,654.498840 1088.824219,654.958313 
	C1078.455078,655.598145 1068.068481,655.954102 1057.000122,656.463257 
	C1057.000122,645.818298 1057.000122,635.749390 1057.001953,625.197144 
z"/>
<path fill="#FFFFFF" opacity="1.000000" stroke="none" 
	d="
M213.955872,694.019531 
	C210.421280,690.454224 205.922348,687.416870 204.353012,683.270691 
	C197.984268,666.444641 197.198807,649.699524 206.882584,633.342773 
	C217.015091,616.228149 243.661011,619.189392 251.126709,635.369812 
	C255.576767,645.014343 257.433075,654.609314 256.262177,665.335022 
	C255.258728,674.526550 252.605682,682.499756 247.089050,689.817017 
	C243.977722,693.943970 240.190262,696.671143 235.174438,697.290283 
	C227.973297,698.179138 220.501343,700.082947 213.955872,694.019531 
z"/>
<path fill="#FFFFFF" opacity="1.000000" stroke="none" 
	d="
M1250.975830,659.000000 
	C1246.848022,659.000000 1243.211060,659.000000 1239.000000,659.000000 
	C1239.000000,652.874695 1239.000000,646.956360 1239.000000,641.038025 
	C1239.000000,635.232910 1239.000000,629.427734 1239.000000,622.624329 
	C1247.010010,623.059204 1254.823975,623.762207 1262.642090,623.814819 
	C1268.344482,623.853271 1273.025146,625.166992 1277.116577,629.470276 
	C1282.058105,634.667542 1283.396606,640.477295 1280.887451,646.852356 
	C1278.501343,652.915222 1273.774414,656.980774 1267.166626,657.917358 
	C1261.986206,658.651550 1256.703857,658.665833 1250.975830,659.000000 
z"/>
</svg>